<?xml version="1.0" encoding="utf-8"?>
<svg viewBox="0 0 1600 3200" xmlns="http://www.w3.org/2000/svg">
  <defs>
    <radialGradient gradientUnits="userSpaceOnUse" cx="931.134" cy="1598.551" r="10.221" id="gradient-0" gradientTransform="matrix(-0.880914, 2.100051, -2.289887, -0.960546, 5431.492001, 1170.407706)">
      <stop offset="0" style="stop-color: rgb(227, 66, 52);"/>
      <stop offset="1" style="stop-color: rgba(156, 33, 21, 1)"/>
    </radialGradient>
    <radialGradient gradientUnits="userSpaceOnUse" cx="933.146" cy="1588.661" r="16.155" id="gradient-1" gradientTransform="matrix(-0.845771, 1.495937, -1.963944, -1.110371, 4846.325697, 1954.02908)">
      <stop offset="0" style="stop-color: rgb(255, 145, 164);"/>
      <stop offset="1" style="stop-color: rgba(255, 43, 78, 1)"/>
    </radialGradient>
    <radialGradient gradientUnits="userSpaceOnUse" cx="944.324" cy="1604.538" r="11.945" id="gradient-2" gradientTransform="matrix(-1.034465, 2.156335, -1.491782, -0.715658, 4331.056283, 707.066993)">
      <stop offset="0" style="stop-color: rgb(255, 145, 164);"/>
      <stop offset="1" style="stop-color: rgba(255, 43, 78, 1)"/>
    </radialGradient>
    <radialGradient gradientUnits="userSpaceOnUse" cx="918.447" cy="1624.272" r="20.397" id="gradient-3" gradientTransform="matrix(0.062634, 0.904293, -1.062228, 0.073575, 2588.652456, 673.219649)">
      <stop offset="0" style="stop-color: rgba(240, 128, 128, 1)"/>
      <stop offset="1" style="stop-color: rgba(229, 37, 37, 1)"/>
    </radialGradient>
    <radialGradient gradientUnits="userSpaceOnUse" cx="594.849" cy="1626.378" r="13.415" id="gradient-4" gradientTransform="matrix(1.442427, -0.718733, 0.665029, 1.334642, -1347.021458, -113.814633)">
      <stop offset="0" style="stop-color: rgb(248, 131, 121);"/>
      <stop offset="1" style="stop-color: rgba(243, 42, 24, 1)"/>
    </radialGradient>
    <radialGradient gradientUnits="userSpaceOnUse" cx="584.468" cy="1636.438" r="13.335" id="gradient-5" gradientTransform="matrix(-1.133936, 1.946776, -1.202498, -0.700414, 3218.464577, 1642.03576)">
      <stop offset="0" style="stop-color: rgb(248, 131, 121);"/>
      <stop offset="1" style="stop-color: rgba(243, 42, 24, 1)"/>
    </radialGradient>
    <radialGradient gradientUnits="userSpaceOnUse" cx="568.768" cy="1658.17" r="8.724" id="gradient-6" gradientTransform="matrix(-0.000149, 1.969285, -2.351052, -0.000175, 4472.361589, 534.574858)">
      <stop offset="0" style="stop-color: rgb(248, 131, 121);"/>
      <stop offset="1" style="stop-color: rgba(243, 42, 24, 1)"/>
    </radialGradient>
    <radialGradient gradientUnits="userSpaceOnUse" cx="570.516" cy="1672.731" r="8.942" id="gradient-7" gradientTransform="matrix(0.575379, 1.904155, -1.307764, 0.395167, 2433.493034, -79.654662)">
      <stop offset="0" style="stop-color: rgb(248, 131, 121);"/>
      <stop offset="1" style="stop-color: rgba(243, 42, 24, 1)"/>
    </radialGradient>
    <radialGradient gradientUnits="userSpaceOnUse" cx="577.355" cy="1680.791" r="9.249" id="gradient-8" gradientTransform="matrix(1.158077, 1.974633, -1.410526, 0.827241, 2279.531956, -849.693458)">
      <stop offset="0" style="stop-color: rgb(248, 131, 121);"/>
      <stop offset="1" style="stop-color: rgba(243, 42, 24, 1)"/>
    </radialGradient>
    <radialGradient gradientUnits="userSpaceOnUse" cx="583.924" cy="1693.757" r="10.513" id="gradient-9" gradientTransform="matrix(2.288148, 1.436439, -0.531687, 0.846941, 147.628034, -580.335887)">
      <stop offset="0" style="stop-color: rgb(248, 131, 121);"/>
      <stop offset="1" style="stop-color: rgba(243, 42, 24, 1)"/>
    </radialGradient>
    <radialGradient gradientUnits="userSpaceOnUse" cx="749.648" cy="1696.111" r="10.375" id="gradient-10" gradientTransform="matrix(2.710146, 0.185354, -0.092055, 1.345967, -1137.150515, -725.945808)">
      <stop offset="0" style="stop-color: rgba(248, 132, 121, 1)"/>
      <stop offset="1" style="stop-color: rgba(243, 42, 24, 1)"/>
    </radialGradient>
    <radialGradient gradientUnits="userSpaceOnUse" cx="739.767" cy="1696.065" r="8.583" id="gradient-11" gradientTransform="matrix(2.478411, -0.014904, 0.008512, 1.415643, -1123.751419, -693.67042)">
      <stop offset="0" style="stop-color: rgba(248, 132, 121, 1)"/>
      <stop offset="1" style="stop-color: rgba(243, 42, 24, 1)"/>
    </radialGradient>
    <radialGradient gradientUnits="userSpaceOnUse" cx="707.632" cy="1698.773" r="10.001" id="gradient-12" gradientTransform="matrix(2.212299, -0.280784, 0.195391, 1.539488, -1189.74478, -717.729647)">
      <stop offset="0" style="stop-color: rgba(248, 132, 121, 1)"/>
      <stop offset="1" style="stop-color: rgba(243, 42, 24, 1)"/>
    </radialGradient>
    <radialGradient gradientUnits="userSpaceOnUse" cx="692.399" cy="1699.475" r="9.089" id="gradient-13" gradientTransform="matrix(2.3789, -0.129902, 0.094561, 1.731735, -1115.454167, -1153.623951)">
      <stop offset="0" style="stop-color: rgba(248, 132, 121, 1)"/>
      <stop offset="1" style="stop-color: rgba(243, 42, 24, 1)"/>
    </radialGradient>
    <radialGradient gradientUnits="userSpaceOnUse" cx="597.749" cy="1701.74" r="9.669" id="gradient-14" gradientTransform="matrix(2.150184, 0.241165, -0.176436, 1.57307, -387.273514, -1119.371901)">
      <stop offset="0" style="stop-color: rgba(248, 132, 121, 1)"/>
      <stop offset="1" style="stop-color: rgba(243, 42, 24, 1)"/>
    </radialGradient>
    <radialGradient gradientUnits="userSpaceOnUse" cx="613.03" cy="1703.532" r="8.167" id="gradient-15" gradientTransform="matrix(2.386692, 0.157628, -0.103748, 1.570876, -673.326608, -1069.080676)">
      <stop offset="0" style="stop-color: rgba(248, 132, 121, 1)"/>
      <stop offset="1" style="stop-color: rgba(243, 42, 24, 1)"/>
    </radialGradient>
    <radialGradient gradientUnits="userSpaceOnUse" cx="626.267" cy="1705.494" r="8.884" id="gradient-16" gradientTransform="matrix(2.322618, 0.032197, -0.020176, 1.455447, -793.90186, -796.927612)">
      <stop offset="0" style="stop-color: rgba(248, 132, 121, 1)"/>
      <stop offset="1" style="stop-color: rgba(243, 42, 24, 1)"/>
    </radialGradient>
    <radialGradient gradientUnits="userSpaceOnUse" cx="641.113" cy="1705.62" r="8.316" id="gradient-17" gradientTransform="matrix(2.301853, -0.121608, 0.093031, 1.760935, -993.358686, -1219.933589)">
      <stop offset="0" style="stop-color: rgba(248, 132, 121, 1)"/>
      <stop offset="1" style="stop-color: rgba(243, 42, 24, 1)"/>
    </radialGradient>
    <radialGradient gradientUnits="userSpaceOnUse" cx="655.264" cy="1704.547" r="7.594" id="gradient-18" gradientTransform="matrix(2.193983, -0.200565, 0.14853, 1.624775, -1035.551034, -933.537478)">
      <stop offset="0" style="stop-color: rgba(248, 132, 121, 1)"/>
      <stop offset="1" style="stop-color: rgba(243, 42, 24, 1)"/>
    </radialGradient>
    <radialGradient gradientUnits="userSpaceOnUse" cx="669.715" cy="1702.099" r="7.205" id="gradient-19" gradientTransform="matrix(2.265026, -0.352315, 0.25636, 1.648135, -1285.336855, -866.226121)">
      <stop offset="0" style="stop-color: rgba(248, 132, 121, 1)"/>
      <stop offset="1" style="stop-color: rgba(243, 42, 24, 1)"/>
    </radialGradient>
    <radialGradient gradientUnits="userSpaceOnUse" cx="679.46" cy="1701.669" r="7.545" id="gradient-20" gradientTransform="matrix(2.401652, -0.370454, 0.294679, 1.910402, -1453.812733, -1297.492699)">
      <stop offset="0" style="stop-color: rgba(248, 132, 121, 1)"/>
      <stop offset="1" style="stop-color: rgba(243, 42, 24, 1)"/>
    </radialGradient>
    <radialGradient gradientUnits="userSpaceOnUse" cx="804.784" cy="1701.6" r="104.824" id="gradient-21" gradientTransform="matrix(1.185977, -0.003606, 0.000682, 0.224375, -148.573761, 1322.087801)">
      <stop offset="0" style="stop-color: rgba(252, 137, 172, 1)"/>
      <stop offset="0.594" style="stop-color: rgb(249, 38, 101);"/>
      <stop offset="1" style="stop-color: rgb(180, 5, 58);"/>
    </radialGradient>
    <radialGradient gradientUnits="userSpaceOnUse" cx="820.588" cy="1693.183" r="40.958" id="gradient-22" gradientTransform="matrix(0.460799, -0.029061, 0.021347, 0.338479, 406.318937, 1143.922248)">
      <stop offset="0" style="stop-color: rgba(252, 137, 172, 1)"/>
      <stop offset="1" style="stop-color: rgba(249, 38, 101, 1)"/>
    </radialGradient>
    <radialGradient gradientUnits="userSpaceOnUse" cx="884.097" cy="1683.171" r="10.406" id="gradient-23" gradientTransform="matrix(0.799804, -0.691197, 0.653868, 0.756609, -923.578555, 1020.754064)">
      <stop offset="0" style="stop-color: rgba(249, 38, 101, 1)"/>
      <stop offset="1" style="stop-color: rgba(180, 5, 58, 1)"/>
    </radialGradient>
    <radialGradient gradientUnits="userSpaceOnUse" cx="886.053" cy="1697.188" r="32.745" id="gradient-24" gradientTransform="matrix(-0.7824, -0.406398, 0.427187, -0.822422, 855.541806, 3453.718792)">
      <stop offset="0" style="stop-color: rgba(249, 38, 101, 1)"/>
      <stop offset="1" style="stop-color: rgba(180, 5, 58, 1)"/>
    </radialGradient>
    <linearGradient gradientUnits="userSpaceOnUse" x1="1634.363" y1="1500.185" x2="1634.363" y2="1581.489" id="gradient-26" gradientTransform="matrix(-0.71733, 0.696732, -0.178642, -0.183924, 3080.882722, 690.616893)">
      <stop offset="0" style="stop-color: rgba(174, 181, 218, 1)"/>
      <stop offset="1" style="stop-color: rgba(104, 118, 186, 1)"/>
    </linearGradient>
    <radialGradient gradientUnits="userSpaceOnUse" cx="1601.783" cy="1566.368" r="16.357" id="gradient-27" gradientTransform="matrix(-0.571378, 1.418427, -2.371151, -0.955155, 6233.828843, 788.171613)">
      <stop offset="0" style="stop-color: rgb(104, 118, 186);"/>
      <stop offset="1" style="stop-color: rgb(174, 181, 218);"/>
    </radialGradient>
    <linearGradient gradientUnits="userSpaceOnUse" x1="808.334" y1="1483.593" x2="808.334" y2="1713.394" id="gradient-25" gradientTransform="matrix(0.972908, -0.231198, 0.089941, 0.378476, -15.646512, 1203.062426)">
      <stop offset="0" style="stop-color: rgba(119, 136, 153, 1)"/>
      <stop offset="1" style="stop-color: rgba(73, 85, 97, 1)"/>
    </linearGradient>
    <linearGradient gradientUnits="userSpaceOnUse" x1="932.592" y1="1498.408" x2="932.592" y2="1548.125" id="gradient-28" gradientTransform="matrix(-0.77783, -0.628472, 1.730546, -2.141809, -961.986995, 5350.595158)">
      <stop offset="0" style="stop-color: rgb(119, 136, 153);"/>
      <stop offset="1" style="stop-color: rgba(9, 15, 15, 1)"/>
    </linearGradient>
    <radialGradient gradientUnits="userSpaceOnUse" cx="768.903" cy="2529.245" r="3.892" id="gradient-29" gradientTransform="matrix(6.652113, -14.616594, 10.588599, 4.81894, -31153.466245, 1624.033171)">
      <stop offset="0" style="stop-color: rgb(72.941% 85.49% 33.333%)"/>
      <stop offset="1" style="stop-color: rgb(37.394% 50.429% 0%)"/>
    </radialGradient>
    <radialGradient gradientUnits="userSpaceOnUse" cx="800.865" cy="1605.721" r="800" id="gradient-30" gradientTransform="matrix(1.469843, 0.002702, -0.005218, 2.836119, -368.778353, -2956.09941)">
      <stop offset="0" style="stop-color: rgb(76, 76, 76);"/>
      <stop offset="1" style="stop-color: rgb(27, 27, 27);"/>
    </radialGradient>
  </defs>
  <rect width="1600" height="3200" style="fill: url('#gradient-30');">
    <title>Background</title>
  </rect>
  <g style="" transform="matrix(1.223694, 0, 0, 1.223694, -178.955231, -357.9104)">
    <title>Ahp</title>
    <g style="transform-origin: 854.466px 1611.16px;" transform="matrix(1.332806, -4.661556, 4.661556, 1.332806, -143.445068, -295.190552)">
      <title>Ahp Hair Behind</title>
      <path style="stroke: rgb(0, 0, 0); fill: rgb(73, 85, 97); stroke-width: 1.01131px;" d="M 1008.992 1596.957 C 994.348 1626.695 966.761 1653.451 938.659 1682.188 C 931.253 1689.762 931.765 1689.401 926.51 1694.991 C 922.129 1699.651 920.696 1701.174 913.257 1709.229 C 914.247 1704.875 918.242 1697.103 921.901 1687.745 C 913.697 1694.536 890.241 1708.737 872.419 1709.604 C 867.634 1709.837 865.173 1713.007 860.293 1709.452 C 856.935 1707.006 861.401 1703.464 856.45 1705.933 C 841.454 1713.411 813.457 1728.968 794.939 1721.616 C 783.406 1717.037 782.236 1701.418 768.952 1705.745 C 762.131 1707.967 755.121 1706.441 747.923 1701.166 C 740.612 1695.808 752.981 1727.442 742.167 1732.523 C 734.72 1736.022 734.4 1745.348 725.394 1742.182 C 700.818 1733.542 710.182 1704.88 769.3 1674.515 C 843.125 1636.596 893.251 1562.78 962.538 1516.612 C 974.158 1508.869 988.121 1508.764 1004.428 1516.296 C 1027.041 1526.741 1023.151 1555.746 1008.992 1596.957 Z">
        <title>Ahp Hair Behind Fill</title>
      </path>
      <path style="stroke: rgb(0, 0, 0); fill: none; stroke-linecap: round; stroke-width: 1.01131px;" d="M 915.258 1685.629 C 903.375 1694.011 890.774 1700.738 877.453 1705.811">
        <title>Ahp Hair Behind Detail</title>
      </path>
    </g>
    <g style="transform-origin: 660.025px 1666.19px;" transform="matrix(0.349136, -4.835759, 4.835759, 0.349136, 357.343475, 644.505798)">
      <title>Ahp Stinger</title>
      <path style="fill: url('#gradient-4');" d="M 584.945 1630.989 L 592.322 1635.088 C 597.039 1629.525 604.045 1624.169 611.78 1619.622 C 604.221 1619.219 594.13 1622.455 584.945 1630.989 Z">
        <title>Barb Fill</title>
      </path>
      <path style="fill: url('#gradient-5');" d="M 584.742 1631.087 C 569.795 1631.039 565.966 1642.105 568.276 1651.411 C 568.842 1653.693 576.459 1655.03 580.609 1654.81 C 592.121 1654.199 597.074 1645.998 592.36 1635.494 C 591.155 1632.809 587.686 1631.096 584.742 1631.087 Z">
        <title>Metasoma 1</title>
      </path>
      <path style="fill: url('#gradient-6');" d="M 568.37 1652.262 C 563.17 1656.502 562.057 1660.447 567.361 1665.695 C 569.463 1667.775 577.536 1668.728 580.22 1665.46 C 581.613 1663.763 581.872 1657.251 580.221 1654.769 C 579.081 1653.055 571.599 1649.629 568.37 1652.262 Z">
        <title>Metasoma 2</title>
      </path>
      <path style="fill: url('#gradient-7');" d="M 567.758 1666.612 C 564.295 1670.204 567.115 1677.974 571.412 1680.512 C 574.697 1682.452 580.135 1680.483 582.346 1677.374 C 585.529 1672.898 584.118 1668.016 580.033 1666.338 C 576.649 1664.948 570.826 1663.43 567.758 1666.612 Z">
        <title>Metasoma 3</title>
      </path>
      <path style="fill: url('#gradient-8');" d="M 571.502 1681.148 C 569.417 1685.246 571.216 1691.949 576.866 1692.882 C 579.171 1693.263 587.825 1693.277 588.453 1690.672 C 590.129 1683.716 588.316 1679.395 582.002 1678.476 C 580.509 1678.259 572.916 1678.369 571.502 1681.148 Z">
        <title>Metasoma 4</title>
      </path>
      <path style="fill: url('#gradient-9');" d="M 577.785 1693.276 C 577.907 1701.285 584.93 1708.38 592.887 1706.017 C 596.272 1705.012 600.303 1699.878 598.757 1696.117 C 597.416 1692.856 592.614 1691.492 589.441 1691.136 C 587.556 1690.925 577.748 1690.865 577.785 1693.276 Z">
        <title>Metasoma 5</title>
      </path>
      <path style="fill: url('#gradient-14');" d="M 593.764 1705.977 C 598.999 1709.867 604.573 1710.615 610.355 1708.187 C 613.143 1705.371 613.858 1701.952 612.501 1697.931 C 609.683 1695.293 605.423 1695.182 599.441 1696.943 C 595.971 1697.965 593.941 1700.747 593.764 1705.977 Z">
        <title>Metasoma 6</title>
      </path>
      <path style="fill: url('#gradient-15');" d="M 610.688 1708.203 C 614.771 1711.887 619.311 1712.69 624.739 1710.684 C 626.662 1707.088 626.849 1703.568 625.301 1700.124 C 621.011 1696.389 616.961 1695.821 612.707 1698.111 C 609.871 1701.14 609.389 1704.541 610.688 1708.203 Z">
        <title>Metasoma 7</title>
      </path>
      <path style="fill: url('#gradient-16');" d="M 624.968 1710.725 C 629.89 1713.599 634.648 1713.43 639.732 1710.225 C 641.371 1707.064 641.528 1703.989 640.204 1701 C 635.275 1697.548 630.534 1697.365 625.499 1700.253 C 622.787 1703.057 622.613 1706.484 624.968 1710.725 Z">
        <title>Metasoma 8</title>
      </path>
      <path style="fill: url('#gradient-17');" d="M 640.045 1710.293 C 645.399 1713.219 649.905 1712.859 654.128 1709.299 C 655.686 1705.785 655.646 1702.821 654.007 1700.404 C 649.198 1697.92 644.858 1698.286 640.418 1701.138 C 638.175 1704.119 638.044 1707.079 640.045 1710.293 Z">
        <title>Metasoma 9</title>
      </path>
      <path style="fill: url('#gradient-18');" d="M 654.34 1709.39 C 659.238 1711.797 663.189 1711.269 666.751 1708.024 C 668.535 1704.79 668.26 1701.885 665.926 1699.307 C 661.142 1697.173 657.478 1697.697 654.335 1700.616 C 652.19 1702.608 652.179 1705.516 654.34 1709.39 Z">
        <title>Metasoma 10</title>
      </path>
      <path style="fill: url('#gradient-19');" d="M 667.015 1707.808 C 671.081 1710.051 674.658 1709.626 678.225 1706.266 C 680.108 1702.87 679.868 1700.153 677.503 1698.115 C 673.027 1695.707 669.404 1696.057 666.121 1699.272 C 664.469 1702.921 664.757 1705.714 667.015 1707.808 Z">
        <title>Metasoma 11</title>
      </path>
      <path style="fill: url('#gradient-20');" d="M 678.41 1706.16 C 682.193 1708.055 686.008 1707.409 690.28 1704.091 C 692.416 1700.991 692.544 1698.015 690.665 1695.162 C 685.021 1692.427 681.245 1693.071 678.069 1697.775 C 676.531 1700.053 676.363 1703.032 678.41 1706.16 Z">
        <title>Metasoma 12</title>
      </path>
      <path style="fill: url('#gradient-13');" d="M 691.302 1695.067 C 695.323 1692.215 699.743 1691.939 705.695 1694.184 C 707.512 1697.347 707.663 1700.761 706.146 1704.424 C 699.649 1707.774 694.932 1707.919 691.014 1704.495 C 687.855 1701.156 688.78 1696.856 691.302 1695.067 Z">
        <title>Metasoma 13</title>
      </path>
      <path style="fill: url('#gradient-12');" d="M 706.472 1704.328 C 712.698 1707.752 718.381 1706.335 723.521 1701.376 C 724.633 1698.217 724.361 1694.998 722.705 1691.719 C 716.097 1689.22 710.821 1689.931 706.107 1694.097 C 703.588 1697.238 703.391 1702.633 706.472 1704.328 Z">
        <title>Metasoma 14</title>
      </path>
      <path style="fill: url('#gradient-11');" d="M 723.84 1701.209 C 728.506 1703.477 732.847 1703.365 737.297 1701.244 C 739.084 1697.638 738.942 1694.106 736.87 1690.649 C 734.421 1689.092 732.115 1688.357 729.949 1688.444 C 727.08 1688.515 725.026 1689.471 723.068 1691.57 C 720.517 1694.523 720.904 1699.782 723.84 1701.209 Z">
        <title>Metasoma 15</title>
      </path>
      <path style="fill: url('#gradient-10'); stroke-width: 0.825024px;" d="M 737.893 1701.518 C 740.816 1704.45 744.447 1704.955 750.067 1703.443 C 753.47 1702.456 755.502 1700.357 756.163 1697.147 C 756.141 1692.394 753.957 1689.441 749.61 1688.288 C 745.437 1687.181 741.221 1687.804 737.134 1690.815 C 734.346 1692.869 735.196 1699.048 737.893 1701.518 Z">
        <title>Metasoma 16</title>
      </path>
      <path style="stroke: rgb(0, 0, 0); fill: none; stroke-width: 0.674207px;" d="M 599.396 1696.992 C 598.668 1693.827 594.152 1691.05 588.728 1690.718 C 590.259 1683.346 588.193 1679.11 582.019 1678.141 C 585.177 1672.688 584.52 1668.601 579.983 1665.974 C 581.465 1662.728 581.728 1658.982 580.451 1654.773 C 592.82 1653.406 596.789 1646.863 592.492 1635.026 C 597.492 1629.317 603.995 1624.126 611.838 1619.624 C 602.229 1619.331 593.158 1623.538 584.984 1630.74 C 571.274 1631.483 565.888 1638.917 568.404 1651.798 C 562.837 1656.122 562.524 1660.874 567.683 1666.327 C 564.908 1672.106 566.411 1677.383 571.389 1680.863 C 570 1688.195 571.74 1691.864 577.514 1693.294 C 579.377 1702.926 585.922 1708.861 593.911 1705.927">
        <title>Stinger Outline 1</title>
      </path>
      <path style="stroke: rgb(0, 0, 0); fill: none; stroke-width: 0.674207px;" d="M 690.415 1695.331 C 694.581 1692.343 699.664 1691.921 705.677 1694.147 C 710.271 1690.107 715.912 1689.269 722.599 1691.635 C 726.77 1687.87 731.541 1687.356 736.874 1690.598 C 743.594 1686.793 751.936 1686.814 754.953 1692.082 C 756.463 1694.719 756.472 1697.711 755.312 1699.612 C 753.878 1701.962 752.033 1702.959 749.614 1703.594 C 744.955 1704.816 740.604 1704.543 737.214 1701.317 C 732.857 1703.382 728.315 1703.382 723.522 1701.42 C 718.149 1706.472 712.29 1707.364 706.078 1704.487 C 699.648 1707.857 693.79 1707.879 689.947 1703.777">
        <title>Stinger Outline 2</title>
      </path>
      <path style="stroke: rgb(0, 0, 0); fill: none; stroke-width: 0.674207px;" d="M 593.567 1705.883 C 599.643 1710.117 604.684 1710.693 610.416 1708.105 C 613.938 1711.721 619.458 1712.897 624.702 1710.687 C 629.792 1713.665 634.924 1713.486 639.745 1710.203 C 644.455 1713.116 649.767 1712.961 654.11 1709.287 C 658.961 1711.606 662.937 1711.366 666.764 1707.996 C 670.332 1710.296 675.459 1709.319 678.226 1706.195 C 682.366 1708.307 686.991 1707.14 690.482 1703.792">
        <title>Stinger Outline 3</title>
      </path>
      <path style="stroke: rgb(0, 0, 0); fill: none; stroke-width: 0.674207px;" d="M 598.947 1696.71 C 604.891 1695.358 609.108 1694.742 612.477 1697.972 C 616.787 1695.775 621.045 1696.492 625.253 1700.124 C 630.2 1697.277 635.169 1697.575 640.159 1701.017 C 644.742 1698.256 649.292 1697.755 654.004 1700.436 C 657.61 1697.218 661.263 1697.365 665.847 1699.326 C 669.618 1696.125 672.628 1695.503 677.443 1698.138 C 680.204 1693.76 686.78 1691.922 690.871 1695.346">
        <title>Stinger Outline 4</title>
      </path>
    </g>
    <g style="transform-origin: 854.564px 1645.38px;" transform="matrix(-0.517877, -4.820609, 4.820609, -0.517877, 32.689362, -232.939102)">
      <title>Ahp Intestines</title>
      <path style="stroke: rgb(0, 0, 0); fill: url('#gradient-23'); stroke-width: 0.589931px;" d="M 877.159 1671.926 C 880.331 1670.498 883.621 1670.272 886.991 1671.493 C 890.515 1672.77 893.987 1675.509 896.328 1678.9 C 898.776 1682.446 899.074 1686.922 896.538 1691.994">
        <title>Ahp Tract 4</title>
      </path>
      <path style="stroke: rgb(0, 0, 0); fill: url('#gradient-24'); stroke-width: 0.589931px;" d="M 859.113 1707.518 C 865.534 1710.156 878.55 1710.6 885.508 1710.218 C 889.133 1710.019 892.684 1709.266 896.162 1707.959 C 903.087 1705.356 902.236 1698.069 892.89 1686.074 C 888.559 1680.515 883.244 1675.468 877.741 1670.931 C 871.098 1665.454 862.527 1664.629 852.03 1668.455 C 845.185 1670.95 839.579 1675.604 835.213 1682.418">
        <title>Ahp Tract 3</title>
      </path>
      <path style="stroke: rgb(0, 0, 0); fill: none; stroke-width: 0.589931px;" d="M 874.881 1688.628 C 873.098 1683.698 870.162 1680.084 866.071 1677.786 C 860.447 1674.627 854.647 1677.45 848.671 1686.255">
        <title>Tract Lining 2</title>
      </path>
      <path style="stroke: rgb(0, 0, 0); stroke-linecap: round; fill: url('#gradient-22'); stroke-width: 0.589931px;" d="M 813.129 1698.689 C 808.124 1693.437 806.66 1687.089 811.736 1682.93 C 816.154 1679.31 821.92 1678.147 828.922 1679.967 C 843.763 1683.825 858.664 1688.347 873.403 1692.585 C 876.044 1693.344 878.391 1691.462 880.465 1693.529 C 882.877 1695.933 884.86 1697.935 890.494 1697.659">
        <title>Ahp Tract 2</title>
      </path>
      <path style="stroke: rgb(0, 0, 0); fill: none; stroke-linecap: round; stroke-width: 0.589931px;" d="M 827.304 1690.747 C 830.782 1694.973 836.705 1699.014 845.74 1700.242">
        <title>Tract Lining 1</title>
      </path>
      <path style="stroke: rgb(0, 0, 0); fill: url('#gradient-21'); stroke-width: 0.589931px;" d="M 812.456 1697.732 C 796.851 1690.356 781.048 1687.425 765.048 1688.941 C 755.917 1689.806 750.871 1693.258 749.909 1699.295 C 749.376 1702.64 750.099 1705.203 752.078 1706.986 C 756.022 1710.539 765.042 1713.191 769.762 1713.635 C 791.638 1715.692 804.17 1716.642 830.111 1714.958 C 839.831 1714.327 858.94 1710.643 867.914 1707.385 C 876.413 1704.3 885.978 1699.287 891.9 1693.692 C 900.229 1685.824 896.631 1689.407 904.405 1682.563 C 909.71 1677.893 908.762 1677.772 914.375 1673.498 C 926.472 1664.288 945.714 1674.774 957.134 1662.857 C 965.677 1653.942 970.4 1652.551 974.61 1646.022 C 976.68 1642.812 979.036 1640.211 981.917 1638.164 C 979.275 1636.871 975.858 1633.472 974.448 1630.291 C 970.003 1633.709 965.866 1637.23 963.636 1641.275 C 958.766 1650.108 947.9 1653.66 939.348 1658.615 C 930.008 1664.027 913.676 1656.152 906.419 1662.765 C 896.056 1672.208 899.124 1669.938 891.368 1676.321 C 885.125 1681.46 880.594 1683.636 873.312 1687.961 C 862.06 1694.644 849.733 1698.077 835.628 1697.884 C 814.94 1697.601 794.249 1697.743 773.557 1697.845">
        <title>Ahp Tract 1</title>
      </path>
    </g>
    <g transform="matrix(0.779432, -4.785285, 4.785285, 0.779432, -1014.760559, -891.881104)" style="transform-origin: 1626.25px 1544.27px;">
      <title>Ahp Head</title>
      <path style="stroke: rgb(0, 0, 0); fill: url('#gradient-27'); stroke-width: 0.758483px;" d="M 1619.356 1577.287 C 1618.219 1580.361 1616.822 1584.795 1617.078 1588.808 C 1597.093 1590.35 1586.517 1583.653 1586.089 1569.799 L 1606.35 1556.368 C 1607.943 1563.003 1612.563 1572.601 1619.356 1577.287 Z">
        <title>Ahp Neck Fill</title>
      </path>
      <path style="stroke: rgb(0, 0, 0); fill: none; stroke-linecap: round; stroke-opacity: 0.8; stroke-width: 0.589931px;" d="M 1611.219 1576.784 C 1611.979 1575.754 1612.983 1574.831 1614.232 1574.015">
        <title>Ahp Larynx</title>
      </path>
      <path style="stroke: rgb(0, 0, 0); fill: url('#gradient-26'); stroke-width: 0.842759px;" d="M 1624.043 1580.759 C 1614.745 1578.079 1606.696 1565.299 1604.552 1554.923 C 1600.948 1537.481 1599.743 1523.414 1616.682 1505.965 C 1623.908 1498.521 1642.152 1497.415 1654.381 1507.724 C 1670.489 1521.302 1670.824 1546.515 1652.866 1569.208 C 1646.317 1577.483 1634.14 1583.669 1624.043 1580.759 Z">
        <title>Ahp Head Fill</title>
      </path>
      <path style="stroke: rgb(0, 0, 0); fill: none; stroke-linecap: round; stroke-width: 0.758483px;" d="M 1625.24 1573.179 C 1627.131 1575.149 1629.899 1576.15 1633.557 1576.285">
        <title>Ahp Mouth</title>
      </path>
      <g>
        <title>Ahp Nose</title>
        <ellipse style="transform-box: fill-box; transform-origin: 50% 50%;" cx="1632.048" cy="1570.684" rx="0.707" ry="0.854" transform="matrix(0.923819, 0.38283, -0.38283, 0.923819, 0.000665, 0.002306)">
          <title>Ahp Right Nostril</title>
        </ellipse>
        <ellipse style="transform-origin: 1632.05px 1570.68px;" cx="1632.048" cy="1570.684" rx="0.707" ry="0.871" transform="matrix(-0.999927, 0.012086, 0.012086, 0.999927, 5.500353, 1.647987)">
          <title>Ahp Left Nostril</title>
        </ellipse>
        <path style="stroke: rgb(0, 0, 0); fill: none; stroke-linecap: round; transform-box: fill-box; transform-origin: 50% 50%; stroke-opacity: 0.8; stroke-width: 0.337104px;" d="M 1636.89 1572.579 C 1637.443 1572.783 1639.566 1571.626 1640.042 1569.298" transform="matrix(0.929356, -0.369185, 0.369185, 0.929356, -0.000005, -0.000023)">
          <title>Ahp Nose Labia</title>
        </path>
      </g>
      <g>
        <title>Ahp Right Eyelashes</title>
        <path style="fill: rgb(27, 27, 27); transform-box: fill-box; transform-origin: 50% 50%; fill-opacity: 0.95;" d="M 1634.836 1556.169 C 1628.014 1555.819 1622.587 1552.459 1619.562 1546.194 C 1615.302 1554.617 1630.775 1559.788 1634.836 1556.169 Z" transform="matrix(0.998554, -0.053765, 0.053765, 0.998554, -0.000217, 0.006963)">
          <title>Bottom Right Eyelash</title>
        </path>
        <path style="fill: rgb(27, 27, 27); transform-box: fill-box; transform-origin: 50% 50%; fill-opacity: 0.95;" d="M 1634.976 1554.833 C 1627.538 1554.925 1623.141 1551.577 1620.716 1545.687 C 1618.032 1554.363 1630.885 1558.997 1634.976 1554.833 Z" transform="matrix(0.998699, -0.050999, 0.050999, 0.998699, 0.000012, -0.000012)">
          <title>Top Right Eyelash</title>
        </path>
      </g>
      <g>
        <title>Ahp Left Eyelashes</title>
        <path style="fill: rgb(27, 27, 27); transform-box: fill-box; transform-origin: 50% 50%; fill-opacity: 0.95;" d="M 1643.232 1559.968 C 1648.193 1562.182 1652.841 1560.536 1657.466 1555.988 C 1656.822 1563.512 1647.118 1565.443 1643.232 1559.968 Z" transform="matrix(0.994768, 0.102164, -0.102164, 0.994768, 0.022045, -0.001032)">
          <title>Bottom Left Eyelash</title>
        </path>
        <path style="fill: rgb(27, 27, 27); fill-opacity: 0.95;" d="M 1643.538 1558.234 C 1648.375 1561.137 1653.612 1560.139 1657.418 1555.28 C 1656.18 1562.583 1646.966 1564.043 1643.538 1558.234 Z">
          <title>Top Left Eyelash</title>
        </path>
      </g>
      <path style="fill: none; stroke-linecap: round; stroke: rgb(27, 27, 27); stroke-width: 1.17986px;" d="M 1638.221 1546.918 C 1634.244 1540.686 1629.594 1537.943 1624.666 1537.722">
        <title>Ahp Right Eyebrow</title>
      </path>
      <path style="fill: none; stroke-linecap: round; stroke: rgb(27, 27, 27); stroke-width: 1.17986px;" d="M 1647.807 1550.832 C 1652.277 1547.65 1656.158 1547.256 1659.074 1549.955">
        <title>Ahp Left Eyebrow</title>
      </path>
    </g>
    <g style="transform-origin: 933.026px 1610.44px;" transform="matrix(1.660199, -4.55524, 4.55524, 1.660199, -19.88785, -632.214233)">
      <title>Ahp Organs</title>
      <path style="stroke: rgb(0, 0, 0); fill: url('#gradient-2'); stroke-width: 0.674207px;" d="M 952.708 1590.464 C 954.838 1588.951 957.578 1588.381 960.498 1589.598 C 965.7 1591.766 967.313 1597.166 965.336 1605.798 C 964.273 1610.438 962.729 1614.181 959.72 1618.147 C 957.421 1621.177 953.197 1622.465 948.031 1620.893 C 944.71 1619.882 942.835 1617.367 942.353 1612.569 C 941.549 1604.565 946.168 1595.111 952.708 1590.464 Z">
        <title>Ahp Left Lung</title>
      </path>
      <path style="stroke: rgb(0, 0, 0); fill: url('#gradient-0'); stroke-width: 0.674207px;" d="M 944.375 1585.773 C 947.396 1584.894 951.233 1586.135 952.647 1590.318 C 954.113 1594.656 954.009 1599.234 952.333 1604.052 C 950.931 1608.082 947.742 1610.916 942.766 1612.555 C 941.85 1612.857 940.979 1612.443 940.154 1611.313 C 939.596 1610.548 938.706 1610.224 937.485 1610.341 C 935.371 1610.544 933.741 1608.594 933.327 1604.979 C 932.485 1597.623 937.273 1587.839 944.375 1585.773 Z">
        <title>Ahp Heart</title>
      </path>
      <path style="stroke: rgb(0, 0, 0); fill: url('#gradient-1'); stroke-width: 0.674207px;" d="M 912.62 1599.212 C 911.734 1603.653 913.774 1609.573 920.142 1610.525 C 922.819 1610.925 927.186 1609.964 929.782 1608.339 C 936.01 1604.44 938.965 1599.632 941.326 1591.606 C 941.725 1590.251 943.226 1587.842 944.195 1586.726 C 945.687 1585.008 944.025 1583.329 939.921 1581.321 C 930.397 1576.661 914.697 1588.807 912.62 1599.212 Z">
        <title>Ahp Right Lung</title>
      </path>
      <path style="stroke: rgb(0, 0, 0); fill: url('#gradient-3'); stroke-width: 0.674207px;" d="M 937.948 1613.278 C 941.683 1617.206 942.039 1624.251 938.349 1629.423 C 934.601 1634.677 929.276 1639.068 922.118 1640.158 C 915.816 1641.117 910.558 1640.744 904.508 1635.895 C 902.465 1634.257 900.446 1630.985 900.019 1628.044 C 899.326 1623.27 901.658 1618.786 907.247 1615.246 C 909.701 1613.692 912.623 1613.798 915.883 1614.306 C 917.684 1614.587 920.847 1614.559 922.468 1613.303 C 926.856 1609.904 933.866 1608.985 937.948 1613.278 Z">
        <title>Ahp Stomach</title>
      </path>
    </g>
    <g style="transform-origin: 808.334px 1598.3px;" transform="matrix(0.507171, -4.821746, 4.821746, 0.507171, -29.317099, -36.032604)">
      <title>Ahp Hair Front</title>
      <path style="stroke: rgb(0, 0, 0); fill: url('#gradient-25'); stroke-width: 1.01131px;" d="M 1021.912 1515.609 C 997.756 1539.481 972.032 1560.26 944.738 1577.948 C 933.01 1585.548 921.507 1593.485 910.228 1601.757 C 861.748 1637.312 808.52 1665.266 750.547 1685.619 C 727.916 1693.564 704.971 1701.957 681.699 1707.943 C 656.505 1714.423 631.241 1717.89 613.033 1713.547 C 603.182 1711.197 587.086 1702.285 580.814 1691.986 C 585.191 1694.273 590.391 1695.717 595.451 1696.277 C 601.841 1693.613 610.458 1692.48 620.853 1689.964 C 614.924 1688.297 605.956 1686.84 602.913 1683.61 C 616.511 1686.935 629.111 1687.428 640.713 1685.089 C 645.234 1684.178 649.553 1682.558 653.669 1680.232 C 680.468 1665.088 704.317 1651.614 729.935 1634.319 C 754.474 1617.753 769.114 1606.814 794.617 1589.816 C 817.097 1574.833 834.65 1562.563 861.984 1544.76 C 884.979 1529.783 907.926 1518.223 933.781 1508.518 C 939.506 1506.369 946.601 1504.114 952.52 1502.558 C 958.323 1497.21 965.861 1489.14 974.495 1485.445 C 982.929 1481.836 992.36 1481.83 1002.019 1484.166 C 1015.597 1487.45 1025.315 1497.627 1031.652 1514.182 C 1037.619 1529.769 1036.407 1546.415 1028.019 1564.12 C 1023.476 1573.709 1017.959 1582.92 1012.025 1591.786 C 1022.99 1563.814 1026.471 1538.432 1021.912 1515.609 Z">
        <title>Ahp Hair Front Outline</title>
      </path>
      <path style="fill-opacity: 0.25; fill: url('#gradient-28'); transform-box: fill-box; transform-origin: 50% 50%;" d="M 950.244 1500.488 C 943.965 1503.855 932.603 1510.653 927.26 1516.065 C 920.606 1522.805 915.417 1531.328 911.409 1540.244 C 910.437 1542.406 909.212 1544.428 908.403 1546.658 C 906.029 1553.203 910.958 1550.627 921.73 1539.452 C 927.492 1533.475 938.344 1518.115 941.641 1513.608 C 945.134 1508.832 947.32 1505.591 950.244 1500.488 Z" transform="matrix(0.994016, 0.109232, -0.109232, 0.994016, 0, -0.000003)">
        <title>Ahp Hair Front Shadow</title>
      </path>
      <path style="stroke: rgb(0, 0, 0); fill: none; stroke-linecap: round; stroke-width: 1.01131px;" d="M 595.371 1696.27 C 611.712 1698.487 628.281 1697.631 645.807 1691.943">
        <title>Ahp Hair Front Detail</title>
      </path>
    </g>
    <path style="fill: url('#gradient-29'); transform-box: fill-box; transform-origin: 50% 50%;" d="M 768.709 2516.629 C 758.665 2521.311 752.517 2527.501 750.297 2535.211 C 748.637 2540.953 749.836 2546.806 753.886 2552.773 C 757.379 2557.913 759.058 2563.894 758.928 2570.721 C 758.761 2579.389 752.647 2587.062 743.766 2590.246 C 737.705 2592.422 729.715 2590.551 723.515 2584.085 C 718.031 2578.362 716.298 2570.618 718.327 2560.876 C 722.945 2538.672 739.738 2523.92 768.709 2516.629 Z" transform="matrix(0.987503, 0.157602, -0.157602, 0.987503, 0.000018, 0.000002)">
      <title>Venom Drop</title>
    </path>
  </g>
  <g style="" transform="matrix(1.657444, 0, 0, 1.657444, 803.261414, -2398.352295)">
    <title>Monogram</title>
    <path d="M 147.655 3042.902 C 150.399 3041.446 152.499 3039.178 153.045 3038.086 C 153.633 3036.896 153.409 3036.154 152.891 3035.636 C 152.345 3035.09 151.519 3035.062 150.861 3035.398 C 149.755 3035.958 148.901 3037.456 148.663 3038.128 C 148.607 3038.296 148.621 3038.338 148.803 3038.352 C 149.419 3038.38 149.769 3038.072 150.203 3037.414 C 150.665 3036.714 151.827 3035.202 152.471 3035.916 C 153.437 3036.994 150.133 3040.508 146.381 3042.748 C 146.087 3042.93 146.045 3043.028 146.157 3043.308 C 146.227 3043.504 146.339 3043.714 146.507 3043.896 C 146.661 3044.064 146.843 3044.106 147.207 3043.994 C 148.019 3043.756 149.853 3043.42 150.665 3043.448 C 150.847 3043.448 150.847 3043.364 150.805 3043.238 C 150.651 3042.804 150.245 3042.552 149.559 3042.566 C 149.069 3042.58 148.355 3042.692 147.655 3042.902 Z M 158.001 3040.284 C 156.979 3042.398 155.425 3043.574 154.571 3043.238 C 153.661 3042.888 153.647 3040.634 154.851 3038.562 C 156.041 3036.518 157.679 3035.482 158.323 3035.706 C 159.051 3035.958 159.135 3037.946 158.001 3040.284 Z M 158.575 3035.398 C 158.211 3035.02 157.553 3034.894 156.797 3035.216 C 155.341 3035.832 152.947 3038.464 152.989 3041.334 C 153.003 3042.412 153.493 3043.378 154.571 3043.728 C 156.363 3044.302 157.973 3042.636 158.967 3040.578 C 159.891 3038.674 160.213 3036.014 158.575 3035.398 Z M 165.745 3042.836 C 168.489 3041.38 170.589 3039.112 171.135 3038.02 C 171.723 3036.83 171.499 3036.088 170.981 3035.57 C 170.435 3035.024 169.609 3034.996 168.951 3035.332 C 167.845 3035.892 166.991 3037.39 166.753 3038.062 C 166.697 3038.23 166.711 3038.272 166.893 3038.286 C 167.509 3038.314 167.859 3038.006 168.293 3037.348 C 168.755 3036.648 169.917 3035.136 170.561 3035.85 C 171.527 3036.928 168.223 3040.442 164.471 3042.682 C 164.177 3042.864 164.135 3042.962 164.247 3043.242 C 164.317 3043.438 164.429 3043.648 164.597 3043.83 C 164.751 3043.998 164.933 3044.04 165.297 3043.928 C 166.109 3043.69 167.943 3043.354 168.755 3043.382 C 168.937 3043.382 168.937 3043.298 168.895 3043.172 C 168.741 3042.738 168.335 3042.486 167.649 3042.5 C 167.159 3042.514 166.445 3042.626 165.745 3042.836 Z M 176.399 3037.754 C 177.169 3036.732 177.085 3035.92 176.483 3035.304 C 176.007 3034.814 175.111 3034.73 174.425 3035.066 C 173.739 3035.402 172.801 3036.382 172.381 3037.222 C 172.311 3037.362 172.339 3037.446 172.521 3037.474 C 173.095 3037.586 173.585 3037.25 174.033 3036.69 C 174.691 3035.864 175.545 3035.066 176.063 3035.612 C 176.665 3036.242 175.363 3038.174 172.381 3039.056 C 172.199 3039.112 172.171 3039.224 172.255 3039.322 C 172.983 3040.204 173.879 3039.35 174.453 3039.742 C 174.901 3040.05 174.481 3041.044 173.809 3041.884 C 173.053 3042.836 171.891 3043.396 171.191 3042.962 C 170.687 3042.64 170.701 3041.646 171.401 3040.526 C 171.471 3040.414 171.429 3040.33 171.289 3040.33 C 170.869 3040.33 170.379 3040.652 170.141 3041.24 C 169.931 3041.744 169.889 3042.78 170.855 3043.41 C 171.751 3043.998 173.431 3043.97 174.621 3042.514 C 175.657 3041.24 175.853 3040.036 175.139 3039.434 C 174.971 3039.294 174.733 3039.21 174.495 3039.154 C 175.335 3038.804 176.049 3038.216 176.399 3037.754 Z" style="fill: rgb(108, 48, 130);"/>
    <path style="fill: none; stroke-linecap: round; stroke: rgb(108, 48, 130); stroke-width: 2px;" d="M 195.66 3029.201 L 195.66 3019.977 L 162.429 3029.014 L 129.767 3020.262 L 129.767 3056.505 L 161.827 3047.915 L 195.587 3056.961 L 195.587 3040.009 L 180.126 3040.009"/>
    <path style="fill: rgb(216, 216, 216); stroke-width: 2px; stroke-linecap: round; stroke: rgb(108, 48, 130); transform-box: fill-box; transform-origin: 50% 50%;" d="M 162.303 3029.121 L 161.924 3047.864"/>
    <path style="fill: rgb(216, 216, 216); stroke-linecap: round; stroke-width: 2px; stroke: rgb(108, 48, 130);" d="M 129.869 3039.902 L 143.493 3039.902"/>
  </g>
</svg>