<?xml version="1.0" encoding="utf-8"?>
<svg viewBox="0 0 500 500" xmlns="http://www.w3.org/2000/svg" xmlns:xlink="http://www.w3.org/1999/xlink" xmlns:bx="https://boxy-svg.com">
  <defs>
    <radialGradient gradientUnits="userSpaceOnUse" cx="394.28" cy="312.204" r="38.674" id="gradient-1" gradientTransform="matrix(0.752583, 0.593045, 0.563348, -0.714895, -363.315056, 291.695831)" spreadMethod="pad">
      <stop offset="0" style="stop-color: rgb(255, 255, 255);"/>
      <stop offset="1" style="stop-color: rgb(221, 223, 234);"/>
    </radialGradient>
    <linearGradient gradientUnits="userSpaceOnUse" x1="338.515" y1="233.057" x2="338.515" y2="309.467" id="gradient-2" gradientTransform="matrix(0.8797, 0.47553, 0.424755, -0.78577, -256.510559, 324.605377)">
      <stop offset="0" style="stop-color: rgba(55, 66, 90, 1)"/>
      <stop offset="1" style="stop-color: rgba(16, 20, 27, 1)"/>
    </linearGradient>
    <linearGradient gradientUnits="userSpaceOnUse" x1="343.097" y1="59.114" x2="343.097" y2="131.632" id="gradient-0" spreadMethod="pad" gradientTransform="matrix(1, 0, 0, -1, -186.191772, 190.746002)">
      <stop offset="0" style="stop-color: rgba(14, 19, 24, 1)"/>
      <stop offset="0.616" style="stop-color: rgb(54, 48, 70);"/>
      <stop offset="1" style="stop-color: rgb(89, 66, 83);"/>
    </linearGradient>
    <linearGradient id="gradient-17" bx:pinned="true">
      <title>Choco Body</title>
      <stop style="stop-color: rgb(92, 69, 85);" offset="0"/>
      <stop style="stop-color: rgb(82, 96, 143);" offset="1"/>
    </linearGradient>
    <linearGradient id="gradient-3" bx:pinned="true">
      <title>Choco Crest</title>
      <stop style="stop-color: rgb(14, 19, 24);" offset="0"/>
      <stop style="stop-color: rgb(54, 48, 70);" offset="0.616"/>
      <stop style="stop-color: rgb(89, 66, 83);" offset="1"/>
    </linearGradient>
    <linearGradient id="gradient-7" bx:pinned="true">
      <title>Choco Feather 1</title>
      <stop style="stop-color: rgb(45, 51, 87);" offset="0"/>
      <stop style="stop-color: rgb(133, 150, 183);" offset="1"/>
    </linearGradient>
    <linearGradient id="gradient-9" bx:pinned="true">
      <title>Choco Feather 2</title>
      <stop style="stop-color: rgb(170, 160, 180);" offset="0"/>
      <stop style="stop-color: rgb(99, 95, 112);" offset="1"/>
    </linearGradient>
    <linearGradient id="gradient-5" bx:pinned="true">
      <title>Choco Limb</title>
      <stop style="stop-color: rgb(55, 66, 90);" offset="0"/>
      <stop style="stop-color: rgb(16, 20, 27);" offset="1"/>
    </linearGradient>
    <linearGradient id="gradient-13" bx:pinned="true">
      <title>Choco Wing</title>
      <stop style="stop-color: rgb(104, 112, 149);" offset="0"/>
      <stop style="stop-color: rgb(12, 19, 38);" offset="1"/>
    </linearGradient>
    <linearGradient id="gradient-15" bx:pinned="true">
      <title>Choco Wing 2</title>
      <stop style="stop-color: rgb(164, 160, 187);" offset="0"/>
      <stop style="stop-color: rgb(71, 81, 117);" offset="0.403"/>
      <stop style="stop-color: rgb(45, 49, 63);" offset="1"/>
    </linearGradient>
    <linearGradient id="gradient-19" bx:pinned="true">
      <title>Choco Feet</title>
      <stop style="stop-color: rgb(125, 193, 228);" offset="0"/>
      <stop style="stop-color: rgb(85, 140, 192);" offset="1"/>
    </linearGradient>
    <linearGradient id="gradient-11" bx:pinned="true">
      <title>Tail Feather</title>
      <stop style="stop-color: rgb(34, 42, 58);" offset="0"/>
      <stop style="stop-color: rgb(119, 124, 156);" offset="1"/>
    </linearGradient>
    <linearGradient id="gradient-22" bx:pinned="true">
      <title>Tree Branch</title>
      <stop style="stop-color: rgb(202, 173, 159);" offset="0"/>
      <stop style="stop-color: rgb(56, 51, 42);" offset="1"/>
    </linearGradient>
    <linearGradient id="gradient-4" bx:pinned="true">
      <title>White Feather</title>
      <stop style="stop-color: rgb(255, 255, 255);" offset="0"/>
      <stop style="stop-color: rgb(221, 223, 234);" offset="1"/>
    </linearGradient>
    <linearGradient gradientUnits="userSpaceOnUse" x1="445.001" y1="248.836" x2="445.001" y2="282.593" id="gradient-6" gradientTransform="matrix(0.636638, 0.771164, -0.583859, 0.482006, 313.952728, -207.178146)">
      <stop offset="0" style="stop-color: rgba(45, 51, 87, 1)"/>
      <stop offset="1" style="stop-color: rgb(133, 150, 183);"/>
    </linearGradient>
    <linearGradient gradientUnits="userSpaceOnUse" x1="435.855" y1="275.556" x2="435.855" y2="298.123" id="gradient-8" gradientTransform="matrix(-0.391841, -0.920033, 0.504228, -0.214751, 461.806604, 750.640025)">
      <stop offset="0" style="stop-color: rgba(170, 160, 180, 1)"/>
      <stop offset="1" style="stop-color: rgb(99, 95, 112);"/>
    </linearGradient>
    <linearGradient id="gradient-5-0" gradientUnits="userSpaceOnUse" x1="444.054" y1="280.841" x2="444.054" y2="296.884" gradientTransform="matrix(1, 0, 0, -1, -387.324226, 579.238953)" xlink:href="#gradient-5"/>
    <radialGradient gradientUnits="userSpaceOnUse" cx="408.206" cy="384.707" r="22.014" id="gradient-10" gradientTransform="matrix(1.791085, -0.171078, 0.414693, 4.341655, -483.435019, -1233.664301)" spreadMethod="pad">
      <stop offset="0" style="stop-color: rgb(119, 124, 156);"/>
      <stop offset="1" style="stop-color: rgb(42, 51, 68);"/>
    </radialGradient>
    <radialGradient gradientUnits="userSpaceOnUse" cx="367.294" cy="407.884" r="15.102" id="gradient-11-0" gradientTransform="matrix(4.114712, -0.448952, 1.248715, 11.444581, -1637.828071, -4039.879412)" xlink:href="#gradient-11"/>
    <linearGradient id="gradient-5-1" gradientUnits="userSpaceOnUse" x1="393.837" y1="467.809" x2="393.837" y2="474.056" gradientTransform="matrix(-0.986505, -0.163735, -0.156889, 0.94526, 568.256683, 90.282593)" xlink:href="#gradient-5"/>
    <linearGradient id="gradient-11-1" gradientUnits="userSpaceOnUse" x1="363.746" y1="332.146" x2="363.746" y2="476.273" gradientTransform="matrix(0.389364, -0.921086, -0.312943, -0.132293, 91.565613, 836.249487)" spreadMethod="reflect" xlink:href="#gradient-11"/>
    <linearGradient id="gradient-9-0" gradientUnits="userSpaceOnUse" x1="451.848" y1="265.983" x2="451.848" y2="288.101" gradientTransform="matrix(-0.027107, 0.999633, 0.525084, 0.014239, -81.922256, -182.423584)" xlink:href="#gradient-9"/>
    <linearGradient id="gradient-11-2" gradientUnits="userSpaceOnUse" x1="425.348" y1="326.591" x2="425.348" y2="480.88" gradientTransform="matrix(0.018621, 0.999827, 0.204078, -0.003803, 1.93277, -88.639343)" spreadMethod="reflect" xlink:href="#gradient-11"/>
    <linearGradient id="gradient-11-3" gradientUnits="userSpaceOnUse" x1="419.177" y1="333.758" x2="419.177" y2="478.394" spreadMethod="reflect" gradientTransform="matrix(0.16423, -0.986423, -0.120459, -0.020056, 74.33197, 776.515297)" xlink:href="#gradient-11"/>
    <radialGradient gradientUnits="userSpaceOnUse" cx="325.701" cy="242.804" r="59.32" id="gradient-12" gradientTransform="matrix(-0.899621, -0.898294, -1.617887, 1.620277, 823.316925, 174.882233)">
      <stop offset="0" style="stop-color: rgba(104, 112, 149, 1)"/>
      <stop offset="1" style="stop-color: rgb(12, 19, 38);"/>
    </radialGradient>
    <radialGradient gradientUnits="userSpaceOnUse" cx="381.2" cy="187.205" r="40.291" id="gradient-14" gradientTransform="matrix(1.084329, -2.064615, -2.571896, -1.350753, 125.769073, 1304.054108)">
      <stop offset="0" style="stop-color: rgb(160, 155, 187);"/>
      <stop offset="0.44" style="stop-color: rgb(71, 81, 117);"/>
      <stop offset="1" style="stop-color: rgb(45, 49, 63);"/>
    </radialGradient>
    <linearGradient gradientUnits="userSpaceOnUse" x1="362.487" y1="122.341" x2="362.487" y2="231.668" id="gradient-16" gradientTransform="matrix(0.470496, 0.882404, 0.643464, -0.343093, -139.981941, -59.881592)" spreadMethod="pad">
      <stop offset="0" style="stop-color: rgb(92, 69, 85);"/>
      <stop offset="1" style="stop-color: rgb(82, 96, 143);"/>
    </linearGradient>
    <linearGradient gradientUnits="userSpaceOnUse" x1="444.612" y1="297.53" x2="444.612" y2="350.579" id="gradient-18" gradientTransform="matrix(0.933643, 0.35821, -0.123165, 0.321011, 72.951513, 60.603495)" spreadMethod="pad">
      <stop offset="0" style="stop-color: rgb(125, 193, 228);"/>
      <stop offset="1" style="stop-color: rgb(85, 140, 192);"/>
    </linearGradient>
    <linearGradient id="gradient-19-0" gradientUnits="userSpaceOnUse" x1="310.547" y1="297.801" x2="310.547" y2="343.946" gradientTransform="matrix(0.347594, -0.937645, 0.298087, 0.110505, 103.610564, 576.651033)" xlink:href="#gradient-19"/>
    <radialGradient gradientUnits="userSpaceOnUse" cx="306.789" cy="344.642" r="5.719" id="gradient-20" gradientTransform="matrix(1.483251, 0.766821, 0.857204, -1.658079, -560.954773, 676.630792)">
      <stop offset="0" style="stop-color: rgb(89, 85, 96);"/>
      <stop offset="1" style=""/>
    </radialGradient>
    <linearGradient id="gradient-19-1" gradientUnits="userSpaceOnUse" x1="299.819" y1="339.524" x2="299.819" y2="343.104" gradientTransform="matrix(-0.299845, 0.953988, -1.24514, -0.391355, 813.679077, 188.196106)" xlink:href="#gradient-19"/>
    <radialGradient gradientUnits="userSpaceOnUse" cx="434.789" cy="325.035" r="7.934" id="gradient-21" gradientTransform="matrix(0.629742, -2.808623, -2.067778, -0.463634, 458.457626, 1711.426819)">
      <stop offset="0" style="stop-color: rgb(202, 173, 159);"/>
      <stop offset="1" style="stop-color: rgb(56, 51, 42);"/>
    </radialGradient>
    <linearGradient id="gradient-22-0" gradientUnits="userSpaceOnUse" x1="469.929" y1="310.519" x2="469.929" y2="341.945" gradientTransform="matrix(0.999919, 0.012792, 0.009358, -0.731573, -453.414551, 558.495636)" xlink:href="#gradient-22"/>
    <linearGradient gradientUnits="userSpaceOnUse" x1="337.297" y1="309.372" x2="337.297" y2="342.386" id="gradient-24" gradientTransform="matrix(-0.999733, -0.023013, -0.015542, 0.675216, 498.820282, 118.005249)">
      <stop offset="0" style="stop-color: rgb(56, 51, 42);"/>
      <stop offset="1" style="stop-color: rgb(202, 173, 159);"/>
    </linearGradient>
    <linearGradient id="gradient-22-1" gradientUnits="userSpaceOnUse" x1="192.134" y1="307.515" x2="192.134" y2="347.732" gradientTransform="matrix(0.999998, -0.001168, -0.00062, -0.532172, 246.039494, 500.680908)" xlink:href="#gradient-22"/>
    <radialGradient gradientUnits="userSpaceOnUse" cx="499.637" cy="-0.277" r="249.998" id="gradient-23" gradientTransform="matrix(-1.333238, 1.219676, -0.832861, -0.910403, 1165.540629, -609.925223)">
      <stop offset="0" style="stop-color: rgb(255, 215, 0);"/>
      <stop offset="0.281" style="stop-color: rgb(0, 170, 228);"/>
      <stop offset="1" style="stop-color: rgb(34, 139, 34);"/>
    </radialGradient>
  </defs>
  <rect y="0.012" width="499.996" height="499.975" style="fill: url(#gradient-23);" x="0.011"/>
  <path style="fill: url(#gradient-24);" d="M 191.945 319.56 C 191.528 317.363 190.816 315.045 190.06 312.891 C 175.9 313.614 161.322 312.42 146.968 309.276 C 144.639 309.699 141.75 310.08 139.399 310.368 C 138.397 312.399 137.232 314.069 135.155 315.291 C 135.12 321.982 135.398 328.721 135.477 335.411 C 134.91 337.767 134.039 340.156 133.174 342.386 C 139.217 342.162 144.707 340.837 149.332 338.602 C 150.176 336.249 150.194 333.682 149.386 330.9 C 153.76 333.476 154.592 337.104 152.599 341.853 C 156.259 340.006 160.447 339.691 164.55 340.071 C 170.48 340.62 176.818 341.311 182.834 340.886 C 179.079 332.591 183.691 323.806 191.945 319.56 Z" transform="matrix(-1, 0, 0, -1, 325.119003, 651.661987)"/>
  <path style="fill: url(#gradient-2);" d="M 186.899 260.713 C 176.933 239.935 168.427 230.423 149.79 233.688 C 147.72 235.517 145.945 238.69 144.132 243.206 C 145.678 267.473 142.948 289.938 136.169 309.845 C 154.778 290.641 169.708 273.168 186.899 260.713 Z" transform="matrix(-1, 0, 0, -1, 322.972, 542.524384)"/>
  <path style="fill: url(#gradient-0);" d="M 101.546 107.66 C 101.325 122.713 107.432 131.395 118.91 131.632 C 136.981 131.46 154.658 123.925 171.939 109.027 C 182.191 100.584 191.787 91.446 200.728 81.613 C 204.793 75.714 207.078 70.004 207.582 64.483 L 212.269 59.114 C 191.045 71.324 166.876 71.226 140.533 59.194 C 146.868 64.939 153.885 70.88 158.896 77.095 C 155.847 84.296 146.725 93.116 131.528 103.554 C 122.009 110.737 111.838 111.415 101.546 107.66 Z" transform="matrix(-1, 0, 0, -1, 313.809204, 190.746002)"/>
  <path style="fill: rgb(228, 223, 64);" d="M 154.955 142.884 C 160.125 136.386 162.238 128.564 160.278 120.333 C 156.596 104.275 157.833 91.94 163.988 83.327 C 163.448 91.244 164.644 98.316 167.577 104.541 C 165.144 115.527 169.878 125.571 181.78 134.673 C 194.833 144.656 208.819 156.158 219.117 167.812 C 216.93 176.115 212.105 180.426 203.924 185.952 C 199.958 188.631 191.272 196.556 185.63 198.291 C 188.769 189.018 191.417 178.074 183.053 173.107 C 177.613 169.877 171.332 169.516 164.133 173.344 C 165.199 169.438 167.338 166.415 170.55 164.276 C 173.339 157.981 173.906 152.621 172.253 148.196 C 166.653 146.353 160.548 144.888 154.955 142.884 Z" transform="matrix(-1, 0, 0, -1, 374.072006, 281.618004)"/>
  <ellipse style="fill: rgb(163, 219, 28);" cx="-200.58" cy="95.41" rx="19.01" ry="15.663" transform="matrix(-1, 0, 0, 1, 0, 0)"/>
  <path style="fill: rgb(252, 245, 50);" d="M 369.811 188.929 L 368.752 181.669 C 321.39 160.625 283.487 137.931 255.044 113.587 C 224.729 100.12 213.047 85.901 220.075 71.278 C 203.2 84.581 208.952 112.981 240.113 140.435 C 274.245 170.507 317.41 186.063 369.811 188.929 Z" transform="matrix(-1, 0, 0, -1, 580.586594, 260.207001)"/>
  <path style="" d="M 202.141 117.16 C 196.566 129.687 209.106 143.43 239.44 157.431 C 277.099 174.247 317.339 183.827 360.162 186.171 C 362.995 179.642 363.605 174.269 361.994 170.052 C 337.572 161.588 310.7 155.294 281.377 151.17 C 237.664 143.521 211.145 131.865 202.141 117.16 Z" transform="matrix(-1, 0, 0, -1, 563.723328, 303.331009)"/>
  <path style="fill: rgb(26, 36, 48);" d="M 317.202 146.523 C 314.956 126.884 317.908 113.631 325.383 107.408 C 280.219 104.156 239.366 94.604 203.577 78.069 C 235.96 105.871 273.861 128.676 317.202 146.523 Z" transform="matrix(-1, 0, 0, -1, 528.959991, 224.591995)"/>
  <path style="fill: rgb(225, 62, 53);" d="M 128.946 281.853 L 141.915 303.588 L 133.952 307.547 C 129.199 300.106 127.617 290.122 128.946 281.853 Z" transform="matrix(-0.999986, 0.005296, -0.005296, -0.999986, 271.773012, 588.583349)"/>
  <path style="fill: url(#gradient-5-0);" d="M 59.07 297.266 C 60.573 291.279 59.322 285.794 54.058 281.973 C 54.195 282.753 53.018 286.245 52.866 286.181 C 55.415 289.334 57.395 293.296 59.07 297.266 Z" transform="matrix(-1, 0, 0, -1, 112.67675, 579.238983)"/>
  <path style="fill: rgb(51, 51, 51);" d="M 49.515 353.245 C 50.49 352.694 51.143 352.544 52.287 353.022 C 52.31 351.711 51.426 350.145 50.809 349.997 C 49.979 349.957 49.551 351.008 49.515 353.245 Z" transform="matrix(-1, 0, 0, -1, 101.802437, 703.240906)"/>
  <path style="fill: url(#gradient-21);" d="M 56.872 317.047 C 55.923 322.22 54.853 327.793 53.605 334.323 C 55.938 340.654 55.695 344.393 59.388 346.708 C 64.043 348.398 68.095 338.158 69.884 316.555 C 68.62 315.553 67.959 314.819 67.294 313.928 C 66.071 314.361 58.463 316.742 56.872 317.047 Z" transform="matrix(-1, 0, 0, -1, 123.489002, 660.815765)"/>
  <path style="fill: url(#gradient-22-0);" d="M 49.891 342.465 L 49.888 310.143 C 35.083 311.57 12.157 312.988 2.373 311.034 C 3.026 322.149 2.12 333.122 0.003 342.957 C 6.704 341.438 30.534 341.535 49.891 342.465 Z" transform="matrix(-1, 0, 0, -1, 49.894, 653.100006)"/>
  <path style="fill: url(#gradient-22-1);" d="M 276.47 318.648 C 290.302 318.997 305.373 317.519 320.482 314.212 C 345.151 317.658 371.334 317.117 399.03 312.589 C 412.311 309.288 420.504 307.614 423.611 307.567 C 428.411 309.028 431.398 309.498 432.572 308.978 C 435.503 307.554 438.524 307.081 441.636 307.558 C 446.008 312.161 454.029 314.58 465.698 314.815 L 492.502 315.217 C 494.422 315.04 496.39 314.834 498.047 315.476 C 500.594 319.137 500.619 325.926 498.288 335.361 C 497.384 338.015 496.113 340.507 494.688 342.837 C 493.39 343.186 491.778 343.289 489.877 343.004 C 474.521 342.422 460.033 341.878 446.387 341.514 C 444.259 341.949 442.294 342.834 440.491 344.169 C 436.75 344.508 433.71 343.604 431.373 341.456 C 413.624 341.631 396.086 342.105 378.76 342.877 C 360.267 343.958 341.775 345.366 323.282 347.101 C 307.876 347.774 300.478 348.071 276.548 347.157 C 262.218 347.857 250.179 343.58 237.03 344.588 C 225.974 345.435 203.159 348.498 196.328 347.021 L 196.333 317.448 C 206.043 316.503 215.664 316.653 225.216 317.897 C 235.651 319.256 244.922 319.336 253.029 318.138 C 256.186 317.057 258.838 315.571 260.987 313.679 C 266.644 313.922 271.846 315.422 276.47 318.648" transform="matrix(-1, 0, 0, -1, 696.326111, 655.109741)"/>
  <g style="" transform="matrix(-1, 0, 0, 1, 500.000977, 0)">
    <path style="fill: url(#gradient-18);" d="M 435.961 314.305 C 438.888 308.76 440.585 303.073 441.421 297.442 C 445.633 301.075 449.071 305.505 450.432 310.554 C 452.395 320.69 453.207 331.156 452.673 341.977 C 452.324 349.045 451.209 351.754 447.753 350.186 C 446.524 348.954 446.386 347.079 446.261 344.201 C 444.426 323.755 440.68 313.796 435.961 314.305 Z"/>
    <path style="fill: none; stroke: rgb(32, 47, 79); stroke-linecap: round; stroke-width: 0.5px;" d="M 439.604 315.939 C 440.335 310.562 442.264 306.387 445.704 302.197"/>
    <path style="stroke-linecap: round; stroke-width: 0.5px; fill: none; stroke: rgb(32, 47, 79);" d="M 451.953 346.698 C 450.276 347.939 448.537 347.983 446.681 346.932"/>
    <path style="fill: none; stroke-width: 0.5px; stroke: rgb(32, 47, 79); stroke-linecap: round;" d="M 452.473 341.725 C 450.44 343.148 448.326 343.116 446.271 341.897"/>
    <path style="stroke-linecap: round; stroke-width: 0.5px; fill: none; stroke: rgb(32, 47, 79);" d="M 452.568 338.179 C 450.415 338.882 448.135 339.072 445.928 338.87"/>
    <path style="stroke-linecap: round; stroke-width: 0.5px; fill: none; stroke: rgb(32, 47, 79);" d="M 452.558 332.765 C 450.359 333.395 447.736 333.513 445.158 333.116"/>
    <path style="stroke-linecap: round; fill: none; stroke-width: 0.5px; stroke: rgb(32, 47, 79);" d="M 452.529 331.462 C 450.108 331.388 447.394 331.463 444.919 331.63"/>
    <path style="stroke-linecap: round; stroke-width: 0.5px; fill: none; stroke: rgb(32, 47, 79);" d="M 452.354 327.62 C 450.219 326.523 447.294 327.159 444.45 329.14"/>
    <path style="stroke-linecap: round; stroke-width: 0.5px; fill: none; stroke: rgb(32, 47, 79);" d="M 451.473 318.451 C 448.529 319.272 445.015 319.805 441.801 319.809"/>
    <path style="stroke-linecap: round; stroke-width: 0.5px; fill: none; stroke: rgb(32, 47, 79);" d="M 451.066 315.593 C 447.764 316.163 443.895 316.833 440.496 317.16"/>
  </g>
  <path style="fill: rgb(225, 62, 53);" d="M 58.531 314.233 C 62.114 315.136 64.831 317.022 66.818 319.253 C 69.656 313.76 67.543 304.004 59.031 293.055 C 60.806 302.62 59.914 307.42 58.531 314.233 Z" transform="matrix(-1, 0, 0, -1, 126.53698, 612.307983)"/>
  <path style="fill: url(#gradient-11-1);" d="M 138.795 476.273 C 141.118 475.612 144.02 475.382 147.281 475.45 C 141.304 439.158 135.297 405.02 135.591 373.069 C 135.741 356.79 138.309 345.706 144.602 339.066 C 144.833 337.97 145.147 336.997 145.543 336.146 C 142.524 330.973 138.988 330.817 134.933 335.679 C 129.052 341.922 125.855 353.741 125.34 371.136 C 125.227 402.192 129.712 437.238 138.795 476.273 Z" transform="matrix(-1, 0, 0, -1, 272.508919, 808.418762)"/>
  <path style="fill: url(#gradient-5-1);" d="M 105.379 474.004 C 106.321 472.925 107.52 472.114 108.903 471.547 C 107.143 468.034 105.196 466.921 103.416 468.306 C 104.184 469.885 104.932 471.811 105.379 474.004 Z" transform="matrix(-1, 0, 0, -1, 212.319, 941.731964)"/>
  <path style="fill: url(#gradient-11-2);" d="M 77.527 473.712 C 78.628 475.504 79.485 477.889 80.017 480.981 C 88.364 438.611 92.388 402.908 91.806 374.081 C 90.155 348.948 82.727 333.118 69.521 326.593 C 64.94 326.506 60.752 327.444 57.932 329.231 C 63.072 329.661 69.139 332.847 75.16 338.963 C 84.627 355.116 88.889 376.019 86.985 401.599 C 85.194 425.65 81.897 449.816 77.527 473.712 Z" transform="matrix(-1, 0, 0, -1, 149.794281, 807.467438)"/>
  <path style="fill: url(#gradient-20);" d="M 192.57 349.196 C 192.277 344.038 191.108 341.401 188.691 341.443 C 188.025 339.74 186.719 338.813 185.558 338.016 C 189.874 335.58 193.417 335.476 195.306 338.075 C 198.327 342.686 197.29 346.445 192.57 349.196 Z" transform="matrix(-1, 0, 0, -1, 382.570602, 685.353363)"/>
  <g style="" transform="matrix(-1, 0, 0, 1, 500.000977, 0)">
    <path style="fill: url(#gradient-19-1);" d="M 301.506 339.512 C 301.965 340.693 302.621 341.637 303.203 342.392 C 301.221 343.805 298.419 343.051 296.555 339.917 C 298.172 339.972 299.909 340.016 301.506 339.512 Z"/>
    <path style="stroke-width: 0.5px; stroke-linecap: round; fill: none; stroke: rgb(32, 47, 79);" d="M 301.96 340.455 C 300.537 340.142 299.374 340.558 298.443 341.405" transform="matrix(0.894567, -0.446934, 0.446934, 0.894567, -120.698901, 170.110284)"/>
    <path style="fill: url(#gradient-19-0);" d="M 323.126 312.579 C 322.954 309.773 324.583 308.789 327.785 309.938 C 325.428 307.38 322.809 303.552 321.191 299.379 C 316.494 298.755 312.861 298.537 307.823 299.186 C 306.594 298.58 303.609 297.954 301.992 297.801 C 295.828 298.734 292.985 303.516 293.464 312.148 C 295.333 311.874 296.941 311.917 298.288 312.277 C 299.833 314.778 301.135 317.667 302.193 320.942 C 303.116 325.033 303.538 329.199 303.457 333.44 C 303.206 335.504 302.552 337.52 301.494 339.488 C 302.42 342.088 303.942 343.568 306.059 343.927 C 308.569 344.189 309.945 341.677 310.187 336.392 C 310.25 329.772 310.319 323.152 310.395 316.532 C 310.005 314.375 309.228 311.976 308.065 309.335 C 313.22 309.572 318.241 310.654 323.126 312.579 Z"/>
    <path style="fill: none; stroke: rgb(32, 47, 79); stroke-linecap: round; stroke-width: 0.5px;" d="M 297.482 299.868 C 303.379 300.277 306.907 305.081 308.287 309.198"/>
    <path style="fill: none; stroke: rgb(32, 47, 79); stroke-linecap: round; stroke-width: 0.5px;" d="M 308.211 310.305 C 303.53 308.547 299.465 308.782 298.565 312.272"/>
    <path style="fill: none; stroke-linecap: round; stroke-width: 0.5px; stroke: rgb(32, 47, 79);" d="M 310.147 316.93 C 306.518 316.706 303.965 317.329 301.752 318.898"/>
    <path style="fill: none; stroke: rgb(32, 47, 79); stroke-linecap: round; stroke-width: 0.5px;" d="M 310.106 320.272 C 307.649 319.517 305.046 319.72 302.41 320.923"/>
    <path style="fill: none; stroke: rgb(32, 47, 79); stroke-width: 0.5px; stroke-linecap: round;" d="M 310.046 327.169 C 307.968 326.676 305.82 326.735 303.429 327.338"/>
    <path style="fill: none; stroke: rgb(32, 47, 79); stroke-width: 0.5px; stroke-linecap: round;" d="M 309.992 331.536 C 307.991 330.683 305.733 330.62 303.684 331.49"/>
    <path style="fill: none; stroke: rgb(32, 47, 79); stroke-width: 0.5px; stroke-linecap: round;" d="M 309.855 337.736 C 307.683 337.108 305.231 336.891 302.812 337.114"/>
    <path style="fill: none; stroke: rgb(32, 47, 79); stroke-linecap: round; stroke-width: 0.5px;" d="M 309.322 340.73 C 307.028 339.931 304.557 339.731 302.079 340.141"/>
  </g>
  <path style="fill: url(#gradient-11-3);" d="M 84.394 476.853 C 86.298 476.854 88.099 477.256 89.766 478.394 C 97.533 432.903 100.728 402.28 99.477 386.841 C 98.032 367.748 93.776 353.181 86.933 343.058 C 80.895 337.265 75.104 334.127 69.559 333.642 C 65.368 333.688 62.769 336.118 62.283 340.378 C 67.908 336.633 74.7 339.355 82.137 349.097 C 81.945 353.622 83.103 358.253 85.074 363.089 C 86.422 366.396 86.239 369.925 84.993 373.75 C 91.003 408.927 90.891 443.496 84.394 476.853 Z" transform="matrix(-1, 0, 0, -1, 161.909847, 812.036011)"/>
  <g style="" transform="matrix(-1, 0, 0, 1, 500.000977, 0)">
    <path style="fill: url(#gradient-11-0);" d="M 374.691 333.024 C 379.838 332.921 384.416 332.476 389.244 331.847 C 390.711 331.948 392.137 332.321 393.306 333.198 C 382.153 375.993 380.903 411.516 389.762 439.571 C 388.751 448.949 389.053 457.21 391.126 464.452 C 391.565 465.821 392.224 467.062 393.221 468.121 C 390.986 475.552 387.772 479.371 383.711 479.544 C 377.408 479.195 373.522 475.796 372.054 469.349 C 356.405 457.144 363.533 391.618 374.691 333.024 Z"/>
    <path style="fill: none; stroke: rgb(164, 183, 210);" d="M 388.583 426.324 C 387.2 395.332 387.693 363.846 390.062 331.866" transform="matrix(-1, 0, 0, -1, 777.880341, 758.190002)"/>
    <path style="fill: none; stroke: rgb(100, 107, 125); stroke-linecap: round;" d="M 389.05 428.246 C 387.458 448.139 382.702 466.839 377.376 477.678" transform="matrix(0.997923, -0.064417, 0.064417, 0.997923, -28.382553, 25.626209)"/>
  </g>
  <g style="" transform="matrix(-1, 0, 0, 1, 500.000977, 0)">
    <path style="stroke-linecap: round; fill: url(#gradient-10);" d="M 393.174 333.197 C 398.553 334.957 402.797 334.286 406.176 331.024 C 408.849 332.393 411.63 333.264 414.284 333.496 C 417.153 334.792 419.863 335.174 422.56 335.183 C 429.376 370.482 429.449 400.841 423.149 438.2 C 424.756 442.755 424.686 445.492 422.334 451.289 C 420.804 455.149 420.138 458.979 420.337 462.78 C 412.691 473.011 406.141 475.873 399.568 471.297 C 394.355 469.902 391.782 467.493 390.994 464.318 C 389.001 457.121 388.585 448.892 389.748 439.629 C 380.732 410.818 382.006 373.879 393.174 333.197 Z"/>
    <path style="fill: none; stroke: rgb(164, 183, 210); stroke-linecap: round;" d="M 406.218 331.552 C 408.815 376.661 408.505 424.143 405.151 472.896"/>
  </g>
  <path style="fill: rgb(122, 112, 120);" d="M 83.403 301.968 C 88.555 301.805 93.818 302.28 98.594 302.941 C 98.766 298.275 97.53 294.5 95.896 293.95 C 93.808 294.011 89.308 296.915 83.403 301.968 Z" transform="matrix(-1, 0, 0, -1, 182.009041, 596.763)"/>
  <g transform="matrix(-1, 0, 0, 1, 500.000977, 0)">
    <path style="fill: url(#gradient-8); stroke-linecap: round;" d="M 425.281 279.82 C 425.182 287.232 427.391 293.516 431.869 298.123 C 438.117 296.792 441.941 292.736 446.383 282.049 C 442.344 283.662 439.123 281.593 435.382 275.552 C 432.205 277.148 428.854 278.384 425.281 279.82 Z"/>
    <path style="stroke-linecap: round; fill: none; stroke: rgb(78, 73, 104);" d="M 438.689 278.473 C 437.076 284.002 433.436 292.65 430.742 297.147" transform="matrix(0.98971, -0.143085, 0.143085, 0.98971, -36.810706, 65.128194)"/>
  </g>
  <path style="fill: url(#gradient-1);" d="M 81.743 329.391 C 74.551 320.259 69.783 311.598 67.496 303.82 C 64.467 295.933 67.441 288.932 76.418 282.817 C 82.998 281.651 90.703 281.786 99.532 283.221 C 107.461 279.889 113.062 280.133 116.333 283.954 C 132.985 277.309 141.027 278.803 140.458 288.438 C 144.504 298.152 144.724 307.626 142.204 316.985 C 138.081 320.596 135.94 327.078 135.558 335.236 C 134.279 329.719 131.172 325.125 126.616 321.56 C 126.846 316.525 125.9 313.17 123.667 312.379 C 119.35 314.391 115.329 317.027 111.602 320.286 C 105.038 322.096 98.87 324.83 93.097 328.487 C 89.274 327.94 85.508 328.378 81.743 329.391 Z" transform="matrix(-1, 0, 0, -1, 210.198616, 615.072205)"/>
  <path style="fill: url(#gradient-9-0);" d="M 51.992 288.815 C 53.102 277.738 51.942 272.636 50.473 265.536 C 48.66 267.801 46.2 270.899 43.951 273.135 C 48.498 278.129 51.371 283.669 51.992 288.815 Z" transform="matrix(-1, 0, 0, -1, 96.384571, 554.351013)"/>
  <path style="fill: url(#gradient-12);" d="M 145.892 286.549 C 146.411 270.757 147.862 261.269 152.844 258.948 C 152.551 249.541 154.422 242.621 158.456 238.19 C 161.885 228.022 165.712 219.992 171.286 214.04 C 177.046 209.365 184.78 207.637 193.7 208.188 C 192.155 201.841 188.902 196.883 184.729 193.981 C 179.827 193.243 174.802 192.795 169.899 193.046 C 163.251 194.664 157.003 197.636 151.116 201.38 C 146.583 200.789 142.819 201.037 139.62 202.296 C 137.069 203.532 134.612 204.745 132.055 206.142 C 126.681 208.206 97.519 236.71 81.552 254.972 C 79.657 257.961 77.435 260.855 74.666 263.276 C 77.678 261.765 79.859 263.152 81.373 267.054 C 84.468 267.196 86.572 267.885 87.353 270.739 C 89.318 269.19 90.509 269.926 90.783 272.46 C 93.167 271.627 96.356 272.201 99.968 274.574 C 98.252 278.805 99.365 283.253 103.61 288.096 C 107.665 285.043 111.75 282.866 115.783 281.649 C 121.74 283.379 128.358 287.698 134.862 294.762 C 139.38 289.843 143.057 287.106 145.892 286.549 Z" transform="matrix(-1, 0, 0, -1, 268.276993, 487.917358)"/>
  <path style="fill: url(#gradient-14);" d="M 44.512 280.086 C 50.679 275.823 57.015 274.684 63.519 276.671 C 72.367 270.724 78.118 269.989 80.772 274.465 C 87.795 269.578 95.887 266.85 104.712 266.282 C 110.591 258.057 113.962 247.884 117.095 236.822 C 121.436 223.188 124.881 205.88 125.02 192.323 C 122.056 198.259 121.342 202.82 117.856 206.647 C 106.265 204.128 102.027 195.107 104.88 179.964 C 101.976 178.155 98.173 176.772 94.386 175.506 C 86.18 175.051 78.178 176.915 73.251 180.997 C 67.668 185.913 63.126 194.151 59.626 205.71 C 55.732 209.427 53.863 216.401 54.02 226.63 C 49.195 227.888 46.888 237.046 47.098 254.104 C 45.128 260.829 44.266 269.49 44.512 280.086 Z" transform="matrix(-1, 0, 0, -1, 169.491035, 455.524948)"/>
  <path style="fill: url(#gradient-16);" d="M 210.297 164.919 C 202.722 164.733 194.707 167.564 186.438 173.094 C 183.279 168.561 177.584 169.169 169.345 175.13 C 161.977 173.446 155.632 174.672 150.319 178.595 C 149.668 170.224 150.594 161.249 152.758 152.52 C 148.337 154.291 144.529 157.417 141.67 161.05 C 135.237 153.774 128.879 149.401 122.598 147.931 C 118.442 149.009 114.341 151.076 110.426 154.339 C 106.491 150 105.382 145.578 106.797 140.856 C 103.78 138.667 100.328 137.363 97.668 138.617 C 97.41 135.89 96.473 135.324 94.129 136.952 C 93.766 133.887 90.894 132.858 88.397 132.945 C 87.216 129.244 85.323 127.564 81.423 129.582 C 82.51 126.927 83.356 124.431 83.117 122.341 C 76.919 126.064 74.028 131.226 71.777 140.343 C 67.51 144.566 65.137 149.483 65.009 156.017 C 64.25 163.777 65.544 171.097 68.541 177.052 C 66.286 185.296 69.141 193.799 77.104 202.562 C 84.801 208.963 93.237 215.78 102.32 223.02 C 128.823 234.955 152.577 234.803 173.675 222.556 C 177.774 218.267 181.929 214.192 186.139 210.329 C 199.088 196.226 204.825 185.617 203.35 178.502 C 205.513 174.025 207.89 169.392 210.297 164.919 Z" transform="matrix(-1, 0, 0, -1, 275.093277, 354.19873)"/>
  <path style="fill: rgb(51, 51, 51);" d="M 171.238 317.775 C 171.437 320.656 173.024 321.506 176.001 320.327 C 178.118 315.836 176.946 312.199 172.486 309.416 C 173.467 313.596 173.051 316.382 171.238 317.775 Z" transform="matrix(-1, 0, 0, -1, 348.261017, 630.256744)"/>
  <path style="fill: rgb(51, 51, 51);" d="M 193.896 347.813 C 196.017 345.016 198.367 344.086 200.528 345.393 C 201.279 344.544 202.256 343.941 203.483 343.814 C 202.438 340.771 200.694 339.444 197.843 340.095 C 195.216 340.695 193.633 343.555 193.896 347.813 Z" transform="matrix(-1, 0, 0, -1, 397.350601, 687.746094)"/>
  <path style="fill: rgb(239, 230, 230);" d="M 264.871 314.313 C 262.835 311.39 259.98 310.025 255.916 311.623 C 257.966 313.631 261.325 314.752 264.871 314.313 Z" transform="matrix(-1, 0, 0, -1, 520.787003, 625.353668)"/>
  <g style="" transform="matrix(-1, 0, 0, 1, 500.000977, 0)">
    <path style="fill: url(#gradient-6); stroke-linecap: round;" d="M 448.366 248.836 C 436.751 250.795 430.789 263.39 435.368 275.479 C 439.029 282.083 443.295 283.866 446.804 281.865 C 457.424 273.255 458.997 259.722 448.366 248.836 Z"/>
    <path style="fill: none; stroke: rgb(152, 167, 199); stroke-linecap: round;" d="M 448.205 249.385 C 448.433 261.322 446.299 271.686 442.572 281.929"/>
  </g>
  <circle style="" cx="-196.68" cy="97.311" r="8.749" transform="matrix(-1, 0, 0, 1, 0, 0)"/>
  <ellipse style="fill: rgb(216, 216, 216);" cx="305.097" cy="94.001" rx="3.132" ry="1.791" transform="matrix(-0.901669, 0.432426, 0.432426, 0.901669, 429.204552, -123.620828)"/>
  <g transform="matrix(1.113415, 0, 0, 1.113415, 150.395203, -34.346844)" style="">
    <rect x="112.183" y="214.811" width="156.537" height="77.866" style="fill: rgb(193, 154, 107); stroke: rgb(150, 75, 0);" rx="14.556" ry="14.556"/>
    <path d="M 59.123 237.881 Q 59.104 238.691 58.786 239.331 Q 58.469 239.971 57.917 240.459 Q 57.366 240.947 56.618 241.294 Q 55.871 241.641 54.997 241.856 Q 54.123 242.07 53.161 242.173 Q 52.2 242.275 51.223 242.275 Q 50.461 242.275 49.7 242.217 Q 48.938 242.158 48.22 242.056 Q 47.502 241.953 46.838 241.802 Q 46.174 241.65 45.608 241.455 L 45.842 241.016 Q 45.51 241.113 45.168 241.226 Q 44.827 241.338 44.485 241.455 Q 45.071 239.697 45.495 237.935 Q 45.92 236.172 46.145 234.356 Q 45.442 233.906 44.885 233.428 Q 44.328 232.949 43.967 232.481 Q 44.504 232.647 45.085 232.788 Q 45.666 232.93 46.282 233.037 Q 46.33 232.432 46.355 231.846 Q 46.379 231.26 46.379 230.664 L 46.379 230.342 Q 45.784 230.537 45.198 230.762 Q 44.612 230.986 44.065 231.26 Q 44.211 230.713 44.289 230.195 Q 44.368 229.678 44.368 229.18 Q 44.368 228.33 44.153 227.549 Q 43.938 226.768 43.547 226.035 Q 44.68 225.859 45.608 225.747 Q 46.535 225.635 47.331 225.566 Q 48.127 225.498 48.845 225.469 Q 49.563 225.44 50.266 225.44 Q 50.862 225.44 51.623 225.469 Q 52.385 225.498 53.201 225.596 Q 54.016 225.693 54.831 225.879 Q 55.647 226.065 56.369 226.387 Q 57.092 226.709 57.668 227.183 Q 58.244 227.656 58.567 228.32 Q 58.772 228.203 58.992 228.047 Q 59.211 227.891 59.426 227.725 Q 59.475 227.988 59.49 228.252 Q 59.504 228.516 59.504 228.76 Q 59.504 229.522 59.324 230.254 Q 59.143 230.986 58.816 231.66 Q 58.489 232.334 58.03 232.944 Q 57.571 233.555 57.004 234.063 Q 57.541 234.375 57.903 234.771 Q 58.264 235.166 58.503 235.586 Q 58.743 236.006 58.869 236.406 Q 58.996 236.807 59.05 237.129 Q 59.104 237.451 59.114 237.656 Q 59.123 237.861 59.123 237.881 Z M 51.868 236.162 Q 51.145 236.162 50.481 236.035 Q 50.481 236.553 50.491 237.051 Q 50.5 237.549 50.52 238.057 Q 51.018 238.213 51.467 238.267 Q 51.916 238.32 52.327 238.32 Q 52.834 238.32 53.396 238.198 Q 53.957 238.076 54.431 237.798 Q 54.905 237.52 55.212 237.07 Q 55.52 236.621 55.52 235.957 Q 55.52 235.791 55.491 235.606 Q 55.461 235.42 55.403 235.225 Q 54.573 235.674 53.679 235.918 Q 52.785 236.162 51.868 236.162 Z M 50.559 229.385 Q 50.53 230.352 50.515 231.304 Q 50.5 232.256 50.481 233.223 Q 51.184 233.115 51.745 232.876 Q 52.307 232.637 52.727 232.227 Q 53.147 231.816 53.406 231.221 Q 53.664 230.625 53.762 229.805 L 54.641 229.658 Q 54.221 229.414 53.703 229.297 Q 53.186 229.18 52.58 229.18 Q 52.327 229.18 52.136 229.19 Q 51.946 229.199 51.736 229.224 Q 51.526 229.248 51.257 229.287 Q 50.989 229.326 50.588 229.385 Z" transform="matrix(1, 0, 0, 1, 89.330429, 6.134097)" style="fill: rgb(255, 0, 0); stroke: rgb(51, 51, 51); stroke-width: 0.4px; white-space: pre;"/>
    <path d="M 66.36 225.859 Q 66.047 227.9 65.886 229.985 Q 65.725 232.07 65.725 234.199 Q 65.725 235.801 65.818 237.368 Q 65.91 238.936 66.106 240.479 Q 65.695 240.449 65.305 240.425 Q 64.914 240.4 64.543 240.4 Q 63.635 240.4 62.736 240.503 Q 61.838 240.606 60.842 240.82 Q 61.154 239.092 61.34 237.31 Q 61.526 235.527 61.526 233.682 Q 61.526 232.1 61.379 230.537 Q 61.233 228.975 60.92 227.422 Q 61.613 227.334 62.273 227.197 Q 62.932 227.061 63.596 226.865 Q 64.26 226.67 64.943 226.421 Q 65.627 226.172 66.36 225.859 Z" transform="matrix(1, 0, 0, 1, 89.330429, 6.134097)" style="fill: rgb(255, 127, 0); stroke: rgb(51, 51, 51); stroke-width: 0.4px; white-space: pre;"/>
    <path d="M 84.563 239.775 Q 83.011 239.902 81.551 240.342 Q 80.091 240.781 78.685 241.543 Q 78.577 240.303 78.274 239.126 Q 77.972 237.949 77.483 236.816 Q 76.517 237.1 75.491 237.1 Q 74.983 237.1 74.505 237.041 Q 74.524 237.988 74.554 238.931 Q 74.583 239.873 74.632 240.82 Q 74.358 240.791 74.075 240.767 Q 73.792 240.742 73.489 240.742 Q 72.366 240.742 71.121 241.001 Q 69.876 241.26 68.509 241.738 Q 69.056 240.127 69.451 238.506 Q 69.847 236.885 70.091 235.225 Q 69.319 234.697 68.787 234.17 Q 68.255 233.643 67.991 233.301 Q 68.519 233.467 69.09 233.604 Q 69.661 233.74 70.247 233.858 Q 70.325 233.125 70.364 232.402 Q 70.403 231.68 70.403 230.938 L 70.403 230.361 Q 69.808 230.557 69.222 230.781 Q 68.636 231.006 68.089 231.279 Q 68.235 230.733 68.313 230.215 Q 68.392 229.697 68.392 229.199 Q 68.392 228.35 68.177 227.568 Q 67.962 226.787 67.571 226.065 Q 69.847 225.713 71.658 225.586 Q 73.47 225.459 74.886 225.459 Q 75.55 225.459 76.395 225.493 Q 77.239 225.527 78.133 225.65 Q 79.026 225.772 79.905 226.006 Q 80.784 226.24 81.517 226.655 Q 82.249 227.07 82.771 227.681 Q 83.294 228.291 83.47 229.16 L 83.47 229.199 Q 83.724 229.053 83.963 228.892 Q 84.202 228.731 84.446 228.535 Q 84.31 229.424 84.007 230.303 Q 83.704 231.182 83.25 232.002 Q 82.796 232.822 82.205 233.565 Q 81.614 234.307 80.911 234.922 Q 82.405 237.559 84.563 239.775 Z M 77.21 229.199 Q 76.692 229.199 76.058 229.248 Q 75.423 229.297 74.612 229.404 Q 74.563 230.576 74.534 231.738 Q 74.505 232.9 74.505 234.063 Q 75.267 233.965 75.931 233.731 Q 76.595 233.496 77.107 233.086 Q 77.62 232.676 77.957 232.075 Q 78.294 231.475 78.392 230.645 Q 78.812 230.566 79.227 230.498 Q 79.642 230.43 80.071 230.342 L 80.071 230.322 Q 79.847 230.049 79.603 229.839 Q 79.358 229.629 79.036 229.487 Q 78.714 229.346 78.274 229.273 Q 77.835 229.199 77.21 229.199 Z" transform="matrix(1, 0, 0, 1, 89.330429, 6.134097)" style="fill: rgb(255, 255, 0); stroke: rgb(51, 51, 51); stroke-width: 0.4px; white-space: pre;"/>
    <path d="M 101.41 232.344 Q 101.547 233.516 101.298 234.624 Q 101.049 235.733 100.488 236.719 Q 99.926 237.705 99.091 238.525 Q 98.256 239.346 97.236 239.941 Q 96.215 240.537 95.048 240.869 Q 93.881 241.201 92.651 241.201 Q 91.84 241.201 90.986 241.001 Q 90.131 240.801 89.33 240.264 Q 88.451 240.371 87.519 240.596 Q 86.586 240.82 85.59 241.182 Q 86.469 238.555 86.972 235.903 Q 87.475 233.252 87.494 230.537 Q 87.153 230.693 86.801 230.894 Q 86.449 231.094 86.108 231.338 Q 86.147 231.084 86.161 230.845 Q 86.176 230.606 86.176 230.361 Q 86.176 229.17 85.829 228.11 Q 85.483 227.051 84.809 226.104 Q 85.17 225.986 85.668 225.889 Q 86.166 225.791 86.728 225.713 Q 87.289 225.635 87.88 225.576 Q 88.471 225.518 89.028 225.479 Q 89.584 225.44 90.073 225.42 Q 90.561 225.4 90.912 225.4 Q 92.358 225.4 93.637 225.64 Q 94.916 225.879 95.99 226.314 Q 97.065 226.748 97.909 227.358 Q 98.754 227.969 99.34 228.706 Q 99.926 229.443 100.239 230.293 Q 100.551 231.143 100.551 232.061 Q 100.551 232.207 100.551 232.358 Q 100.551 232.51 100.532 232.656 Q 100.776 232.578 100.99 232.505 Q 101.205 232.432 101.41 232.344 Z M 96.948 233.145 Q 96.762 232.529 96.415 232.051 Q 96.069 231.572 95.624 231.211 Q 95.18 230.85 94.667 230.606 Q 94.155 230.361 93.632 230.195 Q 93.11 230.029 92.602 229.946 Q 92.094 229.863 91.655 229.824 Q 91.596 232.217 91.596 234.58 Q 91.596 236.748 91.655 238.897 Q 92.612 238.613 93.447 238.115 Q 94.282 237.617 94.872 236.9 Q 95.463 236.182 95.756 235.244 Q 96.049 234.307 95.932 233.164 Q 96.157 233.164 96.41 233.164 Q 96.664 233.164 96.948 233.145 Z" transform="matrix(1, 0, 0, 1, 89.330429, 6.134097)" style="fill: rgb(0, 255, 0); stroke: rgb(51, 51, 51); stroke-width: 0.4px; white-space: pre;"/>
    <path d="M 117.709 233.74 Q 117.739 233.955 117.744 234.16 Q 117.749 234.365 117.749 234.561 Q 117.749 235.586 117.431 236.484 Q 117.114 237.383 116.557 238.135 Q 116 238.887 115.244 239.483 Q 114.487 240.078 113.598 240.488 Q 112.709 240.899 111.738 241.118 Q 110.766 241.338 109.79 241.338 Q 108.872 241.338 108.022 241.26 Q 107.172 241.182 106.411 241.182 Q 105.825 241.182 105.307 241.265 Q 104.79 241.348 104.35 241.602 Q 103.989 240.264 103.583 239.175 Q 103.178 238.086 102.836 237.315 Q 102.436 236.416 102.036 235.703 Q 103.198 236.309 104.365 236.66 Q 105.532 237.012 106.586 237.202 Q 107.641 237.393 108.51 237.446 Q 109.379 237.5 109.956 237.5 Q 110.6 237.5 111.254 237.422 Q 111.909 237.344 112.573 237.178 Q 112.407 236.953 112.231 236.777 Q 112.055 236.602 111.909 236.494 Q 111.733 236.367 111.567 236.279 Q 111.284 236.143 110.8 236.011 Q 110.317 235.879 109.726 235.723 Q 109.135 235.566 108.466 235.381 Q 107.797 235.195 107.138 234.951 Q 106.479 234.707 105.878 234.395 Q 105.278 234.082 104.809 233.682 Q 104.438 233.359 104.194 232.983 Q 103.95 232.608 103.808 232.212 Q 103.666 231.816 103.603 231.421 Q 103.54 231.025 103.53 230.664 Q 103.188 230.801 102.915 230.928 Q 102.641 231.055 102.446 231.143 L 102.055 231.338 Q 102.407 230.283 103.037 229.473 Q 103.666 228.662 104.453 228.066 Q 105.239 227.471 106.132 227.061 Q 107.026 226.65 107.905 226.387 Q 109.956 225.772 112.348 225.684 Q 113.09 225.684 113.93 225.625 Q 114.653 225.576 115.581 225.474 Q 116.508 225.371 117.534 225.176 Q 117.221 225.645 117.031 226.191 Q 116.84 226.738 116.733 227.295 Q 116.625 227.852 116.586 228.394 Q 116.547 228.936 116.547 229.385 Q 116.547 229.688 116.557 229.932 Q 116.567 230.176 116.586 230.352 Q 116.606 230.557 116.635 230.723 Q 114.926 229.951 113.305 229.644 Q 111.684 229.336 110.17 229.336 Q 109.653 229.336 109.184 229.37 Q 108.715 229.404 108.247 229.463 Q 108.354 229.932 108.632 230.244 Q 108.911 230.557 109.194 230.752 Q 109.526 230.977 109.907 231.104 Q 110.649 231.338 111.518 231.675 Q 112.387 232.012 113.256 232.51 Q 114.125 233.008 114.926 233.682 Q 115.727 234.356 116.332 235.244 Q 116.704 234.932 117.055 234.556 Q 117.407 234.18 117.709 233.74 Z" transform="matrix(1, 0, 0, 1, 89.330429, 6.134097)" style="fill: rgb(0, 0, 255); stroke: rgb(51, 51, 51); stroke-width: 0.4px; white-space: pre;"/>
    <path transform="matrix(1, 0, 0, 1, 89.330429, 6.134097)" style="fill: rgb(51, 51, 51); stroke: rgb(51, 51, 51); stroke-width: 0.4px; white-space: pre;"/>
    <path d="M 140.51 226.24 Q 140.119 226.582 139.773 226.948 Q 139.426 227.315 139.114 227.725 Q 140.139 227.93 141.052 228.408 Q 141.965 228.887 142.649 229.619 Q 143.332 230.352 143.733 231.333 Q 144.133 232.315 144.133 233.516 Q 144.133 234.854 143.738 235.942 Q 143.342 237.031 142.639 237.876 Q 141.936 238.721 140.979 239.336 Q 140.022 239.951 138.899 240.357 Q 137.776 240.762 136.54 240.952 Q 135.305 241.143 134.045 241.143 Q 133.606 241.143 133.127 241.128 Q 132.649 241.113 132.204 241.079 Q 131.76 241.045 131.374 240.982 Q 130.989 240.918 130.744 240.82 Q 131.086 240.537 131.369 240.244 Q 131.653 239.951 131.906 239.639 Q 130.881 239.434 129.963 238.994 Q 129.045 238.555 128.357 237.876 Q 127.668 237.197 127.268 236.26 Q 126.867 235.322 126.867 234.102 Q 126.867 232.686 127.331 231.538 Q 127.795 230.391 128.601 229.507 Q 129.406 228.623 130.49 227.983 Q 131.574 227.344 132.824 226.929 Q 134.074 226.514 135.427 226.318 Q 136.78 226.123 138.108 226.123 Q 138.684 226.123 139.275 226.152 Q 139.865 226.182 140.51 226.24 Z M 139.748 232.676 Q 139.748 232.109 139.612 231.655 Q 139.475 231.201 139.231 230.84 Q 138.987 230.479 138.65 230.215 Q 138.313 229.951 137.912 229.756 Q 137.756 230.108 137.634 230.459 Q 137.512 230.811 137.405 231.182 Q 136.838 230.986 136.345 230.913 Q 135.852 230.84 135.432 230.84 Q 134.699 230.84 133.948 231.099 Q 133.196 231.358 132.595 231.846 Q 131.994 232.334 131.614 233.027 Q 131.233 233.721 131.233 234.58 Q 131.233 235.02 131.364 235.435 Q 131.496 235.85 131.736 236.231 Q 131.975 236.611 132.302 236.958 Q 132.629 237.305 133.01 237.617 Q 133.147 237.207 133.22 236.802 Q 133.293 236.397 133.313 235.938 Q 133.957 236.27 134.548 236.397 Q 135.139 236.524 135.647 236.524 Q 136.408 236.524 137.146 236.26 Q 137.883 235.996 138.464 235.498 Q 139.045 235 139.397 234.287 Q 139.748 233.574 139.748 232.676 Z" transform="matrix(1, 0, 0, 1, 89.330429, 6.134097)" style="fill: rgb(128, 0, 255); stroke: rgb(51, 51, 51); stroke-width: 0.4px; white-space: pre;"/>
    <path d="M 150.99 240.42 Q 149.495 240.42 148.118 240.679 Q 146.742 240.938 145.296 241.455 Q 146.058 238.174 146.366 234.912 Q 146.673 231.65 146.693 228.418 L 144.954 228.184 Q 145.394 228.027 145.824 227.881 Q 146.253 227.734 146.693 227.598 Q 146.693 227.227 146.683 226.841 Q 146.673 226.455 146.673 226.084 Q 147.347 226.172 148.031 226.226 Q 148.714 226.279 149.417 226.279 Q 149.837 226.279 150.243 226.255 Q 150.648 226.231 151.077 226.201 L 151.029 226.563 Q 152.152 226.377 153.255 226.279 Q 154.359 226.182 155.472 226.182 Q 156.439 226.182 157.396 226.245 Q 158.353 226.309 159.329 226.455 Q 159.095 227.969 159.095 229.443 Q 159.095 230.059 159.129 230.674 Q 159.163 231.289 159.251 231.904 Q 157.191 231.074 155.116 230.415 Q 153.04 229.756 150.892 229.238 Q 150.863 229.795 150.858 230.337 Q 150.853 230.879 150.853 231.416 L 150.853 232.481 Q 151.673 232.363 152.479 232.29 Q 153.285 232.217 154.115 232.217 Q 154.32 232.217 154.53 232.227 Q 154.74 232.236 154.954 232.236 Q 154.71 233.389 154.71 234.58 Q 154.71 235.068 154.749 235.557 Q 154.788 236.045 154.857 236.543 Q 153.939 235.869 152.952 235.293 Q 151.966 234.717 150.911 234.219 Q 150.97 235.772 151.121 237.319 Q 151.273 238.867 151.497 240.42 Z" transform="matrix(1, 0, 0, 1, 89.330429, 6.134097)" style="fill: rgb(255, 0, 0); stroke: rgb(51, 51, 51); stroke-width: 0.4px; white-space: pre;"/>
    <path transform="matrix(1, 0, 0, 1, 89.330429, 6.134097)" style="fill: rgb(51, 51, 51); stroke: rgb(51, 51, 51); stroke-width: 0.4px; white-space: pre;"/>
    <path d="M 40.701 266.361 Q 40.506 266.361 40.311 266.352 Q 40.116 266.342 39.92 266.342 Q 38.641 266.342 37.43 266.523 Q 36.219 266.703 35.057 267.104 Q 35.037 266.82 35.037 266.523 Q 35.037 266.225 35.037 265.941 Q 35.037 263.149 35.413 260.59 Q 35.789 258.031 36.6 255.639 Q 34.998 255.805 33.431 256.2 Q 31.864 256.596 30.379 257.24 Q 30.741 255.736 30.741 254.223 Q 30.741 253.529 30.667 252.831 Q 30.594 252.133 30.438 251.459 Q 32.254 251.869 34.119 252.138 Q 35.985 252.406 37.918 252.484 Q 38.192 251.938 38.49 251.4 Q 38.787 250.863 39.119 250.336 Q 39.032 251.42 39.002 252.504 L 39.295 252.504 Q 40.565 252.504 41.815 252.406 Q 43.065 252.309 44.344 252.084 Q 44.119 252.504 43.958 252.983 Q 43.797 253.461 43.797 254.145 Q 43.797 254.535 43.861 254.999 Q 43.924 255.463 44.08 256.039 Q 42.977 255.785 41.737 255.644 Q 40.496 255.502 39.159 255.502 L 39.002 255.502 Q 39.08 258.246 39.476 260.946 Q 39.871 263.647 40.701 266.361 Z" transform="matrix(1, 0, 0, 1, 89.330429, 6.134097)" style="fill: rgb(255, 127, 0); stroke: rgb(51, 51, 51); stroke-width: 0.4px; white-space: pre;"/>
    <path d="M 50.605 266.781 Q 49.804 266.586 49.047 266.493 Q 48.29 266.4 47.519 266.4 Q 46.767 266.4 46 266.493 Q 45.234 266.586 44.403 266.781 Q 45.243 264.652 45.693 262.46 Q 46.142 260.268 46.142 257.943 Q 46.142 256.537 45.971 255.116 Q 45.8 253.695 45.439 252.201 Q 46.083 252.387 46.703 252.538 Q 47.323 252.69 47.953 252.802 Q 48.583 252.914 49.237 252.973 Q 49.892 253.031 50.605 253.041 Q 50.663 254.623 50.693 256.176 Q 50.722 257.729 50.741 259.301 Q 51.708 259.213 52.636 259.091 Q 53.564 258.969 54.501 258.822 Q 54.618 257.025 54.882 255.233 Q 55.146 253.441 55.605 251.596 Q 56.161 251.83 56.684 251.996 Q 57.206 252.162 57.743 252.275 Q 58.28 252.387 58.857 252.436 Q 59.433 252.484 60.097 252.484 Q 60.234 252.484 60.38 252.47 Q 60.527 252.455 60.683 252.455 Q 60.038 253.803 59.609 255.17 Q 59.179 256.537 59.003 257.963 Q 59.501 257.856 60.004 257.724 Q 60.507 257.592 61.025 257.455 Q 60.917 258.158 60.868 258.832 Q 60.82 259.506 60.82 260.199 Q 60.82 260.893 60.868 261.591 Q 60.917 262.289 61.025 262.983 Q 60.497 262.963 59.999 262.934 Q 59.501 262.904 59.003 262.856 Q 59.12 263.764 59.32 264.662 Q 59.521 265.561 59.823 266.498 Q 59.462 266.469 59.14 266.454 Q 58.818 266.44 58.505 266.44 Q 57.987 266.44 57.509 266.483 Q 57.03 266.527 56.562 266.61 Q 56.093 266.693 55.619 266.816 Q 55.146 266.938 54.638 267.104 Q 54.521 265.834 54.462 264.589 Q 54.403 263.344 54.403 262.065 Q 53.466 261.82 52.558 261.523 Q 51.65 261.225 50.741 260.883 Q 50.722 262.358 50.693 263.827 Q 50.663 265.297 50.605 266.781 Z" transform="matrix(1, 0, 0, 1, 89.330429, 6.134097)" style="fill: rgb(255, 255, 0); stroke: rgb(51, 51, 51); stroke-width: 0.4px; white-space: pre;"/>
    <path d="M 68.554 266.381 Q 67.753 266.391 66.967 266.386 Q 66.181 266.381 65.404 266.41 Q 64.628 266.44 63.866 266.537 Q 63.105 266.635 62.353 266.84 Q 63.027 264.574 63.373 262.343 Q 63.72 260.111 63.72 257.856 Q 63.72 256.83 63.647 255.81 Q 63.573 254.789 63.417 253.764 L 61.913 253.578 Q 62.265 253.471 62.621 253.373 Q 62.978 253.275 63.32 253.178 Q 63.271 252.904 63.227 252.636 Q 63.183 252.367 63.114 252.084 Q 63.7 252.26 64.277 252.416 Q 64.853 252.572 65.458 252.68 Q 67.343 252.289 69.223 252.084 Q 71.103 251.879 73.036 251.879 Q 73.866 251.879 74.696 251.918 Q 75.527 251.957 76.376 252.035 Q 75.898 253.822 75.898 255.736 Q 75.898 256.44 75.956 257.123 Q 72.265 255.561 68.339 254.662 Q 68.251 255.522 68.193 256.391 Q 68.134 257.26 68.114 258.119 Q 69.111 257.895 70.097 257.777 Q 71.083 257.66 72.079 257.641 Q 71.855 258.559 71.855 259.457 Q 71.855 259.818 71.889 260.18 Q 71.923 260.541 72.001 260.902 Q 71.054 260.443 70.077 260.082 Q 69.101 259.721 68.095 259.438 Q 68.095 260.473 68.139 261.576 Q 68.183 262.68 68.28 263.803 Q 72.04 263.295 75.956 261.938 Q 75.839 262.67 75.771 263.383 Q 75.702 264.096 75.702 264.818 Q 75.702 265.483 75.761 266.137 Q 75.82 266.791 75.956 267.455 Q 74.111 266.986 72.265 266.65 Q 70.419 266.313 68.515 266.117 Q 68.515 266.176 68.525 266.249 Q 68.534 266.322 68.554 266.381 Z" transform="matrix(1, 0, 0, 1, 89.330429, 6.134097)" style="fill: rgb(0, 255, 0); stroke: rgb(51, 51, 51); stroke-width: 0.4px; white-space: pre;"/>
    <path d="M 105.707 252.924 Q 104.935 254.496 104.364 256.093 Q 103.793 257.69 103.412 259.33 Q 103.031 260.971 102.841 262.655 Q 102.65 264.34 102.65 266.098 Q 101.322 266.234 100.057 266.523 Q 98.793 266.811 97.552 267.201 Q 97.132 265.649 96.571 264.193 Q 96.009 262.738 95.189 261.4 Q 94.994 261.908 94.735 262.563 Q 94.476 263.217 94.237 263.935 Q 93.998 264.652 93.802 265.395 Q 93.607 266.137 93.549 266.82 Q 92.455 266.479 91.346 266.259 Q 90.238 266.039 89.095 266.039 Q 88.539 266.039 87.972 266.098 Q 88.031 265.209 88.031 264.301 Q 88.031 261.274 87.225 258.432 Q 86.42 255.59 84.652 252.983 Q 86.107 252.904 87.518 252.675 Q 88.929 252.445 90.336 252.084 Q 90.697 253.344 90.995 254.418 Q 91.293 255.492 91.522 256.552 Q 91.752 257.611 91.913 258.749 Q 92.074 259.887 92.172 261.264 Q 92.416 260.404 92.626 259.726 Q 92.836 259.047 93.002 258.485 Q 93.168 257.924 93.29 257.45 Q 93.412 256.977 93.495 256.523 Q 93.578 256.068 93.617 255.605 Q 93.656 255.141 93.656 254.604 Q 93.656 254.418 93.641 254.223 Q 93.627 254.027 93.627 253.822 Q 94.095 253.9 94.574 253.93 Q 95.052 253.959 95.55 253.959 Q 95.922 253.959 96.302 253.944 Q 96.683 253.93 97.054 253.881 Q 97.054 254.994 97.172 255.937 Q 97.289 256.879 97.504 257.714 Q 97.718 258.549 98.026 259.306 Q 98.334 260.063 98.715 260.805 Q 99.017 259.721 99.222 258.671 Q 99.427 257.621 99.559 256.527 Q 99.691 255.434 99.759 254.276 Q 99.828 253.119 99.867 251.82 Q 102.582 252.924 105.707 252.924 Z" transform="matrix(1, 0, 0, 1, 89.330429, 6.134097)" style="fill: rgb(0, 0, 255); stroke: rgb(51, 51, 51); stroke-width: 0.4px; white-space: pre;"/>
    <path d="M 119.693 252.24 Q 119.302 252.582 118.955 252.948 Q 118.609 253.315 118.296 253.725 Q 119.322 253.93 120.235 254.408 Q 121.148 254.887 121.831 255.619 Q 122.515 256.352 122.915 257.333 Q 123.316 258.315 123.316 259.516 Q 123.316 260.854 122.92 261.942 Q 122.525 263.031 121.822 263.876 Q 121.118 264.721 120.161 265.336 Q 119.204 265.951 118.081 266.357 Q 116.958 266.762 115.723 266.952 Q 114.488 267.143 113.228 267.143 Q 112.788 267.143 112.31 267.128 Q 111.831 267.113 111.387 267.079 Q 110.943 267.045 110.557 266.982 Q 110.171 266.918 109.927 266.82 Q 110.269 266.537 110.552 266.244 Q 110.835 265.951 111.089 265.639 Q 110.064 265.434 109.146 264.994 Q 108.228 264.555 107.539 263.876 Q 106.851 263.197 106.45 262.26 Q 106.05 261.322 106.05 260.102 Q 106.05 258.686 106.514 257.538 Q 106.978 256.391 107.783 255.507 Q 108.589 254.623 109.673 253.983 Q 110.757 253.344 112.007 252.929 Q 113.257 252.514 114.61 252.318 Q 115.962 252.123 117.29 252.123 Q 117.866 252.123 118.457 252.152 Q 119.048 252.182 119.693 252.24 Z M 118.931 258.676 Q 118.931 258.109 118.794 257.655 Q 118.657 257.201 118.413 256.84 Q 118.169 256.479 117.832 256.215 Q 117.495 255.951 117.095 255.756 Q 116.939 256.108 116.817 256.459 Q 116.695 256.811 116.587 257.182 Q 116.021 256.986 115.528 256.913 Q 115.034 256.84 114.615 256.84 Q 113.882 256.84 113.13 257.099 Q 112.378 257.358 111.778 257.846 Q 111.177 258.334 110.796 259.027 Q 110.415 259.721 110.415 260.58 Q 110.415 261.02 110.547 261.435 Q 110.679 261.85 110.918 262.231 Q 111.157 262.611 111.485 262.958 Q 111.812 263.305 112.193 263.617 Q 112.329 263.207 112.403 262.802 Q 112.476 262.397 112.495 261.938 Q 113.14 262.27 113.731 262.397 Q 114.322 262.524 114.829 262.524 Q 115.591 262.524 116.328 262.26 Q 117.066 261.996 117.647 261.498 Q 118.228 261 118.579 260.287 Q 118.931 259.574 118.931 258.676 Z" transform="matrix(1, 0, 0, 1, 89.330429, 6.134097)" style="fill: rgb(128, 0, 255); stroke: rgb(51, 51, 51); stroke-width: 0.4px; white-space: pre;"/>
    <path d="M 141.051 265.775 Q 139.498 265.902 138.038 266.342 Q 136.578 266.781 135.172 267.543 Q 135.065 266.303 134.762 265.126 Q 134.459 263.949 133.971 262.816 Q 133.004 263.1 131.979 263.1 Q 131.471 263.1 130.993 263.041 Q 131.012 263.988 131.041 264.931 Q 131.071 265.873 131.119 266.82 Q 130.846 266.791 130.563 266.767 Q 130.28 266.742 129.977 266.742 Q 128.854 266.742 127.609 267.001 Q 126.364 267.26 124.996 267.738 Q 125.543 266.127 125.939 264.506 Q 126.334 262.885 126.578 261.225 Q 125.807 260.697 125.275 260.17 Q 124.743 259.643 124.479 259.301 Q 125.006 259.467 125.578 259.604 Q 126.149 259.74 126.735 259.858 Q 126.813 259.125 126.852 258.402 Q 126.891 257.68 126.891 256.938 L 126.891 256.361 Q 126.295 256.557 125.709 256.781 Q 125.123 257.006 124.577 257.279 Q 124.723 256.733 124.801 256.215 Q 124.879 255.697 124.879 255.199 Q 124.879 254.35 124.664 253.568 Q 124.45 252.787 124.059 252.065 Q 126.334 251.713 128.146 251.586 Q 129.957 251.459 131.373 251.459 Q 132.037 251.459 132.882 251.493 Q 133.727 251.527 134.62 251.65 Q 135.514 251.772 136.393 252.006 Q 137.272 252.24 138.004 252.655 Q 138.737 253.07 139.259 253.681 Q 139.782 254.291 139.957 255.16 L 139.957 255.199 Q 140.211 255.053 140.451 254.892 Q 140.69 254.731 140.934 254.535 Q 140.797 255.424 140.494 256.303 Q 140.192 257.182 139.738 258.002 Q 139.284 258.822 138.693 259.565 Q 138.102 260.307 137.399 260.922 Q 138.893 263.559 141.051 265.775 Z M 133.698 255.199 Q 133.18 255.199 132.545 255.248 Q 131.911 255.297 131.1 255.404 Q 131.051 256.576 131.022 257.738 Q 130.993 258.9 130.993 260.063 Q 131.754 259.965 132.418 259.731 Q 133.082 259.496 133.595 259.086 Q 134.108 258.676 134.445 258.075 Q 134.782 257.475 134.879 256.645 Q 135.299 256.566 135.714 256.498 Q 136.129 256.43 136.559 256.342 L 136.559 256.322 Q 136.334 256.049 136.09 255.839 Q 135.846 255.629 135.524 255.487 Q 135.202 255.346 134.762 255.273 Q 134.323 255.199 133.698 255.199 Z" transform="matrix(1, 0, 0, 1, 89.330429, 6.134097)" style="fill: rgb(255, 0, 0); stroke: rgb(51, 51, 51); stroke-width: 0.4px; white-space: pre;"/>
    <path d="M 155.339 266.498 Q 153.679 266.244 152.034 266.112 Q 150.388 265.981 148.699 265.981 Q 146.814 265.981 144.924 266.147 Q 143.035 266.313 141.121 266.684 Q 141.599 266.313 142.083 265.961 Q 142.566 265.609 143.084 265.297 Q 143.308 263.969 143.416 262.68 Q 143.523 261.391 143.523 260.082 Q 143.523 258.139 143.298 256.239 Q 143.074 254.34 142.683 252.455 Q 142.888 252.475 143.108 252.48 Q 143.328 252.484 143.543 252.484 Q 144.783 252.484 145.974 252.323 Q 147.166 252.162 148.357 251.859 Q 148.357 254.682 148.079 257.489 Q 147.8 260.297 147.156 263.1 Q 148.982 262.299 150.906 261.733 Q 152.83 261.166 154.9 260.824 Q 154.783 261.811 154.783 262.758 Q 154.783 263.705 154.91 264.643 Q 155.037 265.58 155.339 266.498 Z" transform="matrix(1, 0, 0, 1, 89.330429, 6.134097)" style="fill: rgb(255, 127, 0); stroke: rgb(51, 51, 51); stroke-width: 0.4px; white-space: pre;"/>
    <path d="M 171.96 258.344 Q 172.097 259.516 171.848 260.624 Q 171.599 261.733 171.037 262.719 Q 170.476 263.705 169.641 264.525 Q 168.806 265.346 167.785 265.941 Q 166.765 266.537 165.598 266.869 Q 164.431 267.201 163.2 267.201 Q 162.39 267.201 161.535 267.001 Q 160.681 266.801 159.88 266.264 Q 159.001 266.371 158.069 266.596 Q 157.136 266.82 156.14 267.182 Q 157.019 264.555 157.522 261.903 Q 158.025 259.252 158.044 256.537 Q 157.702 256.693 157.351 256.894 Q 156.999 257.094 156.657 257.338 Q 156.697 257.084 156.711 256.845 Q 156.726 256.606 156.726 256.361 Q 156.726 255.17 156.379 254.11 Q 156.032 253.051 155.359 252.104 Q 155.72 251.986 156.218 251.889 Q 156.716 251.791 157.278 251.713 Q 157.839 251.635 158.43 251.576 Q 159.021 251.518 159.577 251.479 Q 160.134 251.44 160.622 251.42 Q 161.111 251.4 161.462 251.4 Q 162.907 251.4 164.187 251.64 Q 165.466 251.879 166.54 252.314 Q 167.614 252.748 168.459 253.358 Q 169.304 253.969 169.89 254.706 Q 170.476 255.443 170.788 256.293 Q 171.101 257.143 171.101 258.061 Q 171.101 258.207 171.101 258.358 Q 171.101 258.51 171.081 258.656 Q 171.325 258.578 171.54 258.505 Q 171.755 258.432 171.96 258.344 Z M 167.497 259.145 Q 167.312 258.529 166.965 258.051 Q 166.618 257.572 166.174 257.211 Q 165.73 256.85 165.217 256.606 Q 164.704 256.361 164.182 256.195 Q 163.659 256.029 163.152 255.946 Q 162.644 255.863 162.204 255.824 Q 162.146 258.217 162.146 260.58 Q 162.146 262.748 162.204 264.897 Q 163.161 264.613 163.996 264.115 Q 164.831 263.617 165.422 262.9 Q 166.013 262.182 166.306 261.244 Q 166.599 260.307 166.482 259.164 Q 166.706 259.164 166.96 259.164 Q 167.214 259.164 167.497 259.145 Z" transform="matrix(1, 0, 0, 1, 89.330429, 6.134097)" style="fill: rgb(255, 255, 0); stroke: rgb(51, 51, 51); stroke-width: 0.4px; white-space: pre;"/>
  </g>
  <path style="fill: rgb(216, 216, 216);" d="M 435.232 341.067"/>
  <path style="fill: rgb(239, 230, 230);" d="M 435.253 341.226 C 429.512 340.926 424.78 339.636 420.047 336.342 C 426.027 334.262 430.861 336.315 435.253 341.226 Z"/>
  <g transform="matrix(1, 0, 0, 1, 33.832031, 29.411543)">
    <path style="fill: none; stroke: rgb(255, 0, 128); stroke-width: 2px; stroke-linecap: round;" d="M 431.922 403.286 L 394.765 414.86 L 355.424 404.214 L 355.967 445.38 L 393.888 433.901 L 432.696 447.848 L 431.568 427.209 L 412.513 426.38"/>
    <path style="fill: rgb(216, 216, 216); stroke-linecap: round; stroke-width: 2px; stroke: rgb(255, 0, 128);" d="M 432.149 403.25 L 431.737 416.428"/>
    <path style="fill: rgb(216, 216, 216); stroke-width: 2px; stroke-linecap: round; stroke: rgb(255, 0, 128);" d="M 394.71 415.143 L 393.802 433.876"/>
    <path style="fill: rgb(216, 216, 216); stroke-width: 2px; stroke-linecap: round; stroke: rgb(255, 0, 128);" d="M 356.024 423.968 L 372.149 424.006"/>
    <path d="M 383.06 425.925 Q 383.446 425.925 383.446 426.218 Q 383.446 426.511 383.189 426.646 Q 382.931 426.78 382.609 426.839 Q 382.286 426.898 382.005 426.904 Q 381.724 426.909 381.648 426.927 Q 381.571 426.945 381.308 427.021 Q 381.044 427.097 380.681 427.196 Q 380.318 427.296 379.896 427.413 Q 378.571 427.765 377.786 427.765 Q 377.388 427.765 377.253 427.642 Q 377.118 427.519 377.2 427.296 Q 378.079 426.523 379.028 425.304 Q 380.446 423.487 380.446 422.468 Q 380.446 422.269 380.388 422.093 Q 380.259 421.73 379.72 421.624 Q 379.204 421.624 378.876 421.835 Q 378.548 422.046 378.261 422.304 Q 377.974 422.562 377.675 422.773 Q 377.376 422.984 376.943 422.984 Q 376.954 422.597 377.259 422.234 Q 377.868 421.484 378.982 421.155 Q 379.38 421.027 379.614 421.027 Q 379.849 421.027 379.966 421.038 Q 380.423 421.085 380.751 421.366 Q 381.079 421.648 381.138 422.234 Q 381.138 423.886 379.591 425.902 Q 379.169 426.452 378.759 426.921 Q 378.888 426.933 379.163 426.933 Q 379.439 426.933 379.919 426.798 Q 380.4 426.663 380.939 426.47 Q 381.478 426.277 382.005 426.101 Q 382.532 425.925 383.06 425.925 Z M 385.768 427.369 Q 385.346 427.1 385.1 426.696 Q 384.854 426.291 384.854 425.823 Q 384.854 425.354 384.995 424.709 Q 385.135 424.065 385.352 423.514 Q 385.569 422.963 385.88 422.448 Q 386.19 421.932 386.589 421.533 Q 387.467 420.678 388.581 420.678 Q 390.081 420.678 390.878 421.78 Q 391.616 422.776 391.616 424.252 Q 391.616 425.998 390.503 426.971 Q 389.413 427.908 387.608 427.908 Q 386.565 427.908 385.768 427.369 Z M 385.546 425.74 Q 385.546 427.323 387.796 427.323 Q 389.413 427.323 390.227 426.49 Q 391.042 425.658 391.042 424.123 Q 391.042 424.076 391.042 424.03 Q 391.042 422.682 390.374 421.967 Q 389.706 421.252 388.546 421.252 Q 388.417 421.252 388.317 421.252 Q 388.217 421.252 388.135 421.252 Q 387.514 421.252 386.905 422.096 Q 386.331 422.869 385.921 424.076 Q 385.546 425.178 385.546 425.74 Z M 403.097 425.928 Q 403.483 425.928 403.483 426.221 Q 403.483 426.514 403.225 426.649 Q 402.968 426.783 402.645 426.842 Q 402.323 426.901 402.042 426.906 Q 401.761 426.912 401.684 426.93 Q 401.608 426.948 401.345 427.024 Q 401.081 427.1 400.718 427.199 Q 400.354 427.299 399.933 427.416 Q 398.608 427.768 397.823 427.768 Q 397.425 427.768 397.29 427.645 Q 397.155 427.522 397.237 427.299 Q 398.116 426.526 399.065 425.307 Q 400.483 423.49 400.483 422.471 Q 400.483 422.272 400.425 422.096 Q 400.296 421.733 399.757 421.627 Q 399.241 421.627 398.913 421.838 Q 398.585 422.049 398.298 422.307 Q 398.011 422.565 397.712 422.776 Q 397.413 422.987 396.979 422.987 Q 396.991 422.6 397.296 422.237 Q 397.905 421.487 399.018 421.158 Q 399.417 421.03 399.651 421.03 Q 399.886 421.03 400.003 421.041 Q 400.46 421.088 400.788 421.369 Q 401.116 421.651 401.175 422.237 Q 401.175 423.889 399.628 425.905 Q 399.206 426.455 398.796 426.924 Q 398.925 426.936 399.2 426.936 Q 399.475 426.936 399.956 426.801 Q 400.436 426.666 400.975 426.473 Q 401.515 426.28 402.042 426.104 Q 402.569 425.928 403.097 425.928 Z M 405.048 427.366 Q 405.048 427.143 405.065 426.668 Q 405.083 426.194 405.101 425.596 Q 405.118 424.998 405.142 424.342 Q 405.165 423.686 405.183 423.088 Q 405.2 422.491 405.212 422.022 Q 405.224 421.553 405.235 421.319 Q 405.212 421.061 405.329 420.991 Q 405.446 420.92 405.593 420.92 Q 405.739 420.92 405.851 420.944 Q 405.962 420.967 406.009 421.131 L 405.821 427.155 Q 405.798 427.366 405.493 427.453 Q 405.188 427.541 405.048 427.366 Z" style="fill: rgb(255, 0, 128); white-space: pre;"/>
  </g>
</svg>