<?xml version="1.0" encoding="utf-8"?>
<svg viewBox="0 0 1600 1600" xmlns="http://www.w3.org/2000/svg" xmlns:bx="https://boxy-svg.com">
  <defs>
    <linearGradient gradientUnits="userSpaceOnUse" x1="799.99" y1="-0.028" x2="799.99" y2="1600.087" id="gradient-0" gradientTransform="matrix(0.706697, 0.707515, -1.001689, 1.000532, 1035.322372, -566.919879)">
      <stop offset="0" style="stop-color: rgb(41, 171, 135);"/>
      <stop offset="1" style="stop-color: rgb(34, 139, 34);"/>
    </linearGradient>
    <linearGradient gradientUnits="userSpaceOnUse" x1="616.586" y1="423.796" x2="616.586" y2="832.478" id="gradient-1" gradientTransform="matrix(-0.819239, 0.573453, -0.579942, -0.828511, 1472.608681, 772.105703)">
      <stop offset="0" style="stop-color: rgba(68, 54, 47, 1)"/>
      <stop offset="1" style="stop-color: rgb(60, 20, 20);"/>
    </linearGradient>
    <linearGradient gradientUnits="userSpaceOnUse" x1="657.395" y1="784.893" x2="657.395" y2="1143.496" id="gradient-2" gradientTransform="matrix(0.490556, 0.87141, -0.583046, 0.328223, 889.104711, 46.628478)">
      <stop offset="0" style="stop-color: rgba(68, 54, 47, 1)"/>
      <stop offset="1" style="stop-color: rgb(60, 20, 20);"/>
    </linearGradient>
    <linearGradient gradientUnits="userSpaceOnUse" x1="635.43" y1="498.086" x2="635.43" y2="821.582" id="gradient-3" gradientTransform="matrix(-0.679518, 0.733657, -0.697188, -0.645742, 1537.463333, 656.547363)">
      <stop offset="0" style="stop-color: rgba(137, 207, 240, 1)"/>
      <stop offset="1" style="stop-color: rgb(173, 216, 230);"/>
    </linearGradient>
    <linearGradient gradientUnits="userSpaceOnUse" x1="674.784" y1="788.095" x2="674.784" y2="1093.039" id="gradient-4" gradientTransform="matrix(0.56909, 0.822276, -0.576497, 0.398988, 840.899036, -32.586643)">
      <stop offset="0" style="stop-color: rgb(137, 207, 240);"/>
      <stop offset="1" style="stop-color: rgb(170, 216, 230);"/>
    </linearGradient>
    <linearGradient gradientUnits="userSpaceOnUse" x1="780.64" y1="687.769" x2="780.64" y2="731.572" id="gradient-5" gradientTransform="matrix(-1.715069, 0.022576, -0.024629, -1.871658, 2154.893494, 1991.703998)">
      <stop offset="0" style="stop-color: rgb(0, 46, 99);"/>
      <stop offset="1" style="stop-color: rgb(52, 52, 52);"/>
    </linearGradient>
    <linearGradient gradientUnits="userSpaceOnUse" x1="657.395" y1="784.893" x2="657.395" y2="1143.496" id="gradient-6" gradientTransform="matrix(0.490556, 0.87141, -0.583046, 0.328223, 889.104711, 46.628478)">
      <stop offset="0" style="stop-color: rgba(68, 54, 47, 1)"/>
      <stop offset="1" style="stop-color: rgb(60, 20, 20);"/>
    </linearGradient>
    <linearGradient gradientUnits="userSpaceOnUse" x1="674.784" y1="788.095" x2="674.784" y2="1093.039" id="gradient-7" gradientTransform="matrix(0.56909, 0.822276, -0.576497, 0.398988, 840.899036, -32.586643)">
      <stop offset="0" style="stop-color: rgb(137, 207, 240);"/>
      <stop offset="1" style="stop-color: rgb(170, 216, 230);"/>
    </linearGradient>
    <linearGradient gradientUnits="userSpaceOnUse" x1="616.586" y1="423.796" x2="616.586" y2="832.478" id="gradient-8" gradientTransform="matrix(-0.819239, 0.573453, -0.579942, -0.828511, 1472.608681, 772.105703)">
      <stop offset="0" style="stop-color: rgba(68, 54, 47, 1)"/>
      <stop offset="1" style="stop-color: rgb(60, 20, 20);"/>
    </linearGradient>
    <linearGradient gradientUnits="userSpaceOnUse" x1="635.43" y1="498.086" x2="635.43" y2="821.582" id="gradient-9" gradientTransform="matrix(-0.679518, 0.733657, -0.697188, -0.645742, 1537.463333, 656.547363)">
      <stop offset="0" style="stop-color: rgba(137, 207, 240, 1)"/>
      <stop offset="1" style="stop-color: rgb(173, 216, 230);"/>
    </linearGradient>
    <linearGradient gradientUnits="userSpaceOnUse" x1="785.253" y1="878.112" x2="785.253" y2="1058.853" id="gradient-10" gradientTransform="matrix(1.037115, -0.027993, 0.027698, 1.063999, -55.095505, -41.306179)">
      <stop offset="0" style="stop-color: rgb(0, 46, 99);"/>
      <stop offset="1" style="stop-color: rgb(52, 52, 52);"/>
    </linearGradient>
    <linearGradient gradientUnits="userSpaceOnUse" x1="781.552" y1="742.534" x2="781.552" y2="961.57" id="gradient-11" gradientTransform="matrix(0.999957, -0.009009, 0.005358, 0.595403, -2.951965, 305.939415)">
      <stop offset="0" style="stop-color: rgb(118, 171, 223);"/>
      <stop offset="1" style="stop-color: rgb(0, 46, 99);"/>
    </linearGradient>
    <linearGradient gradientUnits="userSpaceOnUse" x1="781.273" y1="728.155" x2="781.273" y2="761.659" id="gradient-12" gradientTransform="matrix(1, 0, 0, 1, 0, 0)">
      <stop offset="0" style="stop-color: rgba(118, 171, 223, 1)"/>
      <stop offset="1" style="stop-color: rgba(45, 120, 194, 1)"/>
    </linearGradient>
  </defs>
  <rect x="-0.067" y="-0.028" width="1600.113" height="1600.115" style="stroke-width: 1.022; fill: url(#gradient-0); filter: none;">
    <title>Background</title>
  </rect>
  <path style="stroke: rgb(0, 0, 0); stroke-width: 1.398; fill: url(#gradient-5);" d="M 794.02 641.898 C 791.442 662.698 787.958 707.917 787.958 707.917 C 795.637 712.153 802.624 712.243 808.921 708.181 C 808.921 708.181 805.258 665.153 801.946 641.533 C 800.872 633.891 794.951 634.391 794.02 641.898 Z">
    <title>Proboscis Outline</title>
  </path>
  <g transform="matrix(1.715217, 0, 0, 1.715217, -541.753601, -544.122253)">
    <title>Head</title>
    <ellipse style="stroke: rgb(0, 0, 0); stroke-width: 1.035; fill: url(#gradient-12);" cx="781.273" cy="744.907" rx="25.601" ry="16.752">
      <title>Head Outline</title>
    </ellipse>
    <path style="fill: rgb(52, 52, 52); stroke-width: 0.5px;" d="M 800.733 738.424 C 797.289 737.227 791.989 734.334 789.503 729.659 C 796.367 729.835 800.747 731.956 800.733 738.424 Z" transform="matrix(-1, 0, 0, -1, 1594.473999, 1469.23999)">
      <title>Right Eye</title>
    </path>
    <path style="fill: rgb(52, 52, 52); stroke-width: 0.5px;" d="M 768.185 731.061 C 763.815 732.755 759.283 735.842 757.285 740.168 C 764.288 740.12 767.648 737.851 768.185 731.061 Z">
      <title>Left Eye</title>
    </path>
  </g>
  <g transform="matrix(1.678927, 0.350961, -0.350961, 1.678927, -248.226654, -781.532654)">
    <title>Left Antenna</title>
    <path style="stroke: rgb(0, 0, 0); fill: rgb(245, 245, 245);" d="M 772.576 736.159 C 748.252 691.518 714.731 640.314 682.421 598.918 L 679.104 601.668 C 711.28 642.915 744.285 693.843 769.131 737.723 L 772.576 736.159 Z">
      <title>Antenna Outline</title>
    </path>
    <rect x="690.409" y="587.397" width="10.944" height="30.256" style="stroke: rgb(0, 0, 0); stroke-width: 1.107; fill: rgb(52, 52, 52);" rx="5.472" ry="5.472" transform="matrix(0.821409, -0.57034, 0.57034, 0.821409, -227.42717, 511.049469)">
      <title>Left Flagellum</title>
    </rect>
    <path style="fill: rgb(245, 245, 245);" d="M 677.943 603.448 L 686.523 598.65 C 682.718 592.748 674.991 598.507 677.943 603.448 Z" transform="matrix(0.999813, -0.019337, 0.019337, 0.999813, -11.47109, 13.298465)">
      <title>Left Flagellum Tip</title>
    </path>
    <path style="stroke: rgb(0, 0, 0); fill: none; stroke-width: 3px;" d="M 761.509 724.958 L 765.005 723.208"/>
    <path style="stroke: rgb(0, 0, 0); fill: none; stroke-width: 3px;" d="M 758.998 720.119 L 762.494 718.369"/>
    <path style="stroke: rgb(0, 0, 0); fill: none; stroke-width: 3px;" d="M 756.242 715.448 L 759.738 713.698"/>
    <path style="stroke: rgb(0, 0, 0); fill: none; stroke-width: 3px;" d="M 753.504 710.663 L 757 708.913"/>
    <path style="stroke: rgb(0, 0, 0); fill: none; stroke-width: 3px;" d="M 750.64 705.987 L 754.136 704.237"/>
    <path style="stroke: rgb(0, 0, 0); fill: none; stroke-width: 3px;" d="M 747.774 701.059 L 751.27 699.309"/>
    <path style="stroke: rgb(0, 0, 0); fill: none; stroke-width: 3px;" d="M 744.549 695.927 L 748.045 694.177"/>
    <path style="stroke: rgb(0, 0, 0); fill: none; stroke-width: 3px;" d="M 741.497 691.086 L 744.993 689.336"/>
    <path style="stroke: rgb(0, 0, 0); fill: none; stroke-width: 3px;" d="M 738.257 685.86 L 741.753 684.11"/>
    <path style="stroke: rgb(0, 0, 0); fill: none; stroke-width: 3px;" d="M 735.119 680.888 L 738.615 679.138"/>
    <path style="stroke: rgb(0, 0, 0); fill: none; stroke-width: 3px;" d="M 731.654 675.372 L 735.15 673.622"/>
    <path style="stroke: rgb(0, 0, 0); fill: none; stroke-width: 3px;" d="M 728.323 670.34 L 731.819 668.59"/>
    <path style="stroke: rgb(0, 0, 0); fill: none; stroke-width: 3px;" d="M 724.845 665.139 L 728.341 663.389" transform="matrix(0.998695, -0.051071, 0.051071, 0.998695, -32.97644, 37.974678)"/>
    <path style="stroke: rgb(0, 0, 0); fill: none; stroke-width: 3px;" d="M 721.438 659.986 L 724.934 658.236" transform="matrix(0.998695, -0.051071, 0.051071, 0.998695, -32.717719, 37.793956)"/>
    <path style="stroke: rgb(0, 0, 0); fill: none; stroke-width: 3px;" d="M 717.751 654.591 L 721.247 652.841" transform="matrix(0.997295, -0.073499, 0.073499, 0.997295, -46.101459, 54.650596)"/>
    <path style="stroke: rgb(0, 0, 0); fill: none; stroke-width: 3px;" d="M 714.098 649.199 L 717.594 647.449" transform="matrix(0.995524, -0.094514, 0.094514, 0.995524, -58.071262, 70.559712)"/>
    <path style="stroke: rgb(0, 0, 0); fill: none; stroke-width: 3px;" d="M 710.532 644.101 L 714.028 642.351" transform="matrix(0.995524, -0.094514, 0.094514, 0.995524, -57.605341, 70.19978)"/>
    <path style="stroke: rgb(0, 0, 0); fill: none; stroke-width: 3px;" d="M 707.008 639.134 L 710.504 637.384" transform="matrix(0.995524, -0.094514, 0.094514, 0.995524, -57.151661, 69.844479)"/>
    <path style="stroke: rgb(0, 0, 0); fill: none; stroke-width: 3px;" d="M 703.791 634.598 L 707.287 632.848" transform="matrix(0.995524, -0.094514, 0.094514, 0.995524, -56.737352, 69.520122)"/>
    <path style="stroke: rgb(0, 0, 0); fill: none; stroke-width: 3px;" d="M 700.549 630.04 L 704.045 628.29" transform="matrix(0.99068, -0.136213, 0.136213, 0.99068, -79.154704, 101.52601)"/>
    <path style="stroke: rgb(0, 0, 0); fill: none; stroke-width: 3px;" d="M 697.319 625.629 L 700.815 623.879" transform="matrix(0.99068, -0.136213, 0.136213, 0.99068, -78.583981, 101.044929)"/>
    <path style="stroke: rgb(0, 0, 0); fill: none; stroke-width: 3px;" d="M 764.471 729.782 L 767.95 727.955"/>
    <path style="stroke: rgb(0, 0, 0); fill: none; stroke-width: 3px;" d="M 767.184 734.445 L 770.647 732.732"/>
  </g>
  <g transform="matrix(1.655709, -0.447903, 0.447903, 1.655709, -829.163086, -141.547287)">
    <title>Right Antenna</title>
    <path style="stroke: rgb(0, 0, 0); fill: rgb(245, 245, 245);" d="M 887.919 591.955 C 863.595 636.596 829.603 688.461 797.293 729.857 L 793.976 727.107 C 826.221 685.964 859.4 634.851 884.217 590.695 L 887.919 591.955 Z" transform="matrix(-1, 0, 0, -1, 1676.512024, 1328.778992)">
      <title>Antenna Outline</title>
    </path>
    <rect x="690.409" y="587.397" width="10.944" height="30.256" style="stroke: rgb(0, 0, 0); stroke-width: 1.107; fill: rgb(52, 52, 52);" rx="5.472" ry="5.472" transform="matrix(-0.81807, -0.575118, -0.575118, 0.81807, 1789.364258, 516.580652)">
      <title>Right Flagellum</title>
    </rect>
    <path style="fill: rgb(245, 245, 245);" d="M 875.461 596.279 L 884.032 601.115 C 880.06 606.998 872.825 601.548 875.461 596.279 Z" transform="matrix(-1, 0, 0, -1, 1758.92865, 1199.940979)">
      <title>Right Flagellum Tip</title>
    </path>
    <path style="stroke: rgb(0, 0, 0); fill: none; stroke-width: 3px;" d="M 796.136 723.703 L 799.545 725.452"/>
    <path style="stroke: rgb(0, 0, 0); fill: none; stroke-width: 3px;" d="M 798.907 719.261 L 802.316 721.01"/>
    <path style="stroke: rgb(0, 0, 0); fill: none; stroke-width: 3px;" d="M 801.209 714.56 L 804.618 716.309"/>
    <path style="stroke: rgb(0, 0, 0); fill: none; stroke-width: 3px;" d="M 804.006 709.887 L 807.415 711.636"/>
    <path style="stroke: rgb(0, 0, 0); fill: none; stroke-width: 3px;" d="M 806.881 705.339 L 810.29 707.088"/>
    <path style="stroke: rgb(0, 0, 0); fill: none; stroke-width: 3px;" d="M 809.553 700.645 L 812.962 702.394"/>
    <path style="stroke: rgb(0, 0, 0); fill: none; stroke-width: 3px;" d="M 812.537 695.863 L 815.946 697.612"/>
    <path style="stroke: rgb(0, 0, 0); fill: none; stroke-width: 3px;" d="M 815.533 690.817 L 818.942 692.566"/>
    <path style="stroke: rgb(0, 0, 0); fill: none; stroke-width: 3px;" d="M 818.663 686.098 L 822.072 687.847"/>
    <path style="stroke: rgb(0, 0, 0); fill: none; stroke-width: 3px;" d="M 821.658 681.229 L 825.067 682.978"/>
    <path style="stroke: rgb(0, 0, 0); fill: none; stroke-width: 3px;" d="M 824.747 676.435 L 828.156 678.184"/>
    <path style="stroke: rgb(0, 0, 0); fill: none; stroke-width: 3px;" d="M 827.909 671.674 L 831.318 673.423" transform="matrix(0.998673, 0.051491, -0.051491, 0.998673, 35.72515, -41.825805)" bx:origin="0.501 0.438"/>
    <path style="stroke: rgb(0, 0, 0); fill: none; stroke-width: 3px;" d="M 830.954 666.899 L 834.363 668.648" transform="matrix(0.998673, 0.051491, -0.051491, 0.998673, 35.48332, -41.988928)" bx:origin="0.501 0.438"/>
    <path style="stroke: rgb(0, 0, 0); fill: none; stroke-width: 3px;" d="M 834.084 662.192 L 837.493 663.941" transform="matrix(0.998673, 0.051491, -0.051491, 0.998673, 35.245104, -42.156339)" bx:origin="0.501 0.438"/>
    <path style="stroke: rgb(0, 0, 0); fill: none; stroke-width: 3px;" d="M 837.35 657.431 L 840.759 659.18" transform="matrix(0.996991, 0.077515, -0.077515, 0.996991, 53.54474, -63.059206)" bx:origin="0.501 0.438"/>
    <path style="stroke: rgb(0, 0, 0); fill: none; stroke-width: 3px;" d="M 840.528 652.681 L 843.937 654.43" transform="matrix(0.996991, 0.077515, -0.077515, 0.996991, 53.186106, -63.319844)" bx:origin="0.501 0.438"/>
    <path style="stroke: rgb(0, 0, 0); fill: none; stroke-width: 3px;" d="M 843.845 647.832 L 847.254 649.581" transform="matrix(0.994252, 0.107063, -0.107063, 0.994252, 74.30123, -86.799802)" bx:origin="0.501 0.438"/>
    <path style="stroke: rgb(0, 0, 0); fill: none; stroke-width: 3px;" d="M 847.163 643.082 L 850.572 644.831" transform="matrix(0.994252, 0.107063, -0.107063, 0.994252, 73.811429, -87.182004)" bx:origin="0.501 0.438"/>
    <path style="stroke: rgb(0, 0, 0); fill: none; stroke-width: 3px;" d="M 850.389 638.514 L 853.798 640.263" transform="matrix(0.994252, 0.107063, -0.107063, 0.994252, 73.340908, -87.55364)" bx:origin="0.501 0.438"/>
    <path style="stroke: rgb(0, 0, 0); fill: none; stroke-width: 3px;" d="M 853.707 633.833 L 857.116 635.582" transform="matrix(0.994252, 0.107063, -0.107063, 0.994252, 72.858818, -87.935782)" bx:origin="0.501 0.438"/>
    <path style="stroke: rgb(0, 0, 0); fill: none; stroke-width: 3px;" d="M 857.095 629.067 L 860.504 630.816" transform="matrix(0.992228, 0.124435, -0.124435, 0.992228, 85.048095, -101.969924)" bx:origin="0.501 0.438"/>
    <path style="stroke: rgb(0, 0, 0); fill: none; stroke-width: 3px;" d="M 860.529 624.434 L 863.938 626.183" transform="matrix(0.992228, 0.124435, -0.124435, 0.992228, 84.498278, -102.433242)" bx:origin="0.501 0.438"/>
    <path style="stroke: rgb(0, 0, 0); fill: none; stroke-width: 3px;" d="M 793.174 728.504 L 796.53 730.102"/>
    <path style="stroke: rgb(0, 0, 0); fill: none; stroke-width: 3px;" d="M 790.682 733.274 L 793.948 734.784"/>
  </g>
  <g transform="matrix(-1.715217, 0, 0, 1.715217, 2163.368652, -544.122253)">
    <title>Bottom Left Wing</title>
    <path style="stroke: rgb(0, 0, 0); fill: url(#gradient-6);" d="M 772.395 1026.516 C 783.07 1070.476 787.163 1109.6 771.4 1119.442 C 766.731 1122.357 762.763 1126.173 759.497 1130.888 C 756.295 1135.511 750.909 1133.89 743.341 1126.023 C 740.36 1122.924 738.608 1126.852 738.087 1137.806 C 737.873 1142.31 733.702 1140.596 725.575 1132.666 C 723.16 1130.309 721.045 1132.939 719.23 1140.554 C 718.45 1143.828 715.232 1142.84 709.578 1137.591 C 702.313 1145.596 695.869 1145.462 690.248 1137.187 C 678.495 1144.809 671.716 1143.959 669.914 1134.635 C 659.075 1136.78 650.228 1133.372 643.372 1124.409 C 631.11 1139.336 623.772 1135.141 621.357 1111.822 C 595.906 1107.856 583.118 1095.433 582.994 1074.554 C 556.463 1061.397 545.759 1046.574 550.883 1030.085 C 532.002 1012.396 528.686 997.841 540.936 986.419 C 543.474 984.053 541.722 981.058 535.68 977.435 C 530.139 974.112 529.802 967.675 534.669 958.124 C 532.461 937.044 534.886 910.887 541.907 885.551 C 555.992 834.721 613.961 809.263 678.9 788.454 C 783.581 754.911 799.371 835 772.395 1026.516 Z">
      <title>Bottom Wing Fill</title>
    </path>
    <path style="fill: rgb(52, 52, 52);" d="M 608.144 1058.77 C 609.119 1071.607 617.384 1079.746 632.938 1083.186 C 634.942 1073.099 634.457 1063.29 631.483 1053.757 C 622.192 1052.094 614.412 1053.765 608.144 1058.77 Z">
      <title>Dark Spot 1</title>
    </path>
    <path style="fill: rgb(52, 52, 52);" d="M 731.488 1076.364 C 718.869 1082.383 711.132 1091.113 708.451 1101.889 C 728.48 1107.018 743.248 1101.929 752.579 1087.286 C 749.895 1079.292 742.865 1075.652 731.488 1076.364 Z">
      <title>Dark Spot 2</title>
    </path>
    <path style="fill: url(#gradient-7);" d="M 622.789 806.591 C 638.413 800.257 660.819 792.219 676.838 788.74 C 706.86 782.249 735.027 801.742 763.651 822.027 C 784.769 889.783 778.831 964.464 770.624 1046.378 C 769.104 1061.549 766.755 1076.519 762.495 1091.289 C 761.144 1095.974 759.878 1091.252 758.697 1077.121 C 758.119 1070.203 754.578 1062.259 746.994 1058.468 C 731.426 1050.686 715.454 1055.977 696.997 1077.971 C 681.655 1037.945 666.667 1028.999 652.033 1051.136 C 648.994 1015.589 638.634 1011.984 620.224 1028.865 C 631.677 1001.469 622.764 973.973 592.889 991.711 C 607.337 972.941 605.423 953.625 592.573 934.433 C 661.652 874.545 715.624 844.596 744.87 845.014 C 775.522 845.452 709.407 808.684 694.141 806.41 C 688.463 805.564 691.144 810.648 702.186 821.636 C 732.398 851.7 690.169 857.471 575.499 838.95 C 587.039 825.537 604.345 817.268 622.789 806.591 Z">
      <title>Wing Interior</title>
    </path>
    <path style="fill: rgb(245, 245, 245);" d="M 690.778 1137.226 C 689.067 1134.224 690.886 1130.832 692.086 1129.048 C 695.366 1124.174 698.719 1123.995 705.404 1123.252 C 708.793 1122.875 711.978 1121.521 714.779 1118.757 C 718.45 1115.134 723.312 1113.254 729.669 1112.509 C 734.409 1111.953 736.245 1111.583 740.847 1107.448 C 741.997 1106.415 745.39 1104.175 747.722 1105.273 C 749.534 1106.127 750.005 1104.571 752.196 1102.874 C 753.642 1101.754 755.2 1102.632 757.901 1102.088 C 771.651 1099.32 762.971 1127.47 758.728 1131.847 C 757.962 1132.638 757.197 1133.31 755.811 1133.391 C 752.969 1133.557 750.328 1132.494 747.888 1130.2 C 746.63 1129.017 745.338 1127.871 744.013 1126.761 C 743.486 1126.319 742.992 1125.841 742.531 1125.325 C 742.101 1124.844 741.457 1124.888 740.6 1125.456 C 740.032 1125.833 739.705 1126.431 739.62 1127.252 C 738.679 1130.048 738.198 1133.15 738.178 1136.56 C 738.171 1137.673 737.96 1138.765 737.542 1139.836 C 736.681 1140.757 734.825 1140.237 731.974 1138.274 C 729.566 1136.616 727.364 1134.693 725.368 1132.505 C 723.922 1131.565 722.827 1131.732 722.084 1133.007 C 720.805 1135.201 719.909 1137.577 719.394 1140.135 C 719.247 1140.867 718.912 1141.536 718.391 1142.139 C 717.011 1142.693 715.462 1142.314 713.745 1141.003 C 712.342 1139.932 710.975 1138.815 709.643 1137.653 C 707.852 1139.573 705.91 1141.146 703.819 1142.371 C 701.983 1143.447 699.872 1143.715 697.486 1143.176 C 695.042 1142.501 692.731 1140.652 690.778 1137.226 Z">
      <title>Wing Edge 1</title>
    </path>
    <path style="fill: rgb(245, 245, 245);" d="M 623.51 1123.633 C 625.334 1116.705 628.956 1111.573 634.373 1108.237 C 637.453 1106.34 641.028 1106.892 645.098 1109.892 C 646.293 1110.773 647.778 1110.742 649.552 1109.797 C 652.277 1108.345 654.731 1110.219 656.914 1115.418 C 657.884 1117.729 659.996 1119.082 663.249 1119.477 C 666.734 1119.9 669.638 1121.873 671.961 1125.396 C 672.896 1126.814 674.538 1127.245 676.889 1126.689 C 679.695 1126.026 682.445 1126.891 685.139 1129.285 C 687.83 1131.676 687.86 1135.276 685.228 1140.085 C 681.904 1141.939 678.628 1142.589 675.399 1142.036 C 672.38 1141.519 670.586 1139.037 670.015 1134.591 C 658.984 1136.603 650.112 1133.227 643.4 1124.465 C 638.52 1130.195 634.503 1133.09 631.351 1133.15 C 627.764 1133.174 625.15 1130.002 623.51 1123.633 Z">
      <title>Wing Edge 2</title>
    </path>
    <path style="fill: rgb(245, 245, 245);" d="M 621.378 1111.683 C 625.819 1108.947 628.649 1106.192 628.971 1103.475 C 629.213 1101.435 627.717 1099.995 624.905 1098.83 C 620.123 1096.849 617.164 1092.716 614.983 1087.005 C 612.602 1080.77 607.07 1075.808 601.025 1073.137 C 598.685 1072.103 596.129 1071.976 593.201 1073.476 C 589.033 1075.612 586.19 1078.084 583.716 1082.61 C 586.906 1098.593 599.434 1108.115 621.378 1111.683 Z">
      <title>Wing Edge 3</title>
    </path>
    <path style="fill: rgb(245, 245, 245);" d="M 583.293 1074.333 C 588.133 1071.359 590.242 1067.564 591.003 1063.189 C 591.888 1058.103 591.09 1052.55 585.773 1048.311 C 581.647 1045.022 576.408 1041.013 575.721 1034.911 C 575.172 1030.032 572.294 1026.034 565.083 1024.897 C 560.063 1024.105 555.611 1026.738 550.864 1030.343 C 545.838 1046.724 557.096 1061.446 583.293 1074.333 Z">
      <title>Wing Edge 4</title>
    </path>
    <path style="fill: rgb(245, 245, 245);" d="M 546.506 1025.774 C 553.699 1024.084 559.108 1021.511 562.731 1018.055 C 566.9 1014.078 565.48 1008.494 558.47 1001.303 C 556.573 999.357 556.4 996.644 557.953 993.165 C 559.49 989.721 558.42 987.481 553.809 984.036 C 552.12 982.774 551.507 980.758 551.968 977.986 C 552.327 975.827 551.268 973.912 548.791 972.241 C 545.113 969.76 540.926 970.974 537.165 978.293 C 539.869 980.083 541.529 981.926 542.143 983.821 C 542.15 985.202 541.084 986.709 538.946 988.34 C 535.04 992.625 533.336 997.793 533.834 1003.844 C 535.914 1012.366 540.138 1019.676 546.506 1025.774 Z">
      <title>Wing Edge 5</title>
    </path>
    <path style="fill: rgb(245, 245, 245);" d="M 531.308 969.841 C 540.047 968.844 545.574 965.202 547.887 958.916 C 551.369 949.453 551.245 939.371 547.515 928.669 C 545.721 923.522 546.341 918.089 549.374 912.37 C 551.907 907.593 553.35 904.784 550.622 898.749 C 549.267 895.75 544.437 893.237 539.213 896.403 C 534.468 916.277 532.966 936.86 534.708 958.152 C 532.621 961.888 531.487 965.784 531.308 969.841 Z">
      <title>Wing Edge 6</title>
    </path>
    <path style="fill: rgb(245, 245, 245);" d="M 540.361 891.858 C 547.305 892.598 553.001 890.066 557.449 884.265 C 562.556 877.605 565.472 869.735 566.197 860.655 C 566.495 856.919 568.907 854.049 573.432 852.047 C 575.687 851.049 578.171 847.753 578.529 844.22 C 579.152 838.075 584.374 834.624 592.524 831.7 C 606.439 826.708 614.988 821.26 623.148 806.541 C 579.316 827.29 549.907 851.985 540.361 891.858 Z">
      <title>Wing Edge 7</title>
    </path>
    <path style="fill: rgb(245, 245, 245);" d="M 769.626 1120.579 C 783.053 1113.569 785.222 1093.003 781.206 1059.267 C 780.559 1053.835 776.406 1053.44 774.459 1071.516 C 773.835 1077.309 774.423 1083.881 774.612 1087.946 C 774.906 1094.27 773.56 1097.67 770.679 1103.741 C 768.238 1108.884 768.436 1114.226 769.626 1120.579 Z">
      <title>Wing Edge 8</title>
    </path>
    <path style="fill: rgb(118, 171, 223);" d="M 681.722 859.17 C 647.429 851.212 617.963 856.008 594.042 875.854 C 600.769 884.723 603.278 901.672 601.831 915.436 C 629.234 901.152 656.466 878.948 681.722 859.17 Z">
      <title>Wing Layer 1</title>
    </path>
    <path style="fill: rgb(118, 171, 223);" d="M 605.116 854.288 C 629.783 850.775 657.953 849.105 682.621 855.091 C 697.992 852.908 714.495 847.896 726.803 842.162 C 692.119 800.923 649.027 807.211 605.116 854.288 Z">
      <title>Wing Layer 2</title>
    </path>
    <path style="fill: rgb(118, 171, 223);" d="M 741.954 853.545 C 740.495 878.026 696.224 926.535 628.578 1009.372 C 628.083 991.532 618.552 982.52 606.723 978.435 C 646.911 929.9 697.791 887.944 741.954 853.545 Z">
      <title>Wing Layer 3</title>
    </path>
    <path style="fill: rgb(118, 171, 223);" d="M 745.916 862.513 C 723.82 887.512 699.508 992.998 699.662 1064.778 C 711.797 1057.305 727.353 1050.75 743.316 1051.417 C 758.083 984.663 758.687 894.715 745.916 862.513 Z">
      <title>Wing Layer 4</title>
    </path>
    <path style="fill: rgb(118, 171, 223);" d="M 725.966 891.32 C 700.626 923.636 656.171 978.304 630.11 1013.47 C 649.867 1017.124 651.437 1027.825 654.568 1041.027 C 683.668 999.541 710.618 931.6 725.966 891.32 Z">
      <title>Wing Layer 5</title>
    </path>
    <path style="fill: rgb(118, 171, 223);" d="M 741.773 849.936 C 717.051 847.456 667.811 875.954 596.213 934.185 C 601.421 943.985 606.094 956.477 607.003 971.284 C 645.188 929.629 692.881 888.933 741.773 849.936 Z">
      <title>Wing Layer 6</title>
    </path>
    <path style="fill: rgb(118, 171, 223);" d="M 720.257 912.323 C 706.458 946.974 689.86 982.272 674.462 1016.446 C 668.437 1029.819 678.726 1043.48 695.736 1060.231 C 700.053 1013.105 708.252 960.381 720.257 912.323 Z">
      <title>Wing Layer 7</title>
    </path>
    <path style="fill: rgb(173, 216, 230);" d="M 586.855 1009.723 C 594.969 1013.252 603.09 1024.585 602.713 1036.357 C 602.383 1046.644 608.672 1046.18 613.429 1032.76 C 623.441 1004.512 608.122 993.338 590.697 998.904 C 583.974 1001.052 578.508 1006.093 586.855 1009.723 Z">
      <title>Wing Chevron 1</title>
    </path>
    <path style="stroke-width: 1.073; fill: rgb(173, 216, 230);" d="M 573.744 959.776 C 577.396 966.212 580.195 973.504 578.503 986.39 C 577.168 996.556 585.18 995.285 590.974 985.827 C 597.03 975.942 595.012 963.185 584.115 955.399 C 577.175 951.247 570.911 954.783 573.744 959.776 Z" transform="matrix(0.996905, -0.078616, 0.078616, 0.996905, -74.691199, 48.900401)">
      <title>Wing Chevron 2</title>
    </path>
    <path style="stroke-width: 0.883; fill: rgb(173, 216, 230);" d="M 696.738 1094.609 C 710.52 1054.11 754.088 1045.355 754.858 1082.263 C 755.011 1089.705 754.208 1092.498 752.101 1094.482 C 740.791 1105.15 709.826 1117.241 701.786 1116.286 C 693.768 1115.333 694.584 1100.94 696.738 1094.609 Z M 713.506 1102.594 C 719.367 1104.643 736.709 1095.759 747.183 1090.205 C 750.889 1088.24 750.775 1083.463 746.209 1081.255 C 729.088 1072.976 723.892 1080.681 713.253 1095.392 C 711.16 1098.286 710.291 1101.472 713.506 1102.594 Z" transform="matrix(0.99862, 0.052519, -0.052519, 0.99862, 58.143131, -36.594257)">
      <title>Wing Bordure 1</title>
    </path>
    <path style="stroke-width: 1.339; fill: rgb(173, 216, 230);" d="M 641.918 1087.808 C 643.874 1098.942 654.409 1114.842 668.039 1122.83 C 670.833 1124.467 672.772 1125.418 677.142 1116.981 C 708.977 1055.516 690.065 1023.383 645.288 1078.364 C 642.602 1081.662 641.5 1083.275 641.918 1087.808 Z" transform="matrix(0.874155, -0.485648, 0.485648, 0.874155, -443.957775, 460.731101)">
      <title>Wing Bordure 2</title>
    </path>
    <path style="stroke-width: 1.339; fill: rgb(173, 216, 230);" d="M 604.907 1053.985 C 638.387 1020.069 647.919 1035.351 639.221 1085.165 C 637.174 1091.349 633.348 1091.969 630.689 1090.987 C 617.456 1086.096 603.843 1070.129 601.849 1061.914 C 601.393 1058.553 602.372 1056.553 604.907 1053.985 Z M 609.837 1062.706 C 614.363 1069.927 621.122 1076.659 628.386 1080.394 C 630.121 1081.286 632.053 1080.321 632.03 1078.462 C 631.757 1056.777 627.744 1055.441 612.487 1058.944 C 610.179 1059.474 608.787 1061.031 609.837 1062.706 Z">
      <title>Wing Bordure 3</title>
    </path>
    <ellipse style="stroke-width: 1.301; fill: rgb(14, 14, 16);" cx="669.543" cy="1091.7" rx="12.84" ry="16.963" transform="matrix(0.999977, 0.006848, 0.34919, 1.002415, -381.638773, -8.16528)">
      <title>Black Spot</title>
    </ellipse>
    <ellipse style="stroke-width: 0.711; fill: rgb(255, 159, 0);" cx="677.054" cy="1061.683" rx="12.444" ry="14.605" transform="matrix(0.341762, -0.939787, 0.77195, 0.803283, -378.403344, 845.876809)">
      <title>Orange Spot</title>
    </ellipse>
    <path style="stroke: rgb(0, 0, 0); fill: none;" d="M 775.748 1032.309 C 786.423 1076.269 787.163 1109.6 771.4 1119.442 C 766.731 1122.357 762.763 1126.173 759.497 1130.888 C 756.295 1135.511 750.909 1133.89 743.341 1126.023 C 740.36 1122.924 738.608 1126.852 738.087 1137.806 C 737.873 1142.31 733.702 1140.596 725.575 1132.666 C 723.16 1130.309 721.045 1132.939 719.23 1140.554 C 718.45 1143.828 715.232 1142.84 709.578 1137.591 C 702.313 1145.596 695.869 1145.462 690.248 1137.187 C 678.495 1144.809 671.716 1143.959 669.914 1134.635 C 659.075 1136.78 650.228 1133.372 643.372 1124.409 C 631.11 1139.336 623.772 1135.141 621.357 1111.822 C 595.906 1107.856 583.118 1095.433 582.994 1074.554 C 556.463 1061.397 545.759 1046.574 550.883 1030.085 C 532.002 1012.396 528.686 997.841 540.936 986.419 C 543.474 984.053 541.722 981.058 535.68 977.435 C 530.139 974.112 529.802 967.675 534.669 958.124 C 532.461 937.044 534.919 910.896 541.907 885.551 C 555.945 834.637 612.603 803.97 680.47 787.962 C 788.213 762.549 803.041 839.729 775.748 1032.309 Z">
      <title>Bottom Wing Outline</title>
    </path>
  </g>
  <g transform="matrix(1.715217, 0, 0, 1.715217, -541.753601, -544.122253)">
    <title>Bottom Left Wing</title>
    <path style="stroke: rgb(0, 0, 0); fill: url(#gradient-2);" d="M 775.748 1032.309 C 786.423 1076.269 787.163 1109.6 771.4 1119.442 C 766.731 1122.357 762.763 1126.173 759.497 1130.888 C 756.295 1135.511 750.909 1133.89 743.341 1126.023 C 740.36 1122.924 738.608 1126.852 738.087 1137.806 C 737.873 1142.31 733.702 1140.596 725.575 1132.666 C 723.16 1130.309 721.045 1132.939 719.23 1140.554 C 718.45 1143.828 715.232 1142.84 709.578 1137.591 C 702.313 1145.596 695.869 1145.462 690.248 1137.187 C 678.495 1144.809 671.716 1143.959 669.914 1134.635 C 659.075 1136.78 650.228 1133.372 643.372 1124.409 C 631.11 1139.336 623.772 1135.141 621.357 1111.822 C 595.906 1107.856 583.118 1095.433 582.994 1074.554 C 556.463 1061.397 545.759 1046.574 550.883 1030.085 C 532.002 1012.396 528.686 997.841 540.936 986.419 C 543.474 984.053 541.722 981.058 535.68 977.435 C 530.139 974.112 529.802 967.675 534.669 958.124 C 532.461 937.044 534.919 910.896 541.907 885.551 C 555.945 834.637 599.354 803.262 667.433 788.182 C 760.599 767.545 791.677 843.453 775.748 1032.309 Z">
      <title>Bottom Wing Fill</title>
    </path>
    <path style="fill: rgb(52, 52, 52);" d="M 608.144 1058.77 C 609.119 1071.607 617.384 1079.746 632.938 1083.186 C 634.942 1073.099 634.457 1063.29 631.483 1053.757 C 622.192 1052.094 614.412 1053.765 608.144 1058.77 Z">
      <title>Dark Spot 1</title>
    </path>
    <path style="fill: rgb(52, 52, 52);" d="M 731.488 1076.364 C 718.869 1082.383 711.132 1091.113 708.451 1101.889 C 728.48 1107.018 743.248 1101.929 752.579 1087.286 C 749.895 1079.292 742.865 1075.652 731.488 1076.364 Z">
      <title>Dark Spot 2</title>
    </path>
    <path style="fill: url(#gradient-4);" d="M 620.475 802.815 C 636.099 796.481 651.919 791.574 667.938 788.095 C 694.86 790.328 722.634 801.588 751.258 821.873 C 772.376 889.629 778.831 964.464 770.624 1046.378 C 769.104 1061.549 766.755 1076.519 762.495 1091.289 C 761.144 1095.974 759.878 1091.252 758.697 1077.121 C 758.119 1070.203 754.578 1062.259 746.994 1058.468 C 731.426 1050.686 715.454 1055.977 696.997 1077.971 C 681.655 1037.945 666.667 1028.999 652.033 1051.136 C 648.994 1015.589 638.634 1011.984 620.224 1028.865 C 631.677 1001.469 622.764 973.973 592.889 991.711 C 607.337 972.941 605.423 953.625 592.573 934.433 C 661.652 874.545 710.33 846.277 739.532 844.616 C 759.735 843.467 704.177 807.89 694.141 806.41 C 688.462 805.573 691.144 810.648 702.186 821.636 C 732.398 851.7 690.169 857.471 575.499 838.95 C 587.039 825.537 602.031 813.492 620.475 802.815 Z">
      <title>Wing Interior</title>
    </path>
    <path style="fill: rgb(245, 245, 245);" d="M 690.778 1137.226 C 689.067 1134.224 690.886 1130.832 692.086 1129.048 C 695.366 1124.174 698.719 1123.995 705.404 1123.252 C 708.793 1122.875 711.978 1121.521 714.779 1118.757 C 718.45 1115.134 723.312 1113.254 729.669 1112.509 C 734.409 1111.953 736.245 1111.583 740.847 1107.448 C 741.997 1106.415 745.39 1104.175 747.722 1105.273 C 749.534 1106.127 750.005 1104.571 752.196 1102.874 C 753.642 1101.754 755.2 1102.632 757.901 1102.088 C 771.651 1099.32 762.971 1127.47 758.728 1131.847 C 757.962 1132.638 757.197 1133.31 755.811 1133.391 C 752.969 1133.557 750.328 1132.494 747.888 1130.2 C 746.63 1129.017 745.338 1127.871 744.013 1126.761 C 743.486 1126.319 742.992 1125.841 742.531 1125.325 C 742.101 1124.844 741.457 1124.888 740.6 1125.456 C 740.032 1125.833 739.705 1126.431 739.62 1127.252 C 738.679 1130.048 738.198 1133.15 738.178 1136.56 C 738.171 1137.673 737.96 1138.765 737.542 1139.836 C 736.681 1140.757 734.825 1140.237 731.974 1138.274 C 729.566 1136.616 727.364 1134.693 725.368 1132.505 C 723.922 1131.565 722.827 1131.732 722.084 1133.007 C 720.805 1135.201 719.909 1137.577 719.394 1140.135 C 719.247 1140.867 718.912 1141.536 718.391 1142.139 C 717.011 1142.693 715.462 1142.314 713.745 1141.003 C 712.342 1139.932 710.975 1138.815 709.643 1137.653 C 707.852 1139.573 705.91 1141.146 703.819 1142.371 C 701.983 1143.447 699.872 1143.715 697.486 1143.176 C 695.042 1142.501 692.731 1140.652 690.778 1137.226 Z">
      <title>Wing Edge 1</title>
    </path>
    <path style="fill: rgb(245, 245, 245);" d="M 623.51 1123.633 C 625.334 1116.705 628.956 1111.573 634.373 1108.237 C 637.453 1106.34 641.028 1106.892 645.098 1109.892 C 646.293 1110.773 647.778 1110.742 649.552 1109.797 C 652.277 1108.345 654.731 1110.219 656.914 1115.418 C 657.884 1117.729 659.996 1119.082 663.249 1119.477 C 666.734 1119.9 669.638 1121.873 671.961 1125.396 C 672.896 1126.814 674.538 1127.245 676.889 1126.689 C 679.695 1126.026 682.445 1126.891 685.139 1129.285 C 687.83 1131.676 687.86 1135.276 685.228 1140.085 C 681.904 1141.939 678.628 1142.589 675.399 1142.036 C 672.38 1141.519 670.586 1139.037 670.015 1134.591 C 658.984 1136.603 650.112 1133.227 643.4 1124.465 C 638.52 1130.195 634.503 1133.09 631.351 1133.15 C 627.764 1133.174 625.15 1130.002 623.51 1123.633 Z">
      <title>Wing Edge 2</title>
    </path>
    <path style="fill: rgb(245, 245, 245);" d="M 621.378 1111.683 C 625.819 1108.947 628.649 1106.192 628.971 1103.475 C 629.213 1101.435 627.717 1099.995 624.905 1098.83 C 620.123 1096.849 617.164 1092.716 614.983 1087.005 C 612.602 1080.77 607.07 1075.808 601.025 1073.137 C 598.685 1072.103 596.129 1071.976 593.201 1073.476 C 589.033 1075.612 586.19 1078.084 583.716 1082.61 C 586.906 1098.593 599.434 1108.115 621.378 1111.683 Z">
      <title>Wing Edge 3</title>
    </path>
    <path style="fill: rgb(245, 245, 245);" d="M 583.293 1074.333 C 588.133 1071.359 590.242 1067.564 591.003 1063.189 C 591.888 1058.103 591.09 1052.55 585.773 1048.311 C 581.647 1045.022 576.408 1041.013 575.721 1034.911 C 575.172 1030.032 572.294 1026.034 565.083 1024.897 C 560.063 1024.105 555.611 1026.738 550.864 1030.343 C 545.838 1046.724 557.096 1061.446 583.293 1074.333 Z">
      <title>Wing Edge 4</title>
    </path>
    <path style="fill: rgb(245, 245, 245);" d="M 546.506 1025.774 C 553.699 1024.084 559.108 1021.511 562.731 1018.055 C 566.9 1014.078 565.48 1008.494 558.47 1001.303 C 556.573 999.357 556.4 996.644 557.953 993.165 C 559.49 989.721 558.42 987.481 553.809 984.036 C 552.12 982.774 551.507 980.758 551.968 977.986 C 552.327 975.827 551.268 973.912 548.791 972.241 C 545.113 969.76 540.926 970.974 537.165 978.293 C 539.869 980.083 541.529 981.926 542.143 983.821 C 542.15 985.202 541.084 986.709 538.946 988.34 C 535.04 992.625 533.336 997.793 533.834 1003.844 C 535.914 1012.366 540.138 1019.676 546.506 1025.774 Z">
      <title>Wing Edge 5</title>
    </path>
    <path style="fill: rgb(245, 245, 245);" d="M 531.308 969.841 C 540.047 968.844 545.574 965.202 547.887 958.916 C 551.369 949.453 551.245 939.371 547.515 928.669 C 545.721 923.522 546.341 918.089 549.374 912.37 C 551.907 907.593 553.35 904.784 550.622 898.749 C 549.267 895.75 544.437 893.237 539.213 896.403 C 534.468 916.277 532.966 936.86 534.708 958.152 C 532.621 961.888 531.487 965.784 531.308 969.841 Z">
      <title>Wing Edge 6</title>
    </path>
    <path style="fill: rgb(245, 245, 245);" d="M 540.361 891.858 C 547.305 892.598 553.001 890.066 557.449 884.265 C 562.556 877.605 565.472 869.735 566.197 860.655 C 566.495 856.919 568.907 854.049 573.432 852.047 C 575.687 851.049 576.656 848.782 576.34 845.245 C 575.811 839.321 579.757 834.871 588.179 831.895 C 602.118 826.969 613.167 817.148 621.327 802.429 C 576.321 821.213 549.332 851.023 540.361 891.858 Z">
      <title>Wing Edge 7</title>
    </path>
    <path style="fill: rgb(245, 245, 245);" d="M 769.626 1120.579 C 783.053 1113.569 785.222 1093.003 781.206 1059.267 C 780.559 1053.835 776.406 1053.44 774.459 1071.516 C 773.835 1077.309 774.423 1083.881 774.612 1087.946 C 774.906 1094.27 773.56 1097.67 770.679 1103.741 C 768.238 1108.884 768.436 1114.226 769.626 1120.579 Z">
      <title>Wing Edge 8</title>
    </path>
    <path style="fill: rgb(118, 171, 223);" d="M 681.722 859.17 C 647.429 851.212 617.963 856.008 594.042 875.854 C 600.769 884.723 603.278 901.672 601.831 915.436 C 629.234 901.152 656.466 878.948 681.722 859.17 Z">
      <title>Wing Layer 1</title>
    </path>
    <path style="fill: rgb(118, 171, 223);" d="M 605.116 854.288 C 629.783 850.775 657.953 849.105 682.621 855.091 C 697.992 852.908 714.495 847.896 726.803 842.162 C 692.119 800.923 649.027 807.211 605.116 854.288 Z">
      <title>Wing Layer 2</title>
    </path>
    <path style="fill: rgb(118, 171, 223);" d="M 736.648 853.579 C 735.189 878.06 696.224 926.535 628.578 1009.372 C 628.083 991.532 618.552 982.52 606.723 978.435 C 646.911 929.9 692.485 887.978 736.648 853.579 Z">
      <title>Wing Layer 3</title>
    </path>
    <path style="fill: rgb(118, 171, 223);" d="M 741.414 861.917 C 719.318 886.916 699.508 992.998 699.662 1064.778 C 711.797 1057.305 727.353 1050.75 743.316 1051.417 C 747.266 982.842 748.64 893.186 741.414 861.917 Z">
      <title>Wing Layer 4</title>
    </path>
    <path style="fill: rgb(118, 171, 223);" d="M 723.396 892.998 C 698.056 925.314 656.171 978.304 630.11 1013.47 C 649.867 1017.124 651.437 1027.825 654.568 1041.027 C 683.668 999.541 708.048 933.278 723.396 892.998 Z">
      <title>Wing Layer 5</title>
    </path>
    <path style="fill: rgb(118, 171, 223);" d="M 739.067 847.69 C 714.345 845.21 667.811 875.954 596.213 934.185 C 601.421 943.985 606.094 956.477 607.003 971.284 C 645.188 929.629 690.175 886.687 739.067 847.69 Z">
      <title>Wing Layer 6</title>
    </path>
    <path style="fill: rgb(118, 171, 223);" d="M 718.205 912.481 C 704.406 947.132 689.86 982.272 674.462 1016.446 C 668.437 1029.819 678.726 1043.48 695.736 1060.231 C 700.053 1013.105 706.2 960.539 718.205 912.481 Z">
      <title>Wing Layer 7</title>
    </path>
    <path style="fill: rgb(173, 216, 230);" d="M 586.855 1009.723 C 594.969 1013.252 603.09 1024.585 602.713 1036.357 C 602.383 1046.644 608.672 1046.18 613.429 1032.76 C 623.441 1004.512 608.122 993.338 590.697 998.904 C 583.974 1001.052 578.508 1006.093 586.855 1009.723 Z">
      <title>Wing Chevron 1</title>
    </path>
    <path style="stroke-width: 1.073; fill: rgb(173, 216, 230);" d="M 573.744 959.776 C 577.396 966.212 580.195 973.504 578.503 986.39 C 577.168 996.556 585.18 995.285 590.974 985.827 C 597.03 975.942 595.012 963.185 584.115 955.399 C 577.175 951.247 570.911 954.783 573.744 959.776 Z" transform="matrix(0.996905, -0.078616, 0.078616, 0.996905, -74.691199, 48.900401)">
      <title>Wing Chevron 2</title>
    </path>
    <path style="stroke-width: 0.883; fill: rgb(173, 216, 230);" d="M 696.738 1094.609 C 710.52 1054.11 754.088 1045.355 754.858 1082.263 C 755.011 1089.705 754.208 1092.498 752.101 1094.482 C 740.791 1105.15 709.826 1117.241 701.786 1116.286 C 693.768 1115.333 694.584 1100.94 696.738 1094.609 Z M 713.506 1102.594 C 719.367 1104.643 737.879 1095.697 748.353 1090.143 C 752.059 1088.178 751.945 1083.401 747.379 1081.193 C 730.258 1072.914 723.892 1080.681 713.253 1095.392 C 711.16 1098.286 710.291 1101.472 713.506 1102.594 Z" transform="matrix(0.99862, 0.052519, -0.052519, 0.99862, 58.143131, -36.594257)">
      <title>Wing Bordure 1</title>
    </path>
    <path style="stroke-width: 1.339; fill: rgb(173, 216, 230);" d="M 641.918 1087.808 C 643.874 1098.942 654.409 1114.842 668.039 1122.83 C 670.833 1124.467 672.772 1125.418 677.142 1116.981 C 708.977 1055.516 690.065 1023.383 645.288 1078.364 C 642.602 1081.662 641.5 1083.275 641.918 1087.808 Z" transform="matrix(0.874155, -0.485648, 0.485648, 0.874155, -443.957775, 460.731101)">
      <title>Wing Bordure 2</title>
    </path>
    <path style="stroke-width: 1.339; fill: rgb(173, 216, 230);" d="M 604.907 1053.985 C 638.387 1020.069 647.919 1035.351 639.221 1085.165 C 637.174 1091.349 633.348 1091.969 630.689 1090.987 C 617.456 1086.096 603.843 1070.129 601.849 1061.914 C 601.393 1058.553 602.372 1056.553 604.907 1053.985 Z M 609.837 1062.706 C 614.363 1069.927 621.122 1076.659 628.386 1080.394 C 630.121 1081.286 632.053 1080.321 632.03 1078.462 C 631.757 1056.777 627.744 1055.441 612.487 1058.944 C 610.179 1059.474 608.787 1061.031 609.837 1062.706 Z">
      <title>Wing Bordure 3</title>
    </path>
    <ellipse style="stroke-width: 1.301; fill: rgb(14, 14, 16);" cx="669.543" cy="1091.7" rx="12.84" ry="16.963" transform="matrix(0.999977, 0.006848, 0.34919, 1.002415, -381.638773, -8.16528)">
      <title>Black Spot</title>
    </ellipse>
    <ellipse style="stroke-width: 0.711; fill: rgb(255, 159, 0);" cx="677.054" cy="1061.683" rx="12.444" ry="14.605" transform="matrix(0.341762, -0.939787, 0.77195, 0.803283, -378.403344, 845.876809)">
      <title>Orange Spot</title>
    </ellipse>
    <path style="stroke: rgb(0, 0, 0); fill: none;" d="M 775.748 1032.309 C 786.423 1076.269 787.163 1109.6 771.4 1119.442 C 766.731 1122.357 762.763 1126.173 759.497 1130.888 C 756.295 1135.511 750.909 1133.89 743.341 1126.023 C 740.36 1122.924 738.608 1126.852 738.087 1137.806 C 737.873 1142.31 733.702 1140.596 725.575 1132.666 C 723.16 1130.309 721.045 1132.939 719.23 1140.554 C 718.45 1143.828 715.232 1142.84 709.578 1137.591 C 702.313 1145.596 695.869 1145.462 690.248 1137.187 C 678.495 1144.809 671.716 1143.959 669.914 1134.635 C 659.075 1136.78 650.228 1133.372 643.372 1124.409 C 631.11 1139.336 623.772 1135.141 621.357 1111.822 C 595.906 1107.856 583.118 1095.433 582.994 1074.554 C 556.463 1061.397 545.759 1046.574 550.883 1030.085 C 532.002 1012.396 528.686 997.841 540.936 986.419 C 543.474 984.053 541.722 981.058 535.68 977.435 C 530.139 974.112 529.802 967.675 534.669 958.124 C 532.461 937.044 534.919 910.896 541.907 885.551 C 555.945 834.637 599.354 803.262 667.433 788.182 C 760.599 767.545 791.677 843.453 775.748 1032.309 Z">
      <title>Bottom Wing Outline</title>
    </path>
  </g>
  <g transform="matrix(-1.715217, 0, 0, 1.715217, 2141.753662, -544.122253)">
    <title>Top Left Wing</title>
    <path style="stroke: rgb(0, 0, 0); fill: url(#gradient-8);" d="M 747.418 758.732 C 713.48 665.422 635.437 552.705 499.493 426.318 C 492.255 419.624 479.925 427.521 475.777 435.257 C 472.646 441.097 477.309 447.211 475.198 452.656 C 473.725 456.455 469.538 459.991 470.49 463.812 C 472.801 473.087 473.425 481.521 467.438 491.386 C 459.363 502.949 465.898 508.251 467.691 514.421 C 469.464 520.521 459.506 526.061 477.777 533.624 C 473.417 544.728 475.157 555.974 482.997 567.36 C 491.805 586.741 494.576 604.961 492.923 622.822 C 494.38 645.334 502.284 664.359 516.634 679.896 C 509.664 689.898 511.252 698.054 522.756 702.787 C 534.328 717.818 534.207 734.383 539.151 743.148 C 546.308 755.836 556.403 764.231 564.691 775.239 C 574.986 788.913 602.381 781.923 609.497 786.911 C 621.347 795.217 625.105 796.061 632.033 793.161 C 672.122 776.379 726.997 802.248 760.465 828.89 C 779.858 844.327 765.305 807.911 747.418 758.732 Z">
      <title>Top Wing Fill</title>
    </path>
    <path style="fill: url(#gradient-9);" d="M 676.758 626.195 C 708.343 671.525 731.927 715.774 747.51 758.944 C 748.39 767.801 749.144 788.644 751.154 821.582 C 715.834 797.919 685.029 786.733 658.738 788.023 C 629.807 789.443 602.069 781.102 575.522 763.002 C 573.456 761.594 572.258 759.4 571.926 756.42 C 571.638 753.831 573.672 752.205 578.03 751.542 C 587.2 750.147 596.474 749.934 605.85 750.903 C 617.242 752.08 605.893 750.535 571.801 746.267 C 566.91 745.655 563.567 742.031 561.774 735.397 C 561.211 733.314 559.845 731.643 557.676 730.385 C 555.776 729.283 554.476 727.512 553.776 725.073 C 552.673 721.229 552.191 717.26 552.33 713.164 C 552.43 710.223 551.242 707.531 548.766 705.087 C 546.8 703.146 546.218 700.445 547.02 696.984 C 547.322 695.682 547.036 694.376 546.164 693.067 C 545.203 691.625 545.665 689.955 547.548 688.057 C 551.62 683.952 557.388 683.551 564.852 686.853 C 573.211 690.551 566.211 684.673 543.853 669.22 C 539.547 666.244 535.993 662.401 533.19 657.692 C 531.412 654.706 531.32 651.231 532.914 647.269 C 535.959 639.7 544.064 640.639 557.228 650.086 C 564.568 655.354 560.9 647.084 546.223 625.277 C 543.039 620.546 538.35 617.302 532.155 615.543 C 526.776 614.016 522.732 610.153 520.025 603.954 C 519.143 601.934 520.09 599.945 522.866 597.984 C 525.15 596.37 527.677 597.571 530.444 601.586 C 532.725 604.895 536.73 605.226 542.46 602.578 C 547.049 600.457 546.665 595.417 541.309 587.457 C 530.166 570.896 546.942 581.712 591.637 619.905 C 600.693 627.644 595.609 616.871 576.384 587.588 C 570.962 579.329 564.072 572.247 555.715 566.343 C 546.445 559.794 538.262 551.928 531.166 542.746 C 529.784 540.958 527.146 536.551 527.985 533.852 C 528.907 530.886 533.004 531.368 538.24 535.155 C 552.882 545.745 568.643 559.393 582.359 571.209 C 611.778 596.553 638.242 624.396 662.219 655.443 C 665.968 660.298 654.287 645.167 649.09 628.131 C 647.998 624.552 640.602 610.624 638.12 606.97 C 633.445 600.086 617.911 577.526 616.51 575.688 C 613.128 571.251 600.198 553.915 596.072 549.81 C 586.102 539.89 581.624 531.962 578.436 527.468 C 573.174 520.05 568.342 514.157 564.183 505.752 C 563.109 503.581 562.715 501.192 563.002 498.584 C 563.467 494.356 584.387 518.227 589.386 526.048 C 590.54 527.854 599.785 538.71 601.645 539.952 C 606.071 542.907 617.789 558.674 620.631 561.464 C 625.649 566.39 636.349 579.743 640.361 585.6 C 646.619 594.736 667.632 619.634 676.758 626.195 Z">
      <title>Wing Interior</title>
    </path>
    <path style="fill: rgb(118, 171, 223);" d="M 571.874 562.345 C 618.195 610.456 662.24 659.866 705.21 714.093 C 706.92 716.251 710.579 718.474 713.891 718.548 C 677.195 647.704 616.297 589.284 571.874 562.345 Z">
      <title>Wing Layer 1</title>
    </path>
    <path style="fill: rgb(118, 171, 223);" d="M 547.654 536.872 C 563.012 549.483 619.902 593.58 635.816 609.847 C 650.055 624.403 605.262 565.351 570.617 525.501 C 566.847 521.165 551.2 529.294 547.654 536.872 Z">
      <title>Wing Layer 2</title>
    </path>
    <path style="fill: rgb(118, 171, 223);" d="M 681.761 716.191 C 640.539 700.857 602.101 698.367 563.606 687.09 C 557.731 685.369 542.153 639.212 551.861 641.749 C 593.993 652.76 638.063 678.704 681.761 716.191 Z">
      <title>Wing Layer 3</title>
    </path>
    <path style="fill: rgb(118, 171, 223);" d="M 563.125 691.969 C 578.107 692.823 677.14 710.652 694.127 727.679 C 707.946 741.531 732.924 773.057 743.629 789.696 C 734.9 788.31 717.588 782.44 708.606 779.628 C 692.612 774.621 676.491 768.049 660.879 761.894 C 638.595 753.109 614.501 751.603 589.707 751.517 C 586.008 751.504 581.295 743.142 579.721 738.51 C 577.438 731.791 555.738 691.548 563.125 691.969 Z">
      <title>Wing Layer 4</title>
    </path>
    <path style="fill: rgb(118, 171, 223);" d="M 747.595 815.913 C 713.471 793.013 681.658 784.185 653.719 785.001 C 635.736 785.526 624.201 783.309 607.291 774.3 C 599.944 770.386 593.35 765.295 589.089 757.289 C 587.872 755.003 590.212 753.893 596.11 753.961 C 625.198 754.296 653.618 760.508 681.369 772.595 C 692.364 777.384 703.696 781.311 715.364 784.376 C 725.898 787.143 733.329 789.678 743.854 792.478 C 744.924 802.293 745.676 806.179 747.595 815.913 Z">
      <title>Wing Layer 5</title>
    </path>
    <path style="fill: rgb(118, 171, 223);" d="M 741.913 784.097 C 724.676 757.264 704.828 733.551 682.37 712.958 C 646.333 679.913 604.444 654.694 556.705 637.3 C 552.202 635.659 548.721 632.366 546.26 627.421 C 542.166 619.195 540.441 610.229 540.215 600.528 C 540.17 598.615 540.219 595.925 545.278 598.287 C 550.878 600.902 557.032 603.549 561.92 607.903 C 578.006 622.231 596.487 633.319 614.715 645.043 C 649.038 667.119 678.993 696.537 707.6 726.437 C 722.946 745.031 734.508 763.257 741.913 784.097 Z">
      <title>Wing Layer 6</title>
    </path>
    <path style="fill: rgb(118, 171, 223);" d="M 708.503 723.928 C 677.913 691.319 641.174 659.004 607.358 637.119 C 592.5 627.503 578.353 616.845 564.523 605.745 C 556.904 599.63 549.622 594.26 540.918 589.636 C 538.348 588.271 536.412 586.099 535.108 583.12 C 533.01 578.327 532.644 575.838 532.783 570.021 C 532.874 566.223 533.276 561.831 533.071 558.89 C 532.505 550.779 538.152 554.883 554.609 570.344 C 605.225 617.897 670.957 663.21 708.503 723.928 Z">
      <title>Wing Layer 7</title>
    </path>
    <path style="fill: rgb(245, 245, 245);" d="M 504.28 430.697 C 494.062 432.643 490.672 435.592 490.107 443.43 C 489.873 446.676 490.587 449.222 492.696 452.029 C 494.296 454.159 494.024 457.096 490.49 459.93 C 485.474 463.952 479.046 463.846 471.204 459.612 C 475.356 454.214 476.697 449.224 475.225 444.644 C 473.752 440.062 475.059 435.431 479.143 430.749 C 481.985 427.491 485.712 425.299 490.325 424.175 C 494.298 422.862 499.089 425.181 504.28 430.697 Z">
      <title>Wing Edge 1</title>
    </path>
    <path style="fill: rgb(245, 245, 245);" d="M 465.223 508.385 C 474.672 513.363 481.852 512.128 486.762 504.679 C 487.766 503.156 487.521 501.348 486.026 499.255 C 485.362 498.326 485.75 497.251 487.19 496.032 C 488.09 495.271 487.739 494.28 486.658 492.428 C 484.915 489.443 484.822 487.465 488.49 483.665 C 489.747 482.363 489.775 480.553 488.575 478.236 C 485.157 471.636 479.08 466.46 470.618 464.124 C 472.034 469.523 472.46 475.601 471.623 480.944 C 471.022 484.783 469.557 488.382 467.23 491.741 C 465.496 494.245 464.293 497.043 463.623 500.136 C 463.213 503.01 463.746 505.76 465.223 508.385 Z">
      <title>Wing Edge 2</title>
    </path>
    <path style="fill: rgb(245, 245, 245);" d="M 467.9 516.866 C 475.045 515.128 481.228 517.936 486.45 525.29 C 492.845 534.295 495.897 544.91 495.607 557.134 C 495.479 562.548 490.612 564.924 481.007 564.262 C 474.883 553.831 473.805 543.624 477.776 533.641 C 470.399 530.604 466.669 527.35 466.587 523.88 C 466.739 521.611 467.176 519.273 467.9 516.866 Z">
      <title>Wing Edge 3</title>
    </path>
    <path style="fill: rgb(245, 245, 245);" d="M 493.115 621.036 C 506.108 614.731 512.294 606.674 511.674 596.865 C 511.178 589.02 508.043 581.812 502.268 575.241 C 498.011 570.397 491.887 568.374 483.897 569.173 C 491.512 586.61 494.584 603.898 493.115 621.036 Z">
      <title>Wing Edge 4</title>
    </path>
    <path style="fill: rgb(245, 245, 245);" d="M 516.577 679.805 C 526.117 677.915 529.335 671.133 526.233 659.459 C 525.174 655.474 522.694 652.179 518.794 649.576 C 517.03 648.399 516.993 646.279 518.68 643.216 C 520.683 639.579 518.489 636.435 514.391 631.52 C 510.035 626.295 501.72 624.668 493.173 625.332 C 495.313 646.843 503.115 665.001 516.577 679.805 Z">
      <title>Wing Edge 5</title>
    </path>
    <path style="fill: rgb(245, 245, 245);" d="M 546.394 753.574 C 557.251 748.557 562.318 743.312 557.971 738.078 C 554.632 734.057 551.408 729.509 549.857 723.699 C 545.976 709.158 541.935 699.087 533.866 689.221 C 529.396 683.756 522.569 682.629 512.695 687.895 C 511.288 694.188 514.849 699.785 522.79 702.803 C 528.167 709.691 532.127 718.743 534.669 729.957 C 536.921 739.893 540.438 747.263 546.394 753.574 Z">
      <title>Wing Edge 6</title>
    </path>
    <path style="fill: rgb(245, 245, 245);" d="M 550.017 758.156 C 553.485 752.42 558.304 750.842 562.929 752.936 C 567.456 754.986 569.89 758.583 571.679 764.126 C 572.408 766.386 574.5 767.511 577.953 767.5 C 581.534 767.489 585.02 768.312 588.409 769.97 C 592.195 771.822 595.043 773.585 599.664 772.343 C 605.455 770.787 611.143 772.684 616.728 778.035 C 620.201 781.363 626.2 781.162 632.013 780.347 C 639.766 779.26 652.328 781.46 659.305 787.856 C 653.151 788.529 641.778 789.555 636.224 791.622 C 631.676 793.812 626.345 795.203 622.098 794.153 C 617.633 792.78 614.474 790.475 610.111 787.284 C 608.189 785.878 605.928 785.13 603.328 785.041 C 596.575 784.81 589.831 784.396 583.096 783.8 C 579.618 783.492 576.224 782.671 572.915 781.335 C 569.447 779.935 566.504 777.626 564.087 774.409 C 559.691 768.936 555.001 763.518 550.017 758.156 Z">
      <title>Wing Edge 7</title>
    </path>
    <path style="stroke: rgb(0, 0, 0); fill: none;" d="M 747.418 758.732 C 713.48 665.422 635.437 552.705 499.493 426.318 C 492.255 419.624 479.925 427.521 475.777 435.257 C 472.646 441.097 477.309 447.211 475.198 452.656 C 473.725 456.455 469.538 459.991 470.49 463.812 C 472.801 473.087 473.425 481.521 467.438 491.386 C 459.363 502.949 465.898 508.251 467.691 514.421 C 469.464 520.521 459.506 526.061 477.777 533.624 C 473.417 544.728 475.157 555.974 482.997 567.36 C 491.805 586.741 494.576 604.961 492.923 622.822 C 494.38 645.334 502.284 664.359 516.634 679.896 C 509.664 689.898 511.252 698.054 522.756 702.787 C 534.328 717.818 534.207 734.383 539.151 743.148 C 546.308 755.836 556.403 764.231 564.691 775.239 C 574.986 788.913 602.381 781.923 609.497 786.911 C 621.347 795.217 625.714 795.938 632.642 793.038 C 672.731 776.256 726.997 802.248 760.465 828.89 C 779.858 844.327 765.305 807.911 747.418 758.732 Z">
      <title>Top Wing Outline</title>
    </path>
  </g>
  <g transform="matrix(1.715217, 0, 0, 1.715217, -541.753601, -544.122253)">
    <title>Top Left Wing</title>
    <path style="stroke: rgb(0, 0, 0); fill: url(#gradient-1);" d="M 747.418 758.732 C 713.48 665.422 635.437 552.705 499.493 426.318 C 492.255 419.624 479.925 427.521 475.777 435.257 C 472.646 441.097 477.309 447.211 475.198 452.656 C 473.725 456.455 469.538 459.991 470.49 463.812 C 472.801 473.087 473.425 481.521 467.438 491.386 C 459.363 502.949 465.898 508.251 467.691 514.421 C 469.464 520.521 459.506 526.061 477.777 533.624 C 473.417 544.728 475.157 555.974 482.997 567.36 C 491.805 586.741 494.576 604.961 492.923 622.822 C 494.38 645.334 502.284 664.359 516.634 679.896 C 509.664 689.898 511.252 698.054 522.756 702.787 C 534.328 717.818 534.207 734.383 539.151 743.148 C 546.308 755.836 556.403 764.231 564.691 775.239 C 574.986 788.913 602.381 781.923 609.497 786.911 C 621.347 795.217 627.502 796.169 634.43 793.269 C 674.519 776.487 726.997 802.248 760.465 828.89 C 779.858 844.327 765.305 807.911 747.418 758.732 Z">
      <title>Top Wing Fill</title>
    </path>
    <path style="fill: url(#gradient-3);" d="M 676.758 626.195 C 708.343 671.525 731.927 715.774 747.51 758.944 C 744.147 767.47 745.362 788.349 751.154 821.582 C 715.834 797.919 685.029 786.733 658.738 788.023 C 629.807 789.443 602.069 781.102 575.522 763.002 C 573.456 761.594 572.258 759.4 571.926 756.42 C 571.638 753.831 573.672 752.205 578.03 751.542 C 587.2 750.147 596.474 749.934 605.85 750.903 C 617.242 752.08 605.893 750.535 571.801 746.267 C 566.91 745.655 563.567 742.031 561.774 735.397 C 561.211 733.314 559.845 731.643 557.676 730.385 C 555.776 729.283 554.476 727.512 553.776 725.073 C 552.673 721.229 552.191 717.26 552.33 713.164 C 552.43 710.223 551.242 707.531 548.766 705.087 C 546.8 703.146 546.218 700.445 547.02 696.984 C 547.322 695.682 547.036 694.376 546.164 693.067 C 545.203 691.625 545.665 689.955 547.548 688.057 C 551.62 683.952 557.388 683.551 564.852 686.853 C 573.211 690.551 566.211 684.673 543.853 669.22 C 539.547 666.244 535.993 662.401 533.19 657.692 C 531.412 654.706 531.32 651.231 532.914 647.269 C 535.959 639.7 544.064 640.639 557.228 650.086 C 564.568 655.354 560.9 647.084 546.223 625.277 C 543.039 620.546 538.35 617.302 532.155 615.543 C 526.776 614.016 522.732 610.153 520.025 603.954 C 519.143 601.934 520.09 599.945 522.866 597.984 C 525.15 596.37 527.677 597.571 530.444 601.586 C 532.725 604.895 536.73 605.226 542.46 602.578 C 547.049 600.457 546.665 595.417 541.309 587.457 C 530.166 570.896 546.942 581.712 591.637 619.905 C 600.693 627.644 595.609 616.871 576.384 587.588 C 570.962 579.329 564.072 572.247 555.715 566.343 C 546.445 559.794 538.262 551.928 531.166 542.746 C 529.784 540.958 527.146 536.551 527.985 533.852 C 528.907 530.886 533.004 531.368 538.24 535.155 C 552.882 545.745 568.643 559.393 582.359 571.209 C 611.778 596.553 638.242 624.396 662.219 655.443 C 665.968 660.298 654.287 645.167 649.09 628.131 C 647.998 624.552 640.602 610.624 638.12 606.97 C 633.445 600.086 617.911 577.526 616.51 575.688 C 613.128 571.251 600.198 553.915 596.072 549.81 C 586.102 539.89 581.624 531.962 578.436 527.468 C 573.174 520.05 568.342 514.157 564.183 505.752 C 563.109 503.581 562.715 501.192 563.002 498.584 C 563.467 494.356 584.387 518.227 589.386 526.048 C 590.54 527.854 599.785 538.71 601.645 539.952 C 606.071 542.907 617.789 558.674 620.631 561.464 C 625.649 566.39 636.349 579.743 640.361 585.6 C 646.619 594.736 667.632 619.634 676.758 626.195 Z">
      <title>Wing Interior</title>
    </path>
    <path style="fill: rgb(118, 171, 223);" d="M 571.874 562.345 C 618.195 610.456 662.24 659.866 705.21 714.093 C 706.92 716.251 710.579 718.474 713.891 718.548 C 677.195 647.704 616.297 589.284 571.874 562.345 Z">
      <title>Wing Layer 1</title>
    </path>
    <path style="fill: rgb(118, 171, 223);" d="M 547.654 536.872 C 563.012 549.483 619.902 593.58 635.816 609.847 C 650.055 624.403 605.262 565.351 570.617 525.501 C 566.847 521.165 551.2 529.294 547.654 536.872 Z">
      <title>Wing Layer 2</title>
    </path>
    <path style="fill: rgb(118, 171, 223);" d="M 681.761 716.191 C 640.539 700.857 602.101 698.367 563.606 687.09 C 557.731 685.369 542.153 639.212 551.861 641.749 C 593.993 652.76 638.063 678.704 681.761 716.191 Z">
      <title>Wing Layer 3</title>
    </path>
    <path style="fill: rgb(118, 171, 223);" d="M 563.125 691.969 C 578.107 692.823 677.14 710.652 694.127 727.679 C 707.946 741.531 732.924 773.057 743.629 789.696 C 734.9 788.31 717.588 782.44 708.606 779.628 C 692.612 774.621 676.491 768.049 660.879 761.894 C 638.595 753.109 614.501 751.603 589.707 751.517 C 586.008 751.504 581.295 743.142 579.721 738.51 C 577.438 731.791 555.738 691.548 563.125 691.969 Z">
      <title>Wing Layer 4</title>
    </path>
    <path style="fill: rgb(118, 171, 223);" d="M 747.595 815.913 C 713.471 793.013 681.658 784.185 653.719 785.001 C 635.736 785.526 624.201 783.309 607.291 774.3 C 599.944 770.386 593.35 765.295 589.089 757.289 C 587.872 755.003 590.212 753.893 596.11 753.961 C 625.198 754.296 653.618 760.508 681.369 772.595 C 692.364 777.384 703.696 781.311 715.364 784.376 C 725.898 787.143 733.329 789.678 743.854 792.478 C 744.924 802.293 745.676 806.179 747.595 815.913 Z">
      <title>Wing Layer 5</title>
    </path>
    <path style="fill: rgb(118, 171, 223);" d="M 741.913 784.097 C 724.676 757.264 704.828 733.551 682.37 712.958 C 646.333 679.913 604.444 654.694 556.705 637.3 C 552.202 635.659 548.721 632.366 546.26 627.421 C 542.166 619.195 540.441 610.229 540.215 600.528 C 540.17 598.615 540.219 595.925 545.278 598.287 C 550.878 600.902 557.032 603.549 561.92 607.903 C 578.006 622.231 596.487 633.319 614.715 645.043 C 649.038 667.119 678.993 696.537 707.6 726.437 C 722.946 745.031 734.508 763.257 741.913 784.097 Z">
      <title>Wing Layer 6</title>
    </path>
    <path style="fill: rgb(118, 171, 223);" d="M 708.503 723.928 C 677.913 691.319 641.174 659.004 607.358 637.119 C 592.5 627.503 578.353 616.845 564.523 605.745 C 556.904 599.63 549.622 594.26 540.918 589.636 C 538.348 588.271 536.412 586.099 535.108 583.12 C 533.01 578.327 532.644 575.838 532.783 570.021 C 532.874 566.223 533.276 561.831 533.071 558.89 C 532.505 550.779 538.152 554.883 554.609 570.344 C 605.225 617.897 670.957 663.21 708.503 723.928 Z">
      <title>Wing Layer 7</title>
    </path>
    <path style="fill: rgb(245, 245, 245);" d="M 504.28 430.697 C 494.062 432.643 490.672 435.592 490.107 443.43 C 489.873 446.676 490.587 449.222 492.696 452.029 C 494.296 454.159 494.024 457.096 490.49 459.93 C 485.474 463.952 479.046 463.846 471.204 459.612 C 475.356 454.214 476.697 449.224 475.225 444.644 C 473.752 440.062 475.059 435.431 479.143 430.749 C 481.985 427.491 485.712 425.299 490.325 424.175 C 494.298 422.862 499.089 425.181 504.28 430.697 Z">
      <title>Wing Edge 1</title>
    </path>
    <path style="fill: rgb(245, 245, 245);" d="M 465.223 508.385 C 474.672 513.363 481.852 512.128 486.762 504.679 C 487.766 503.156 487.521 501.348 486.026 499.255 C 485.362 498.326 485.75 497.251 487.19 496.032 C 488.09 495.271 487.739 494.28 486.658 492.428 C 484.915 489.443 484.822 487.465 488.49 483.665 C 489.747 482.363 489.775 480.553 488.575 478.236 C 485.157 471.636 479.08 466.46 470.618 464.124 C 472.034 469.523 472.46 475.601 471.623 480.944 C 471.022 484.783 469.557 488.382 467.23 491.741 C 465.496 494.245 464.293 497.043 463.623 500.136 C 463.213 503.01 463.746 505.76 465.223 508.385 Z">
      <title>Wing Edge 2</title>
    </path>
    <path style="fill: rgb(245, 245, 245);" d="M 467.9 516.866 C 475.045 515.128 481.228 517.936 486.45 525.29 C 492.845 534.295 495.897 544.91 495.607 557.134 C 495.479 562.548 490.612 564.924 481.007 564.262 C 474.883 553.831 473.805 543.624 477.776 533.641 C 470.399 530.604 466.669 527.35 466.587 523.88 C 466.739 521.611 467.176 519.273 467.9 516.866 Z">
      <title>Wing Edge 3</title>
    </path>
    <path style="fill: rgb(245, 245, 245);" d="M 493.115 621.036 C 506.108 614.731 512.294 606.674 511.674 596.865 C 511.178 589.02 508.043 581.812 502.268 575.241 C 498.011 570.397 491.887 568.374 483.897 569.173 C 491.512 586.61 494.584 603.898 493.115 621.036 Z">
      <title>Wing Edge 4</title>
    </path>
    <path style="fill: rgb(245, 245, 245);" d="M 516.577 679.805 C 526.117 677.915 529.335 671.133 526.233 659.459 C 525.174 655.474 522.694 652.179 518.794 649.576 C 517.03 648.399 516.993 646.279 518.68 643.216 C 520.683 639.579 518.489 636.435 514.391 631.52 C 510.035 626.295 501.72 624.668 493.173 625.332 C 495.313 646.843 503.115 665.001 516.577 679.805 Z">
      <title>Wing Edge 5</title>
    </path>
    <path style="fill: rgb(245, 245, 245);" d="M 546.394 753.574 C 557.251 748.557 562.318 743.312 557.971 738.078 C 554.632 734.057 551.408 729.509 549.857 723.699 C 545.976 709.158 541.935 699.087 533.866 689.221 C 529.396 683.756 522.569 682.629 512.695 687.895 C 511.288 694.188 514.849 699.785 522.79 702.803 C 528.167 709.691 532.127 718.743 534.669 729.957 C 536.921 739.893 540.438 747.263 546.394 753.574 Z">
      <title>Wing Edge 6</title>
    </path>
    <path style="fill: rgb(245, 245, 245);" d="M 550.017 758.156 C 553.485 752.42 558.304 750.842 562.929 752.936 C 567.456 754.986 569.89 758.583 571.679 764.126 C 572.408 766.386 574.5 767.511 577.953 767.5 C 581.534 767.489 585.02 768.312 588.409 769.97 C 592.195 771.822 595.043 773.585 599.664 772.343 C 605.455 770.787 611.143 772.684 616.728 778.035 C 620.201 781.363 626.2 781.162 632.013 780.347 C 639.766 779.26 652.328 781.46 659.305 787.856 C 653.151 788.529 642.1 790.353 636.546 792.42 C 631.998 794.61 627.6 795.18 623.353 794.13 C 618.888 792.757 614.474 790.475 610.111 787.284 C 608.189 785.878 605.928 785.13 603.328 785.041 C 596.575 784.81 589.831 784.396 583.096 783.8 C 579.618 783.492 576.224 782.671 572.915 781.335 C 569.447 779.935 566.504 777.626 564.087 774.409 C 559.691 768.936 555.001 763.518 550.017 758.156 Z">
      <title>Wing Edge 7</title>
    </path>
    <path style="stroke: rgb(0, 0, 0); fill: none;" d="M 747.418 758.732 C 713.48 665.422 635.437 552.705 499.493 426.318 C 492.255 419.624 479.925 427.521 475.777 435.257 C 472.646 441.097 477.309 447.211 475.198 452.656 C 473.725 456.455 469.538 459.991 470.49 463.812 C 472.801 473.087 473.425 481.521 467.438 491.386 C 459.363 502.949 465.898 508.251 467.691 514.421 C 469.464 520.521 459.506 526.061 477.777 533.624 C 473.417 544.728 475.157 555.974 482.997 567.36 C 491.805 586.741 494.576 604.961 492.923 622.822 C 494.38 645.334 502.284 664.359 516.634 679.896 C 509.664 689.898 511.252 698.054 522.756 702.787 C 534.328 717.818 534.207 734.383 539.151 743.148 C 546.308 755.836 556.403 764.231 564.691 775.239 C 574.986 788.913 602.381 781.923 609.497 786.911 C 621.347 795.217 627.502 796.169 634.43 793.269 C 674.519 776.487 726.997 802.248 760.465 828.89 C 779.858 844.327 765.305 807.911 747.418 758.732 Z">
      <title>Top Wing Outline</title>
    </path>
  </g>
  <g transform="matrix(1.715217, 0, 0, 1.715217, -541.753601, -544.122253)">
    <title>Thorax</title>
    <path style="stroke: rgb(0, 0, 0); stroke-width: 1.012; fill: rgb(173, 216, 230);" d="M 747.75 758.368 C 734.527 786.138 787.124 971.987 786.523 972.991 C 786.534 972.977 824.794 786.962 816.398 758.443 C 809.121 733.726 759.835 732.99 747.75 758.368 Z">
      <title>Thorax Outline</title>
    </path>
    <path style="stroke-width: 0.948; fill: url(#gradient-11);" d="M 749.774 760.132 C 737.362 786.197 786.729 960.629 786.165 961.57 C 786.174 961.558 822.083 786.968 814.203 760.202 C 807.374 737.004 761.115 736.312 749.774 760.132 Z">
      <title>Thorax Interior</title>
    </path>
  </g>
  <g transform="matrix(1.715217, 0, 0, 1.715217, -541.753601, -544.122253)">
    <title>Abdomen</title>
    <path style="stroke: rgb(0, 0, 0); fill: rgb(173, 216, 230);" d="M 789.265 1066.26 C 741.685 1032.468 746.289 951.369 757.616 891.279 C 762.712 864.245 800.005 860.712 810.393 890.338 C 829.12 943.746 820.683 1042.654 789.265 1066.26 Z">
      <title>Abdomen Outline</title>
    </path>
    <path style="stroke-width: 0.974; fill: url(#gradient-10);" d="M 789.011 1062.595 C 743.813 1029.7 751.319 951.014 758.885 893.409 C 762.43 866.416 800.38 862.793 809.307 892.536 C 824.844 944.298 818.769 1039.618 789.011 1062.595 Z">
      <title>Abdomen Interior</title>
    </path>
    <path style="fill: none; stroke: rgb(173, 216, 230); stroke-width: 2px;" d="M 771.26 1045.649 C 780.562 1040.272 792.333 1040.521 803.7 1044.207"/>
    <path style="fill: none; stroke: rgb(173, 216, 230); stroke-width: 2px;" d="M 762.393 1028.422 C 771.967 1020.811 799.052 1019.76 809.986 1026.997"/>
    <path style="fill: none; stroke: rgb(173, 216, 230); stroke-width: 2px;" d="M 755.103 1004.517 C 763.807 994.564 801.255 992.298 815.268 1003.718"/>
    <path style="fill: none; stroke: rgb(173, 216, 230); stroke-width: 2px;" d="M 751.597 976.98 C 760.874 967.767 804.554 964.968 818.567 976.388"/>
    <path style="fill: none; stroke: rgb(173, 216, 230); stroke-width: 2px;" d="M 751.864 946.027 C 761.141 936.814 804.803 934.637 818.816 946.057"/>
    <path style="fill: none; stroke: rgb(173, 216, 230); stroke-width: 2px;" d="M 755.819 910.989 C 765.096 901.776 800.31 899.324 814.323 910.744"/>
  </g>
  <g transform="matrix(1, 0, 0, 1, -14.639295, 2.942376)">
    <title>Signature</title>
    <path style="fill: none; stroke: rgb(194, 30, 86); stroke-linecap: round; stroke-width: 6px;" d="M 281.521 1451.456 L 281.365 1404.562 L 176.931 1453.01 L 78.298 1402.1 L 74.678 1545.127 L 176.479 1513.487 L 283.291 1551.041 L 281.244 1486.569 L 235.506 1485.468">
      <title>Signature</title>
    </path>
    <path style="fill: none; stroke: rgb(194, 30, 86); stroke-linecap: round; stroke-width: 6px;" d="M 176.829 1453.182 L 176.546 1512.936"/>
    <path style="fill: rgb(216, 216, 216); stroke-linecap: round; stroke: rgb(194, 30, 86); stroke-width: 6px;" d="M 76.473 1478.83 L 121.009 1480.405"/>
    <text style="fill: rgb(194, 30, 86); font-family: &quot;The Rich Family&quot;; font-size: 30px; white-space: pre;" x="140.112" y="1492.475" dx="0 0 3.55" dy="0 0 0.067">20 22</text>
  </g>
</svg>