<?xml version="1.0" encoding="utf-8"?>
<svg viewBox="0 0 2000 4750" xmlns="http://www.w3.org/2000/svg">
  <defs>
    <linearGradient gradientUnits="userSpaceOnUse" x1="1000.082" y1="-0.244" x2="1000.082" y2="4750.413" id="gradient-0" gradientTransform="matrix(-0.003248, 0.999993, -1.450164, -0.00471, 1890.700679, 1585.325098)">
      <stop offset="0" style="stop-color: rgb(255, 239, 213);"/>
      <stop offset="1" style="stop-color: rgb(65, 74, 76);"/>
    </linearGradient>
  </defs>
  <g>
    <title>Background</title>
    <rect x="-0.114" y="-0.102" width="2000.188" height="2604.673" style="fill: rgb(204, 102, 0);">
      <title>Sky Fill</title>
    </rect>
    <path style="fill: rgb(250, 214, 165);" d="M 209.163 496.019 C 206.168 471.155 216.579 450.508 240.397 434.077 C 258.025 421.916 279.278 419.28 304.156 426.168 C 312.282 393.299 331.929 377.388 363.097 378.433 C 340.362 337.974 351.478 315.693 396.445 311.591 C 415.064 277.107 439.948 263.718 471.097 271.426 C 497.667 278.001 513.973 299.985 520.015 337.379 C 578.207 320.088 601.173 345.686 588.911 414.174 C 646.721 423.417 675.515 453.236 675.292 503.63 C 708.946 478.55 733.758 484.328 749.729 520.964 C 759.932 544.37 743.609 564.004 700.76 579.866 C 740.936 590.836 751.317 615.265 731.901 653.152 C 720.75 674.911 696.947 680.496 660.492 669.907 C 634.889 690.482 619.937 688.921 615.636 665.225 C 603.497 692.283 588.205 699.441 569.759 686.7 C 548.126 720.869 521.788 722.206 490.744 690.711 C 462.43 697.841 447.068 689.134 444.657 664.591 C 431.336 704.669 394.608 715.943 334.473 698.414 C 323.813 695.307 317.2 686.387 314.635 671.654 C 257.712 678.973 229.688 655.675 230.563 601.759 C 185.648 587.895 161.458 568.456 157.992 543.443 C 154.73 519.9 171.787 504.092 209.163 496.019 Z">
      <title>Cloud 1</title>
    </path>
    <path style="fill: rgb(250, 214, 165);" d="M 1025.082 1003.459 C 1022.087 978.595 1032.498 957.948 1056.316 941.517 C 1073.944 929.356 1095.197 926.72 1120.075 933.608 C 1128.201 900.739 1147.848 884.828 1179.016 885.873 C 1156.281 845.414 1167.397 823.133 1212.364 819.031 C 1230.983 784.547 1255.867 771.158 1287.016 778.866 C 1313.586 785.441 1329.892 807.425 1335.934 844.819 C 1394.126 827.528 1417.092 853.126 1404.83 921.614 C 1462.64 930.857 1491.434 960.676 1491.211 1011.07 C 1524.865 985.99 1549.677 991.768 1565.648 1028.404 C 1575.851 1051.81 1559.528 1071.444 1516.679 1087.306 C 1556.855 1098.276 1567.236 1122.705 1547.82 1160.592 C 1536.669 1182.351 1512.866 1187.936 1476.411 1177.347 C 1450.808 1197.922 1435.856 1196.361 1431.555 1172.665 C 1419.416 1199.723 1404.124 1206.881 1385.678 1194.14 C 1364.045 1228.309 1337.707 1229.646 1306.663 1198.151 C 1278.349 1205.281 1262.987 1196.574 1260.576 1172.031 C 1247.255 1212.109 1210.527 1223.383 1150.392 1205.854 C 1139.732 1202.747 1133.119 1193.827 1130.554 1179.094 C 1073.631 1186.413 1045.607 1163.115 1046.482 1109.199 C 1001.567 1095.335 977.377 1075.896 973.911 1050.883 C 970.649 1027.34 987.706 1011.532 1025.082 1003.459 Z">
      <title>Cloud 2</title>
    </path>
    <g>
      <title>Cactus</title>
      <rect x="1677.077" y="1930.167" width="111.711" height="819.258" style="fill: rgb(86, 130, 3);" rx="55.856" ry="113.576">
        <title>Cactus Body</title>
      </rect>
      <rect x="1524.946" y="2246.502" width="192.222" height="81.269" style="fill: rgb(86, 130, 3);" rx="40.634" ry="40.634">
        <title>Cactus Left Arm 1</title>
      </rect>
      <rect x="1885.942" y="2108.354" width="246.378" height="81.269" style="fill: rgb(86, 130, 3);" rx="52.082" ry="40.634" transform="matrix(0, 1, -1, 0, 3714.513184, 192.946579)">
        <title>Cactus Left Arm 2</title>
      </rect>
      <rect x="-1934.404" y="2367.473" width="192.222" height="81.269" style="fill: rgb(86, 130, 3);" rx="40.634" ry="40.634" transform="matrix(-1, 0, 0, 1, 0, 0)">
        <title>Cactus Right Arm 1</title>
      </rect>
      <rect x="-2121.162" y="-2108.354" width="277.107" height="81.269" style="fill: rgb(86, 130, 3);" rx="58.578" ry="40.634" transform="matrix(0, 1, 1, 0, 3961.54541, 4290.292969)">
        <title>Cactus Right Arm 2</title>
      </rect>
    </g>
    <rect x="-0.125" y="2602.352" width="2000.201" height="2147.874" style="fill: rgb(193, 154, 107);">
      <title>Ground Fill</title>
    </rect>
  </g>
  <g>
    <title>Frog Wife</title>
    <g style="" transform="matrix(1, 0, 0, 1, 11.791039, 0)">
      <title>Frog Hair Back</title>
      <path style="stroke: rgb(0, 0, 0); stroke-width: 7px; fill: rgb(193, 154, 107);" d="M 1276.983 1050.962 C 1293.398 1092.235 1318.649 1105.509 1352.738 1090.784 C 1339.545 1126.992 1299.945 1152.573 1225.883 1155.622 C 1184.289 1201.128 1119.116 1215.352 1030.363 1198.295 C 1001.068 1210.35 952.157 1207.936 920.13 1195.831 C 893.333 1185.703 883.959 1167.068 871.835 1135.151 C 823.965 1009.13 964.455 981.067 1276.983 1050.962 Z">
        <title>Hair Back Fill</title>
      </path>
      <g>
        <title>Hair Back Details</title>
        <path style="stroke: rgb(0, 0, 0); fill: none; stroke-width: 7px; stroke-linecap: round;" d="M 1183.617 1135.396 C 1190.432 1148.294 1203.714 1155.232 1225.027 1155.687"/>
        <path style="stroke: rgb(0, 0, 0); fill: none; stroke-width: 7px; stroke-linecap: round;" d="M 1029.736 1198.074 C 1022.989 1193.628 1019.341 1184.705 1019.163 1173.257"/>
      </g>
    </g>
    <path style="stroke: rgb(0, 0, 0); stroke-width: 7px; fill: rgb(248, 184, 120);" d="M 1283.59 902.253 C 1331.135 961.948 1337.635 1015.423 1291.226 1064.705 C 1261.65 1096.112 1220.176 1114.918 1173.805 1126.482 C 1085.774 1148.436 995.106 1155.36 902.74 1151.134 C 920.776 1181.574 946.556 1206.638 971.423 1221.244 C 941.302 1297.164 873.886 1277.528 786.419 1180.483 C 650.189 1029.336 658.767 826.037 812.151 570.586 C 886.28 447.129 1027.717 474.189 1236.462 651.765 C 1306.877 711.666 1320.989 780.015 1283.59 902.253 Z">
      <title>Frog Face</title>
    </path>
    <g style="" transform="matrix(1, 0, 0, 1, -153.806564, -1528.617554)">
      <title>Frog Eyes</title>
      <ellipse style="stroke: rgb(0, 0, 0); fill: rgb(255, 255, 255); stroke-width: 7px;" cx="1049.297" cy="2363.36" rx="99.828" ry="82.797">
        <title>Eye 1</title>
      </ellipse>
      <ellipse style="stroke-width: 1.152;" cx="1049.297" cy="2363.36" rx="34.795" ry="34.795">
        <title>Pupil 1</title>
      </ellipse>
      <ellipse style="stroke: rgb(0, 0, 0); stroke-width: 7px; fill: rgb(255, 255, 255);" cx="1274.744" cy="2363.36" rx="99.828" ry="82.797">
        <title>Eye 2</title>
      </ellipse>
      <ellipse style="stroke-width: 1.152;" cx="1274.744" cy="2363.36" rx="34.795" ry="34.795">
        <title>Pupil 2</title>
      </ellipse>
    </g>
    <path style="stroke: rgb(0, 0, 0); fill: none; stroke-linecap: round; stroke-width: 10px;" d="M 992.099 1032.386 C 989.344 1029.363 1021.319 1066.926 1031.11 1077.896 C 1039.227 1086.526 1050.381 1086.096 1057.867 1079.04 C 1073.966 1063.865 1086.522 1048.721 1100.292 1029.516">
      <title>Frog Mouth</title>
    </path>
    <path style="stroke: rgb(0, 0, 0); stroke-width: 7px; fill: rgb(108, 84, 30);" d="M 860.226 1841.558 C 806.043 1837.825 755.86 1828.131 703.432 1800.944 C 545.704 1719.153 542.513 1544.442 682.414 1271.333 C 684.934 1266.413 689.862 1264.874 698.165 1267.541 C 823.272 1307.726 915.402 1401.421 974.556 1548.623 C 1013.831 1646.356 975.505 1744.419 860.226 1841.558 Z">
      <title>Frog Bloues Left</title>
    </path>
    <g transform="matrix(1, 0, 0, 1, 11.791039, 0)">
      <title>Frog Sleeve 2</title>
      <path style="stroke: rgb(0, 0, 0); stroke-width: 7px; fill: rgb(108, 84, 30);" d="M 1070.907 1280.339 C 1104.042 1296.908 1137.056 1309.702 1169.948 1318.723 C 1198.721 1326.614 1221.469 1345.921 1238.19 1376.643 C 1260.699 1417.999 1272.263 1463.641 1272.884 1513.569 C 1273.687 1578.141 1285.045 1676.448 1303.397 1739.602 C 1317.598 1709.142 1331.185 1646.837 1340.777 1614.489 C 1351.202 1579.333 1361.24 1545.761 1371.097 1510.358 C 1377.592 1487.029 1400.473 1477.933 1441.039 1489.817 C 1464.932 1496.817 1500.86 1540.654 1499.423 1543.58 C 1450.158 1643.892 1430.648 1722.632 1382.93 1824.707 C 1374.248 1843.278 1342.191 1889.046 1306.382 1886.75 C 1248.882 1883.062 1227.06 1837.833 1196.411 1761.87 C 1130.965 1599.663 1025.141 1421.225 1070.907 1280.339 Z">
        <title>Frog Sleeve Fill</title>
      </path>
      <path style="stroke: rgb(0, 0, 0); fill: none; stroke-linecap: round; stroke-width: 5px;" d="M 1289.509 1678.375 C 1293.404 1700.223 1297.406 1721.043 1302.837 1740.209 C 1307.084 1755.197 1309.596 1771.917 1309.709 1787.779">
        <title>Sleave Crease 1</title>
      </path>
      <path style="stroke: rgb(0, 0, 0); fill: none; stroke-linecap: round; stroke-width: 5px;" d="M 1322.131 1684.638 C 1316.905 1703.251 1311.262 1722.098 1303.472 1740.476 C 1297.278 1755.089 1292.723 1770.336 1290.541 1786.498">
        <title>Sleave Crease 2</title>
      </path>
    </g>
    <g transform="matrix(1, 0, 0, 1, 11.791039, 0)">
      <title>Frog Hand 2</title>
      <path style="stroke: rgb(0, 0, 0); stroke-width: 7px; fill: rgb(248, 184, 120);" d="M 1686.455 943.314 C 1641.148 996.498 1617.194 1058.467 1614.592 1129.221 C 1593.049 1167.961 1565.193 1202.015 1531.023 1231.384 C 1484.946 1246.58 1468.95 1271.552 1483.036 1306.3 C 1489.325 1321.815 1504.706 1328.424 1529.178 1326.127 C 1553.862 1323.81 1567.454 1303.075 1569.953 1263.922 C 1591.577 1233.282 1619.84 1204.623 1654.741 1177.945 C 1640.251 1221.202 1621.993 1262.082 1599.97 1300.585 C 1562.589 1329.093 1550.73 1367.307 1577.736 1403.137 C 1596.11 1427.514 1612.679 1407.169 1638.732 1334.827 C 1651.054 1286.431 1671.595 1242.378 1700.354 1202.667 C 1700.335 1240.39 1696.41 1277.601 1688.577 1314.304 C 1661.779 1331.22 1648.724 1354.588 1649.411 1384.413 C 1649.826 1402.41 1663.305 1414.34 1689.85 1420.205 C 1719.555 1426.768 1728.571 1397.715 1716.9 1333.043 C 1738.935 1292.823 1754.444 1222.189 1758.187 1180.914 C 1765.717 1097.881 1770.573 1097.632 1760.075 960.72 C 1758.224 936.582 1734.228 930.744 1686.455 943.314 Z" transform="matrix(-0.984288, -0.17657, 0.17657, -0.984288, 3007.078809, 2625.557861)">
        <title>Frog Hand</title>
      </path>
      <path style="stroke: rgb(0, 0, 0); fill: none; stroke-linecap: round; stroke-width: 7px;" d="M 1473.221 1194.573 C 1482.616 1174.66 1498.962 1155.946 1518.206 1156.063 C 1530.926 1156.14 1541.518 1158.721 1551.602 1172.486 C 1559.057 1182.662 1561.855 1196.442 1549.99 1210.179 C 1542.571 1218.769 1527.389 1222.995 1513.592 1219.768 C 1503.622 1246.288 1498.966 1274.059 1499.667 1303.081">
        <title>Frog Thumb</title>
      </path>
    </g>
    <path style="stroke: rgb(0, 0, 0); fill: rgb(108, 84, 30); stroke-width: 7px;" d="M 1403.554 1409.182 C 1430.225 1378.145 1479.706 1369.624 1534.225 1386.987 C 1543.984 1438.911 1542.25 1483.202 1538.137 1535.662 C 1508.735 1551.038 1476.822 1553.007 1435.985 1541.56 C 1421.211 1495.431 1411.808 1457.062 1403.554 1409.182 Z" transform="matrix(-0.904335, -0.426823, 0.426823, -0.904335, 2179.447579, 3415.490835)">
      <title>Frog Wrist 2</title>
    </path>
    <path style="stroke: rgb(0, 0, 0); stroke-width: 7px; stroke-linecap: round; fill: rgb(108, 84, 30);" d="M 1134.228 1416.609 C 1227.888 1482.266 1263.318 1558.293 1240.775 1644.169 C 1221.899 1716.078 1175.616 1776.221 1097.972 1810.379 C 964.638 1869.037 974.648 1637.207 1084.297 1288.18">
      <title>Frog Blouse Right</title>
    </path>
    <path style="stroke: rgb(0, 0, 0); fill: rgb(108, 84, 30); stroke-width: 5px;" d="M 840.266 1399.692 C 962.932 1560.162 967.675 1711.859 858.823 1842.35 C 952.876 1852.479 1031.745 1842.979 1093.636 1813.261 C 1218.476 1678.663 1200.342 1528.31 1052.442 1367.81 C 945.166 1293.061 878.72 1301.257 840.266 1399.692 Z">
      <title>Frog Blouse Center</title>
    </path>
    <ellipse style="fill-opacity: 0.5;" cx="1000" cy="4368.601" rx="977.188" ry="75.622">
      <title>Frog Shadow</title>
    </ellipse>
    <g transform="matrix(1, 0, 0, 1, 481.118317, -65.556122)" style="">
      <title>Frog Leg 2</title>
      <path style="stroke: rgb(0, 0, 0); fill: rgb(248, 184, 120); stroke-width: 7px;" d="M 379.98 2512.627 C 366.499 2616.884 346.949 2743.458 363.984 2855.966 C 375.283 2930.593 418.453 3034.853 458.336 3102.986 C 488.149 3153.917 501.411 3211.423 498.119 3275.504 C 495.024 3335.754 479.577 3394.073 451.779 3450.461 C 385.513 3584.881 370.774 3734.021 407.561 3897.881 C 430.661 4000.776 449.396 4104.555 463.765 4209.218 C 469.077 4247.91 467.701 4286.941 459.638 4326.311 C 456.074 4343.713 456.299 4361.474 460.312 4379.596 C 463.013 4391.795 473.142 4399.112 490.697 4401.547 C 622.347 4419.808 755.22 4422.992 889.314 4411.101 C 902.372 4409.943 914.636 4405.313 926.107 4397.212 C 941.916 4386.047 929.724 4371.016 889.531 4352.119 C 824.035 4321.326 755.333 4298.566 683.424 4283.842 C 580.346 4262.736 543.639 4164.129 573.305 3988.022 C 608.711 3777.838 659.884 3563.291 791.455 3386.947 C 939.063 3189.107 958.198 2715.446 922.017 2525.888 C 813.63 2558.228 553.826 2583.963 379.98 2512.627 Z">
        <title>Frog Thigh 2</title>
      </path>
      <path style="stroke: rgb(0, 0, 0); stroke-width: 7px; fill: rgb(36, 33, 36);" d="M 937.688 2756.38 C 932.35 2824.81 378.314 2825.865 357.455 2745.816 C 357.455 2745.816 358.58 2820.278 363.984 2855.966 C 375.283 2930.593 418.453 3034.853 458.336 3102.986 C 488.149 3153.917 501.411 3211.423 498.119 3275.504 C 495.024 3335.754 479.577 3394.073 451.779 3450.461 C 385.513 3584.881 370.774 3734.021 407.561 3897.881 C 430.661 4000.776 449.396 4104.555 463.765 4209.218 C 469.077 4247.91 467.701 4286.941 459.638 4326.311 C 456.074 4343.713 456.299 4361.474 460.312 4379.596 C 463.013 4391.795 473.142 4399.112 490.697 4401.547 C 622.347 4419.808 755.22 4422.992 889.314 4411.101 C 902.372 4409.943 914.636 4405.313 926.107 4397.212 C 941.916 4386.047 929.724 4371.016 889.531 4352.119 C 824.035 4321.326 755.333 4298.566 683.424 4283.842 C 580.346 4262.736 543.639 4164.129 573.305 3988.022 C 608.711 3777.838 659.884 3563.291 791.455 3386.947 C 867.619 3284.864 909.578 3109.344 927.382 2937.31 C 933.794 2875.35 937.688 2756.38 937.688 2756.38 Z">
        <title>Frog Stocking 2</title>
      </path>
    </g>
    <g transform="matrix(1, 0, 0, 1, 32.106926, -7.278467)">
      <title>Frog Leg 1</title>
      <path style="stroke: rgb(0, 0, 0); fill: rgb(248, 184, 120); stroke-width: 7px;" d="M 379.98 2512.627 C 366.499 2616.884 346.949 2743.458 363.984 2855.966 C 375.283 2930.593 418.453 3034.853 458.336 3102.986 C 488.149 3153.917 501.411 3211.423 498.119 3275.504 C 495.024 3335.754 479.577 3394.073 451.779 3450.461 C 385.513 3584.881 370.774 3734.021 407.561 3897.881 C 430.661 4000.776 449.396 4104.555 463.765 4209.218 C 469.077 4247.91 467.701 4286.941 459.638 4326.311 C 456.074 4343.713 456.299 4361.474 460.312 4379.596 C 463.013 4391.795 473.142 4399.112 490.697 4401.547 C 622.347 4419.808 755.22 4422.992 889.314 4411.101 C 902.372 4409.943 914.636 4405.313 926.107 4397.212 C 941.916 4386.047 929.724 4371.016 889.531 4352.119 C 824.035 4321.326 755.333 4298.566 683.424 4283.842 C 580.346 4262.736 543.639 4164.129 573.305 3988.022 C 608.711 3777.838 659.884 3563.291 791.455 3386.947 C 939.063 3189.107 958.198 2715.446 922.017 2525.888 C 813.63 2558.228 553.826 2583.963 379.98 2512.627 Z">
        <title>Frog Thigh 1</title>
      </path>
      <path style="stroke: rgb(0, 0, 0); stroke-width: 7px; fill: rgb(36, 33, 36);" d="M 937.688 2756.38 C 932.35 2824.81 378.314 2825.865 357.455 2745.816 C 357.455 2745.816 358.58 2820.278 363.984 2855.966 C 375.283 2930.593 418.453 3034.853 458.336 3102.986 C 488.149 3153.917 501.411 3211.423 498.119 3275.504 C 495.024 3335.754 479.577 3394.073 451.779 3450.461 C 385.513 3584.881 370.774 3734.021 407.561 3897.881 C 430.661 4000.776 449.396 4104.555 463.765 4209.218 C 469.077 4247.91 467.701 4286.941 459.638 4326.311 C 456.074 4343.713 456.299 4361.474 460.312 4379.596 C 463.013 4391.795 473.142 4399.112 490.697 4401.547 C 622.347 4419.808 755.22 4422.992 889.314 4411.101 C 902.372 4409.943 914.636 4405.313 926.107 4397.212 C 941.916 4386.047 929.724 4371.016 889.531 4352.119 C 824.035 4321.326 755.333 4298.566 683.424 4283.842 C 580.346 4262.736 543.639 4164.129 573.305 3988.022 C 608.711 3777.838 659.884 3563.291 791.455 3386.947 C 867.619 3284.864 909.578 3109.344 927.382 2937.31 C 933.794 2875.35 937.688 2756.38 937.688 2756.38 Z">
        <title>Frog Stocking 1</title>
      </path>
    </g>
    <g style="" transform="matrix(1, 0, 0, 1, 11.791039, 0)">
      <title>Frog Skirt</title>
      <path style="stroke: rgb(0, 0, 0); stroke-width: 7px; fill: rgb(60, 52, 31);" d="M 1132.864 1855.792 C 1256.943 1918.459 1380.866 2103.203 1511.603 2404.41 C 1523.752 2432.4 1495.932 2444.933 1428.142 2442.01 C 1387.237 2542.523 1318.26 2577.004 1221.212 2545.453 C 1115.092 2609.144 1009.951 2620.023 905.788 2578.091 C 791.273 2641.645 685.211 2633.886 587.603 2554.815 C 492.811 2612.066 408.054 2596.791 333.332 2508.992 C 271.28 2521.002 218.513 2484.512 175.031 2399.522 C 169.374 2388.465 178.652 2362.366 185.301 2348.301 C 278.901 2150.316 413.876 1975.309 636.124 1826.474 C 800.507 1920.23 957.469 1933.441 1132.864 1855.792 Z">
        <title>Frog Skirt Fill</title>
      </path>
      <path style="stroke: rgb(0, 0, 0); fill: none; stroke-linecap: round; stroke-width: 7px;" d="M 922.333 2070.172 C 926.203 2016.47 924.311 1963.215 920.185 1910.406">
        <title>Top Skirt Crease 1</title>
      </path>
      <path style="stroke: rgb(0, 0, 0); fill: none; stroke-width: 7px; stroke-linecap: round;" d="M 1104.86 2072.676 C 1097.127 2006.851 1068.681 1946.043 1026.394 1888.628">
        <title>Top Skirt Crease 2</title>
      </path>
      <path style="stroke: rgb(0, 0, 0); fill: none; stroke-linecap: round; stroke-width: 7px;" d="M 1187.159 1979.14 C 1162.901 1939.677 1128.023 1904.975 1088.661 1868.119">
        <title>Top Skirt Crease 3</title>
      </path>
      <path style="stroke: rgb(0, 0, 0); fill: none; stroke-linecap: round; stroke-width: 7px;" d="M 813.666 1900.506 C 776.578 1954.234 746.676 2009.296 723.959 2065.693">
        <title>Top Skirt Crease 4</title>
      </path>
      <path style="stroke: rgb(0, 0, 0); fill: none; stroke-linecap: round; stroke-width: 7px;" d="M 395.944 2303.596 C 367.613 2370.203 346.087 2441.306 333.361 2509.479">
        <title>Bottom Sleeve Crease 1</title>
      </path>
      <path style="stroke: rgb(0, 0, 0); fill: none; stroke-width: 7px; stroke-linecap: round;" d="M 591.451 2555.118 C 593.267 2514.608 593.247 2471.871 587.662 2431.98" transform="matrix(-0.996775, -0.080241, 0.080241, -0.996775, 978.198886, 5026.407097)">
        <title>Bottom Sleeve Crease 2</title>
      </path>
      <path style="stroke: rgb(0, 0, 0); fill: none; stroke-linecap: round; stroke-width: 7px;" d="M 912.971 2434.621 C 917.199 2483.173 913.479 2530.314 906.107 2578.051">
        <title>Bottom Sleeve Crease 3</title>
      </path>
      <path style="stroke: rgb(0, 0, 0); fill: none; stroke-linecap: round; stroke-width: 7px;" d="M 1204.646 2370.019 C 1222.526 2429.18 1227.526 2491.44 1221.304 2545.465">
        <title>Bottom Sleave Crease 4</title>
      </path>
      <path style="stroke: rgb(0, 0, 0); fill: none; stroke-linecap: round; stroke-width: 7px;" d="M 1380.993 2272.044 C 1407.654 2328.945 1425.071 2388.715 1428.01 2443.074">
        <title>Bottom Sleeve Crease 5</title>
      </path>
    </g>
    <path style="stroke: rgb(0, 0, 0); stroke-width: 7px; fill: rgb(248, 184, 120);" d="M 705.247 2389.565 C 659.939 2442.75 635.985 2504.719 633.383 2575.473 C 611.84 2614.213 583.984 2648.267 549.815 2677.636 C 503.738 2692.831 487.742 2717.803 501.828 2752.55 C 508.117 2768.064 523.498 2774.673 547.97 2772.376 C 572.653 2770.059 586.245 2749.325 588.744 2710.173 C 610.368 2679.534 638.631 2650.875 673.533 2624.197 C 659.042 2667.454 640.784 2708.333 618.761 2746.835 C 581.38 2775.342 569.521 2813.555 596.527 2849.385 C 614.901 2873.763 631.47 2853.418 657.523 2781.076 C 669.846 2732.681 690.387 2688.629 719.146 2648.919 C 719.127 2686.641 715.202 2723.852 707.369 2760.554 C 680.571 2777.469 667.516 2800.837 668.203 2830.661 C 668.618 2848.658 682.097 2860.589 708.642 2866.454 C 738.347 2873.017 747.363 2843.963 735.692 2779.292 C 757.727 2739.073 770.616 2698.326 774.359 2657.052 C 781.889 2574.019 783.392 2490.658 778.867 2406.971 C 777.56 2382.797 753.02 2376.995 705.247 2389.565 Z">
      <title>Frog Hand 1</title>
    </path>
    <path style="stroke: rgb(0, 0, 0); stroke-width: 7px; fill: rgb(74, 65, 42);" d="M 710.244 1803.324 C 872.372 1863.381 1014.231 1858.352 1140.246 1786.779 C 1145.089 1809.779 1146.18 1834.764 1141.438 1857.2 C 969.131 1937.002 824.746 1936.974 703.857 1858.573 C 688.627 1848.696 690.062 1828.768 710.244 1803.324 Z">
      <title>Frog Waistband</title>
    </path>
    <g transform="matrix(1, 0, 0, 1, 11.791039, 0)">
      <title>Frog Sleeve 1</title>
      <path style="stroke-linecap: round; stroke-width: 7px; fill: rgb(108, 84, 30);" d="M 670.4 1270.251 C 635.844 1291.733 600.454 1309.944 561.878 1324.454 C 540.369 1332.544 523.66 1344.836 508.532 1363.557 C 496.291 1378.705 486.815 1399.593 484.677 1422.296 C 472.282 1553.921 502.393 1682.529 545.869 1811.752 C 557.498 1846.316 565.567 1881.88 570.076 1918.444 C 584.489 2035.32 611.798 2149.031 649.883 2261.751 C 661.822 2297.085 701.526 2297.593 764.088 2258.546 C 777.187 2250.37 781.977 2240.727 781.212 2215.503 C 779.182 2148.569 760.171 2081.792 735.174 2017.865 C 712.224 1959.173 694.995 1896.535 696.811 1829.011 C 700.075 1707.659 694.707 1583.478 680.528 1458.926">
        <title>Frog Sleeve Fill</title>
      </path>
      <path style="stroke: rgb(0, 0, 0); fill: none; stroke-linecap: round; stroke-width: 7px;" d="M 670.4 1270.251 C 635.844 1291.733 600.454 1309.944 561.878 1324.454 C 540.369 1332.544 523.66 1344.836 508.532 1363.557 C 496.291 1378.705 486.815 1399.593 484.677 1422.296 C 472.282 1553.921 502.393 1682.529 545.869 1811.752 C 557.498 1846.316 565.567 1881.88 570.076 1918.444 C 584.489 2035.32 611.798 2149.031 649.883 2261.751 C 661.822 2297.085 701.526 2297.593 764.088 2258.546 C 777.187 2250.37 781.977 2240.727 781.212 2215.503 C 779.182 2148.569 760.171 2081.792 735.174 2017.865 C 712.224 1959.173 694.995 1896.535 696.811 1829.011 C 700.075 1707.659 694.707 1583.478 680.528 1458.926">
        <title>Frog Sleeve Outline</title>
      </path>
    </g>
    <path style="stroke: rgb(0, 0, 0); fill: rgb(108, 84, 30); stroke-width: 7px;" d="M 659.43 2261.079 C 686.101 2230.042 735.582 2221.521 790.101 2238.884 C 799.86 2290.808 800.238 2343.735 796.125 2396.195 C 766.723 2411.571 734.81 2413.54 693.973 2402.093 C 679.199 2355.964 667.684 2308.959 659.43 2261.079 Z" transform="matrix(0.999747, 0.022506, -0.022506, 0.999747, 52.392217, -15.819641)">
      <title>Frog Wrist 1</title>
    </path>
    <path style="stroke: rgb(0, 0, 0); stroke-width: 7px; fill: rgb(108, 84, 30);" d="M 748.5 1323.766 C 716.155 1310.589 693.901 1290.56 681.363 1270.438 C 721.662 1240.912 758.847 1214.943 795.155 1185.734 C 835.675 1218.147 871.946 1238.779 916.603 1259.989 C 932.178 1242.125 939.447 1234.164 956.373 1210.388 C 979.876 1222.602 1004.655 1236.679 1045.658 1260.948 C 1127.904 1309.629 995.051 1355.809 748.5 1323.766 Z">
      <title>Frog Collar</title>
    </path>
    <g style="" transform="matrix(1, 0, 0, 1, 11.791039, 0)">
      <title>Bowtie</title>
      <path style="stroke: rgb(0, 0, 0); stroke-width: 7px; fill: rgb(74, 65, 42);" d="M 866.308 1269.73 C 814.305 1266.778 770.228 1281.6 734.077 1314.195 C 730.332 1317.572 730.315 1322.614 734.026 1329.322 C 753.318 1364.194 782.89 1390.91 822.743 1409.47 C 827.517 1411.693 835.32 1411.934 837.514 1403.861 C 843.609 1378.664 856.923 1358.991 885.235 1343.622 L 866.308 1269.73 Z">
        <title>Bowtie Left</title>
      </path>
      <path style="stroke: rgb(0, 0, 0); stroke-width: 7px; stroke-linecap: round; fill: rgb(74, 65, 42);" d="M 805.262 1334.213 C 820.671 1311.519 842.82 1299.902 871.708 1299.362">
        <title>Crease 1</title>
      </path>
      <path style="stroke: rgb(0, 0, 0); stroke-width: 7px; fill: rgb(74, 65, 42);" d="M 969.176 1347.905 C 993.797 1350.307 1016.866 1356.242 1040.095 1373.01 C 1043.411 1375.404 1048.686 1376.034 1052.364 1370.365 C 1073.188 1333.056 1083.201 1293.684 1061.375 1261.424 C 1057.571 1255.801 1050.993 1253.488 1046.785 1252.22 C 1015.645 1242.838 949.011 1261.728 949.33 1265.019 C 949.33 1265.019 934.436 1310.773 969.176 1347.905 Z">
        <title>Bowtie Right</title>
      </path>
      <path style="stroke: rgb(0, 0, 0); stroke-width: 7px; stroke-linecap: round; fill: rgb(74, 65, 42);" d="M 1023.509 1304.155 C 1008.703 1288.807 984.468 1289.903 965.555 1296.559" transform="matrix(0.999123, -0.041867, 0.041867, 0.999123, -53.473311, 42.77651)">
        <title>Crease 2</title>
      </path>
      <path style="stroke: rgb(0, 0, 0); stroke-width: 7px; fill: rgb(74, 65, 42);" d="M 854.078 1272.031 C 865.058 1295.607 877.19 1324.577 874.413 1346.669 C 873.873 1350.966 877.73 1353.916 885.674 1353.142 C 919.836 1349.815 942.942 1347.935 966.993 1351.281 C 973.195 1352.144 976.831 1351.435 978.388 1346.101 C 985.875 1320.446 978.689 1291.177 963.318 1262.729 C 960.995 1258.43 956.235 1257.056 949.813 1257.024 C 921.268 1256.881 893.054 1260.341 865.017 1263.181 C 858.975 1263.793 850.536 1264.426 854.078 1272.031 Z">
        <title>Bowtie Center</title>
      </path>
    </g>
    <g transform="matrix(1, 0, 0, 1, 11.791039, 0)">
      <title>Buttons</title>
      <ellipse style="stroke: rgb(0, 0, 0); fill: rgb(60, 52, 31); stroke-width: 7px;" cx="930.415" cy="1459.262" rx="23.424" ry="22.83" transform="matrix(0.987261, 0.159106, 0, 1.012903, 12.530243, -166.754255)">
        <title>Button 1</title>
      </ellipse>
      <ellipse style="stroke: rgb(0, 0, 0); fill: rgb(60, 52, 31); stroke-width: 7px;" cx="969.015" cy="1594.042" rx="23.278" ry="23.278">
        <title>Button 2</title>
      </ellipse>
      <ellipse style="stroke: rgb(0, 0, 0); fill: rgb(60, 52, 31); stroke-width: 7px;" cx="960.623" cy="1748.464" rx="25.108" ry="22.146" transform="matrix(0.939156, -0.343491, 0.078194, 1.036187, -81.107512, 265.953838)">
        <title>Button 3</title>
      </ellipse>
      <ellipse style="stroke: rgb(0, 0, 0); fill: rgb(60, 52, 31); stroke-width: 7px;" cx="930.415" cy="1459.262" rx="21.478" ry="20.933" transform="matrix(0.987261, 0.159106, 0, 1.012903, 130.117968, -184.804426)">
        <title>Button 4</title>
      </ellipse>
      <ellipse style="stroke: rgb(0, 0, 0); fill: rgb(60, 52, 31); stroke-width: 7px;" cx="1110.179" cy="1572.451" rx="23.278" ry="23.278">
        <title>Button 5</title>
      </ellipse>
      <ellipse style="stroke: rgb(0, 0, 0); fill: rgb(60, 52, 31); stroke-width: 7px;" cx="960.623" cy="1748.464" rx="25.108" ry="22.146" transform="matrix(0.939156, -0.343491, 0.078194, 1.036187, 36.395429, 252.320446)">
        <title>Button 6</title>
      </ellipse>
    </g>
    <g style="" transform="matrix(1, 0, 0, 1, 11.791039, 0)">
      <title>Frog Hair Front</title>
      <path style="stroke: rgb(0, 0, 0); stroke-width: 7px; fill: rgb(193, 154, 107);" d="M 1272.071 902.681 C 1346.343 776.711 1331.553 678.34 1262.102 566.678 C 1219.401 498.024 1149.845 456.81 1053.434 443.034 C 848.155 401.718 689.219 442.988 571.822 585.014 C 462.416 745.351 454.779 882.115 527.417 971.797 C 545.642 994.299 541.16 1022.907 513.969 1057.62 C 488.99 1089.509 450.429 1101.914 398.286 1094.836 C 439.994 1145.077 483.055 1157.561 537.172 1139.424 C 566.694 1177.912 601.831 1188.416 668.507 1169.701 C 696.654 1198.955 740.191 1210.071 795.168 1180.295 C 827.157 1162.97 848.541 1107.651 823.769 1064.097 C 778.863 996.225 739.398 917.562 718.309 836.972 C 796.653 754.444 869.525 674.213 929.622 589.523 C 972.318 677.252 1035.769 711.245 1134.125 732.191 C 1161.588 708.188 1184.406 684.891 1199.825 660.507 C 1222.021 772.308 1230.958 850.946 1272.071 902.681 Z">
        <title>Hair Front Fill</title>
      </path>
      <g>
        <title>Hair Front Details</title>
        <path style="stroke: rgb(0, 0, 0); fill: none; stroke-width: 7px; stroke-linecap: round;" d="M 579.771 918.593 C 553.028 925.779 537.136 944.06 527.803 970.515">
          <title>Hair Detail 1</title>
        </path>
        <path style="stroke: rgb(0, 0, 0); fill: none; stroke-width: 7px; stroke-linecap: round;" d="M 718.832 836.572 C 673.957 873.8 637.002 896.769 604.387 896.521">
          <title>Hair Detail 2</title>
        </path>
        <path style="stroke: rgb(0, 0, 0); fill: none; stroke-width: 7px; stroke-linecap: round;" d="M 563.149 869.864 C 575.961 837.616 606.63 812.466 655.155 789.398 C 711.222 762.745 757.017 718.324 792.54 661.151">
          <title>Hair Detail 3</title>
        </path>
        <path style="fill: rgb(216, 216, 216); stroke: rgb(0, 0, 0); stroke-width: 7px; stroke-linecap: round;" d="M 754.606 624.25 L 714.571 706.156">
          <title>Hair Detail 4</title>
        </path>
        <path style="stroke: rgb(0, 0, 0); fill: none; stroke-width: 7px; stroke-linecap: round;" d="M 1199.494 662.222 C 1207.607 630.67 1203.296 601.755 1185.849 576.362">
          <title>Hair Detail 5</title>
        </path>
        <path style="stroke: rgb(0, 0, 0); stroke-width: 7px; stroke-linecap: round; fill: none;" d="M 1263.025 673.528 C 1273.278 688.082 1287.621 725.332 1287.378 747.526" transform="matrix(0.989498, 0.144548, -0.144548, 0.989498, 116.097368, -176.865503)">
          <title>Hair Detail 6</title>
        </path>
        <path style="stroke: rgb(0, 0, 0); fill: none; stroke-width: 7px; stroke-linecap: round;" d="M 537.143 1139.615 C 549.668 1122.722 566.77 1109.302 588.447 1099.354">
          <title>Hair Detail 7</title>
        </path>
        <path style="stroke: rgb(0, 0, 0); fill: none; stroke-width: 7px; stroke-linecap: round;" d="M 668.186 1170.346 C 684.013 1157.808 697.422 1139.626 708.414 1115.802">
          <title>Hair Detail 8</title>
        </path>
        <path style="stroke: rgb(0, 0, 0); fill: none; stroke-width: 7px; stroke-linecap: round;" d="M 930.611 553.76 C 932.743 565.413 931.845 579.185 924.746 590.662" transform="matrix(-0.972027, 0.234869, -0.234869, -0.972027, 1964.802581, 910.413778)">
          <title>Hair Detail 9</title>
        </path>
      </g>
    </g>
  </g>
  <rect x="-0.257" y="-0.244" width="2000.678" height="4750.657" style="fill: url(#gradient-0); mix-blend-mode: multiply; isolation: isolate;">
    <title>Mask Layer</title>
  </rect>
  <g transform="matrix(1, 0, 0, 1, 7.636837, -31.189161)">
    <title>Monogram</title>
    <path style="fill: none; stroke-linecap: round; stroke: rgb(150, 0, 24); stroke-width: 10px;" d="M 1891.705 184.542 L 1891.705 132.481 L 1724.006 211.098 L 1554.952 134.937 L 1554.952 323.829 L 1724.071 254.496 L 1891.535 323.386 L 1891.535 235.173 L 1808.1 235.173">
      <title>Insignia</title>
    </path>
    <path d="M 1685.143 228.407 Q 1686.989 228.495 1687.78 228.653 Q 1688.571 228.811 1688.571 229.286 Q 1688.571 229.497 1688.439 229.576 Q 1688.307 229.655 1688.008 229.699 Q 1687.709 229.743 1687.305 229.813 Q 1686.707 229.919 1685.336 230.226 Q 1683.965 230.534 1683.824 230.534 Q 1683.139 230.534 1683.139 229.672 Q 1683.139 228.899 1683.464 227.686 Q 1683.789 226.473 1684.343 225.427 Q 1684.897 224.381 1685.512 223.942 Q 1686.233 223.432 1687.753 222.914 Q 1689.274 222.395 1691.163 222.035 Q 1693.053 221.674 1694.617 221.674 Q 1695.408 221.674 1695.786 221.894 Q 1696.164 222.114 1696.323 222.492 Q 1696.481 222.87 1696.85 224.03 Q 1697.201 225.102 1697.201 226.473 Q 1697.201 228.143 1696.428 229.356 Q 1695.655 230.569 1694.283 231.588 Q 1692.912 232.608 1689.493 234.744 Q 1686.074 236.879 1684.176 238.163 Q 1684 238.286 1683.455 238.629 Q 1682.91 238.971 1682.489 239.34 Q 1682.067 239.71 1681.627 240.29 Q 1683.983 240.061 1689.08 239.006 Q 1690.469 238.708 1691.779 238.347 Q 1693.088 237.987 1693.352 237.987 Q 1693.791 237.987 1693.791 238.426 Q 1693.791 238.831 1693.607 239.42 Q 1693.422 240.008 1693.071 240.615 Q 1692.719 241.221 1692.244 241.661 Q 1689.924 243.823 1683.28 243.823 Q 1681.557 243.823 1680.977 243.278 Q 1680.625 242.962 1680.239 241.854 Q 1679.852 240.747 1679.852 240.219 Q 1679.852 239.305 1680.748 237.978 Q 1681.645 236.651 1683.209 235.254 Q 1684.774 233.856 1686.655 232.766 Q 1692.385 229.497 1692.737 229.251 Q 1694.02 228.372 1694.749 227.475 Q 1695.479 226.579 1695.479 226.034 Q 1695.479 225.542 1695.083 225.269 Q 1694.688 224.997 1693.967 224.997 Q 1692.824 224.997 1691.216 225.41 Q 1689.608 225.823 1687.964 226.605 Q 1686.321 227.387 1685.143 228.407 Z M 1712.999 223.373 Q 1713.825 223.742 1714.203 224.577 Q 1714.581 225.412 1714.581 227.047 Q 1714.581 229.525 1713.588 232.39 Q 1712.594 235.256 1710.81 237.769 Q 1709.026 240.283 1706.723 241.918 Q 1704.139 243.746 1702.487 243.746 Q 1701.204 243.746 1700.079 242.972 Q 1698.954 242.199 1698.286 240.766 Q 1697.618 239.334 1697.618 237.418 Q 1697.618 234.746 1699.086 231.802 Q 1700.553 228.857 1702.812 226.484 Q 1705.071 224.111 1707.523 222.828 Q 1709.975 221.545 1711.733 221.931 Q 1712.876 222.177 1712.999 223.373 Z M 1708.956 226.818 L 1709.571 225.535 Q 1708.534 226.062 1707.743 226.572 Q 1706.952 227.082 1705.923 228.013 Q 1704.895 228.945 1703.77 230.351 Q 1701.942 232.689 1701.01 234.878 Q 1700.079 237.066 1700.079 238.595 Q 1700.079 240.793 1701.555 240.793 Q 1702.399 240.793 1703.972 239.879 Q 1705.546 238.965 1707.303 237.365 Q 1708.991 235.818 1710.265 233.902 Q 1711.54 231.986 1712.216 230.123 Q 1712.893 228.26 1712.893 226.941 Q 1712.893 226.097 1712.524 225.632 Q 1712.155 225.166 1711.592 225.166 Q 1711.065 225.166 1710.476 225.57 Q 1709.887 225.974 1708.956 226.818 Z M 1739.995 228.484 Q 1741.84 228.572 1742.631 228.73 Q 1743.422 228.888 1743.422 229.363 Q 1743.422 229.574 1743.291 229.653 Q 1743.159 229.732 1742.86 229.776 Q 1742.561 229.82 1742.157 229.89 Q 1741.559 229.996 1740.188 230.303 Q 1738.817 230.611 1738.676 230.611 Q 1737.991 230.611 1737.991 229.749 Q 1737.991 228.976 1738.316 227.763 Q 1738.641 226.55 1739.195 225.504 Q 1739.749 224.458 1740.364 224.019 Q 1741.084 223.509 1742.605 222.991 Q 1744.125 222.472 1746.015 222.112 Q 1747.905 221.751 1749.469 221.751 Q 1750.26 221.751 1750.638 221.971 Q 1751.016 222.191 1751.174 222.569 Q 1751.333 222.947 1751.702 224.107 Q 1752.053 225.179 1752.053 226.55 Q 1752.053 228.22 1751.28 229.433 Q 1750.506 230.646 1749.135 231.665 Q 1747.764 232.685 1744.345 234.821 Q 1740.926 236.956 1739.028 238.24 Q 1738.852 238.363 1738.307 238.705 Q 1737.762 239.048 1737.34 239.417 Q 1736.918 239.787 1736.479 240.367 Q 1738.834 240.138 1743.932 239.083 Q 1745.321 238.785 1746.63 238.424 Q 1747.94 238.064 1748.204 238.064 Q 1748.643 238.064 1748.643 238.503 Q 1748.643 238.908 1748.458 239.497 Q 1748.274 240.085 1747.922 240.692 Q 1747.571 241.298 1747.096 241.738 Q 1744.776 243.9 1738.131 243.9 Q 1736.409 243.9 1735.829 243.355 Q 1735.477 243.038 1735.09 241.931 Q 1734.704 240.824 1734.704 240.296 Q 1734.704 239.382 1735.6 238.055 Q 1736.497 236.728 1738.061 235.33 Q 1739.625 233.933 1741.506 232.843 Q 1747.237 229.574 1747.588 229.328 Q 1748.872 228.449 1749.601 227.552 Q 1750.331 226.656 1750.331 226.111 Q 1750.331 225.619 1749.935 225.346 Q 1749.54 225.074 1748.819 225.074 Q 1747.676 225.074 1746.068 225.487 Q 1744.459 225.9 1742.816 226.682 Q 1741.172 227.464 1739.995 228.484 Z M 1757.438 228.484 Q 1759.284 228.572 1760.075 228.73 Q 1760.866 228.888 1760.866 229.363 Q 1760.866 229.574 1760.734 229.653 Q 1760.602 229.732 1760.304 229.776 Q 1760.005 229.82 1759.6 229.89 Q 1759.003 229.996 1757.632 230.303 Q 1756.261 230.611 1756.12 230.611 Q 1755.434 230.611 1755.434 229.749 Q 1755.434 228.976 1755.76 227.763 Q 1756.085 226.55 1756.639 225.504 Q 1757.192 224.458 1757.807 224.019 Q 1758.528 223.509 1760.049 222.991 Q 1761.569 222.472 1763.459 222.112 Q 1765.349 221.751 1766.913 221.751 Q 1767.704 221.751 1768.082 221.971 Q 1768.46 222.191 1768.618 222.569 Q 1768.776 222.947 1769.145 224.107 Q 1769.497 225.179 1769.497 226.55 Q 1769.497 228.22 1768.724 229.433 Q 1767.95 230.646 1766.579 231.665 Q 1765.208 232.685 1761.789 234.821 Q 1758.37 236.956 1756.472 238.24 Q 1756.296 238.363 1755.751 238.705 Q 1755.206 239.048 1754.784 239.417 Q 1754.362 239.787 1753.923 240.367 Q 1756.278 240.138 1761.376 239.083 Q 1762.765 238.785 1764.074 238.424 Q 1765.384 238.064 1765.647 238.064 Q 1766.087 238.064 1766.087 238.503 Q 1766.087 238.908 1765.902 239.497 Q 1765.718 240.085 1765.366 240.692 Q 1765.015 241.298 1764.54 241.738 Q 1762.22 243.9 1755.575 243.9 Q 1753.852 243.9 1753.272 243.355 Q 1752.921 243.038 1752.534 241.931 Q 1752.147 240.824 1752.147 240.296 Q 1752.147 239.382 1753.044 238.055 Q 1753.94 236.728 1755.505 235.33 Q 1757.069 233.933 1758.95 232.843 Q 1764.681 229.574 1765.032 229.328 Q 1766.315 228.449 1767.045 227.552 Q 1767.774 226.656 1767.774 226.111 Q 1767.774 225.619 1767.379 225.346 Q 1766.983 225.074 1766.263 225.074 Q 1765.12 225.074 1763.512 225.487 Q 1761.903 225.9 1760.26 226.682 Q 1758.616 227.464 1757.438 228.484 Z" style="fill: rgb(150, 0, 24); stroke-width: 10px; white-space: pre;"/>
    <path style="fill: none; stroke-linecap: round; stroke: rgb(150, 0, 24); stroke-width: 10px;" d="M 1555.388 230.172 L 1637.63 230.172"/>
    <path style="fill: rgb(216, 216, 216); stroke-linecap: round; stroke: rgb(150, 0, 24); stroke-width: 10px;" d="M 1724.459 211.781 L 1724.459 254.077"/>
  </g>
</svg>