<?xml version="1.0" encoding="utf-8"?>
<svg viewBox="0 0 375 500" xmlns="http://www.w3.org/2000/svg">
  <defs>
    <radialGradient gradientUnits="userSpaceOnUse" cx="241.178" cy="151.225" r="23.852" id="gradient-0" gradientTransform="matrix(1.197054, -0.663178, 0.541984, 0.978306, -127.95918, 162.459385)">
      <stop offset="0" style="stop-color: rgb(107, 68, 35);"/>
      <stop offset="1" style="stop-color: rgb(181, 105, 23);"/>
    </radialGradient>
    <linearGradient gradientUnits="userSpaceOnUse" x1="187.496" y1="0.005" x2="187.496" y2="499.999" id="gradient-1" gradientTransform="matrix(1.003474, 0, 0, 1, -1.302875, 0)">
      <stop offset="0" style="stop-color: rgba(254, 110, 94, 1)"/>
      <stop offset="1" style="stop-color: rgb(191, 79, 81);"/>
    </linearGradient>
    <linearGradient gradientUnits="userSpaceOnUse" x1="187.496" y1="0.005" x2="187.496" y2="499.999" id="gradient-2" gradientTransform="matrix(-0.005277, -0.999988, 1.388415, -0.007279, 10.178404, 370.820007)">
      <stop offset="0" style="stop-color: rgb(255, 255, 255);"/>
      <stop offset="1" style=""/>
    </linearGradient>
  </defs>
  <rect x="-1.305" y="0.005" width="376.299" height="499.994" style="fill: url(#gradient-1);">
    <title>Background</title>
  </rect>
  <path style="stroke: rgb(0, 0, 0); fill: rgb(112, 128, 144); stroke-width: 1.8px;" d="M 214.221 -0.983 C 203.816 7.665 193.096 16.488 185.045 27.054 C 171.753 44.499 155.796 58.56 139.327 74.371 C 125.802 87.356 114.88 103.077 103.155 118.28 C 69.314 162.161 39.733 210.537 23.319 264.048 C 19.146 290.019 19.525 322.602 22.984 362.047 C 25.155 386.796 31.677 410.769 42.55 433.965 C 53.344 448.634 64.972 458.167 77.433 462.562 C 80.586 463.674 83.924 463.493 87.448 462.02 C 100.393 454.455 108.62 446.644 119.942 435.99 C 122.233 433.364 121.264 425.354 121.262 406.448 C 132.661 400.792 156.786 394.619 169.513 384.655 C 178.573 373.117 186.858 362.472 198.602 353.36 C 200.417 351.951 202.045 350.329 203.484 348.494 C 208.547 345.711 216.27 342.926 226.655 340.139 C 231.498 338.84 236.168 337.011 240.663 334.653 C 245.11 333.24 250.938 334.499 264.558 339.625 C 271.471 340.793 276.564 341.366 284.473 340.755 C 289.344 340.379 294.109 341.453 298.77 343.978 C 299.505 344.376 299.799 343.593 299.65 341.629 C 299.547 340.266 300.85 340.68 303.56 342.871 C 304.444 343.586 305.526 343.237 306.806 341.823 C 312.003 338.223 314.708 334.348 320.18 328.888 C 337.369 318.435 356.322 313.09 375.999 313.035 L 375.988 -1.007 L 214.221 -0.983 Z">
    <title>Tapir Outline</title>
  </path>
  <path style="stroke: rgb(0, 0, 0); fill: none; stroke-linecap: round; stroke-width: 1.8px;" d="M 193.897 312.967 C 173.505 306.66 158.879 312.855 143.667 332.605 C 129.079 351.545 120.623 400.929 121.276 406.171">
    <title>Tapir Frown</title>
  </path>
  <path style="stroke: rgb(0, 0, 0); fill: none; stroke-linecap: round; stroke-width: 1.2px;" d="M 238.982 132.707 C 224.267 130.92 211.935 137.017 201.988 150.997" transform="matrix(0.998645, -0.052038, 0.052038, 0.998645, -7.075079, 11.665627)">
    <title>Eye Socket</title>
  </path>
  <g style="">
    <title>Tapir Nose</title>
    <path style="fill: rgb(47, 79, 79);" d="M 67.213 456.632 C 70.655 458.797 74.2 460.449 77.583 461.657 C 80.298 462.626 83.039 462.757 86.972 461.271 C 91.317 458.938 100.753 452.316 105.568 447.928 C 92.8 445.472 73.313 450.855 67.213 456.632 Z">
      <title>Nostril Exterior</title>
    </path>
    <path style="fill: rgb(42, 52, 57);" d="M 71.813 457.375 C 74.37 458.668 75.816 459.098 78.265 459.971 C 80.454 460.752 83.872 460.681 86.918 459.461 C 90.305 457.643 97.007 452.537 100.189 450.115 C 84.723 451.554 76.278 455.737 71.813 457.375 Z">
      <title>Nostril Interior</title>
    </path>
  </g>
  <g style="">
    <title>Undercoat</title>
    <path style="fill: rgb(227, 218, 201);" d="M 375.088 60.901 L 375.111 312.125 C 353.773 312.72 335.335 318.476 319.622 328.194 C 315.529 332.797 310.668 337.975 306.237 341.106 C 305.068 342.685 304.372 342.388 303.78 341.894 C 300.214 338.918 299.432 339.948 298.829 340.945 C 298.736 343.113 299.169 343.406 297.702 342.411 C 293.257 340.671 289.252 339.714 285.929 339.786 C 278.8 340.383 272.068 340.166 264.782 338.748 C 251.882 333.76 243.733 332.391 240.514 333.814 C 235.468 336.044 230.509 338.549 224.958 339.65 C 216.477 341.899 208.79 344.88 202.831 347.834 C 201.101 349.999 199.899 351.394 197.881 352.825 C 189.49 359.234 179.663 369.941 168.898 383.97 C 164.104 387.65 157.683 391.063 149.469 394.367 C 156.668 362.994 174.072 327.658 209.566 325.49 C 220.475 324.824 255.626 314.292 227.543 305.858 C 216.715 302.606 190.615 287.287 226.584 292.864 C 280.283 301.191 372.653 256.906 351.397 168.275 C 340.433 122.557 339.474 90.438 375.088 60.901 Z">
      <title>Undercoat 1</title>
    </path>
    <path style="fill: rgb(218, 160, 109);" d="M 149.465 394.375 C 157.24 370.236 173.303 341.267 212.382 329.467 C 267.58 312.8 306.864 289.386 331.877 263.925 C 345.43 250.129 356.887 227.398 359.168 217.207 C 362.578 201.975 360.742 182.353 355.067 167.599 C 346.824 146.17 344.597 114.445 349.572 100.151 C 355.309 83.668 371.614 64.086 375.568 60.741 C 382.837 54.591 365.966 54.952 345.447 74.644 C 335.309 84.374 330.598 99.301 330.737 117.142 C 330.902 138.421 336.614 155.123 343.604 176.061 C 355.02 210.254 343.538 241.392 298.534 272.715 C 284.839 282.246 270.284 287.317 252.724 289.477 C 245.57 290.357 238.01 290.252 230.756 288.876 C 215.593 286 197.637 284.099 181.968 285.522 C 179.753 285.723 175.892 286.77 173.904 288.027 C 171.235 289.714 171.299 291.119 179.381 292.682 C 191.395 295.006 205.482 296.051 210.799 311.008 C 212.906 316.935 202.52 325.642 190.16 327.505 C 167.718 330.888 141.328 362.395 149.465 394.375 Z">
      <title>Undercoat 2</title>
    </path>
  </g>
  <g style="">
    <title>Tapir Snout</title>
    <path style="stroke: rgb(0, 0, 0); fill: none; stroke-linecap: round;" d="M 22.219 347.897 C 29.157 350.003 35.711 350.104 41.881 348.2" transform="matrix(-1, 0, 0, -1, 64.1, 697.453064)">
      <title>Snout Wrinkle 1</title>
    </path>
    <path style="stroke: rgb(0, 0, 0); fill: none; stroke-linecap: round;" d="M 23.627 366.678 C 30.565 368.784 37.119 368.885 43.289 366.981" transform="matrix(-1, 0, 0, -1, 66.916002, 735.015076)">
      <title>Snout Wrinkle 2</title>
    </path>
    <path style="stroke: rgb(0, 0, 0); fill: none; stroke-linecap: round;" d="M 26.446 383.956 C 33.384 386.062 39.938 386.163 46.108 384.259" transform="matrix(-1, 0, 0, -1, 72.554001, 769.571075)">
      <title>Snout Wrinkle 3</title>
    </path>
  </g>
  <rect x="-1.305" y="0.005" width="376.299" height="499.994" style="fill: url(#gradient-2); mix-blend-mode: multiply; isolation: isolate;">
    <title>Mask</title>
  </rect>
  <g transform="matrix(0.534078, -0.127338, 0.127338, 0.534078, 85.568787, 120.163582)" style="">
    <title>Tapir Eye</title>
    <path style="stroke: rgb(0, 0, 0); fill: rgb(132, 132, 130); stroke-width: 0.910667px;" d="M 308.228 124.544 C 304.843 119.655 298.039 114.791 291.109 111.881 C 275.874 105.485 258.959 102.849 241.157 108.49 C 229.769 112.098 217.185 119.961 208.028 128.3 C 198.329 137.132 192.718 154.855 179.144 151.995 C 162.201 148.426 176.952 162.561 187.249 171.246 C 197.039 179.504 204.565 184.707 216.658 191.087 C 220.445 193.084 226.537 195.562 231.165 195.677 C 243.955 195.999 254.227 193.732 266.33 187.495 C 271.75 184.703 276.811 179.519 280.254 173.936 C 284.669 166.783 287.621 159.034 290.56 151.068 C 294.175 141.27 299 129.676 308.228 124.544 Z" transform="matrix(0.999046, 0.043666, -0.043666, 0.999046, 6.802938, -10.337344)">
      <title>Tapir Eyelid</title>
    </path>
    <path style="stroke: rgb(0, 0, 0); fill: rgb(175, 219, 245); stroke-width: 0.910666px;" d="M 210.555 179.886 C 208.244 182.775 206.447 185.807 205.165 188.984 C 201.966 196.911 199.807 205.182 198.688 213.798 C 198.177 217.727 198.624 221.663 200.028 225.607 C 201.348 238.45 201.171 251.585 199.499 265.011 C 196.562 272.642 192.06 279.495 185.989 285.572 C 184.881 286.682 183.328 286.896 181.33 286.213 C 180.773 283.029 181.234 279.484 182.715 275.579 C 186.445 265.736 188.345 255.383 188.416 244.519 C 188.421 243.735 187.992 243.077 187.13 242.546 C 186.059 241.886 185.456 240.782 185.323 239.232 C 185.256 238.455 184.48 238.519 182.991 239.427 C 181.134 237.672 180.727 235.074 181.77 231.631 C 182.611 228.856 183.83 226.225 185.426 223.739 C 185.981 222.876 185.885 221.854 185.141 220.675 C 186.047 219.404 186.12 217.765 185.36 215.757 C 184.513 213.518 183.997 211.18 183.811 208.743 C 183.599 205.946 183.104 203.183 182.331 200.458 C 181.919 197.904 183.449 195.357 186.922 192.818 C 190.445 190.241 190.692 189.246 192.208 184.694 C 192.544 183.685 193.058 181.582 194.689 181.781 C 196.51 182.003 196.185 178.44 193.407 177.539 C 191.841 177.031 191.413 175.501 190.086 174.72 C 188.169 173.591 186.767 174.283 185.099 172.123 C 183.866 170.525 184.345 167.775 182.582 166.453 C 181.547 165.676 180.918 160.573 182.523 158.822 L 210.555 179.886 Z">
      <title>Tapir Tear</title>
    </path>
    <path style="stroke: rgb(0, 0, 0); fill: rgb(237, 234, 224); stroke-width: 0.910666px;" d="M 302.656 126.502 C 299.576 122.055 292.855 118.467 286.55 115.82 C 272.688 110.001 257.74 108.553 241.541 113.679 C 231.165 116.963 220.465 122.529 212.463 129.604 C 203.219 137.777 193.622 155.325 181.511 152.553 C 166.823 149.191 183.323 160.523 191.006 168.448 C 199.651 177.365 207.4 181.494 217.643 187.068 C 221.867 189.367 229.805 191.385 234.016 191.49 C 245.652 191.782 252.759 189.917 263.772 184.243 C 268.703 181.702 272.761 177.223 275.894 172.144 C 279.911 165.635 283.376 158.721 286.05 151.473 C 289.339 142.559 295.562 132.768 302.656 126.502 Z">
      <title>Sclera</title>
    </path>
    <path style="stroke: rgb(0, 0, 0); fill: rgb(252, 201, 185); stroke-width: 0.910666px;" d="M 181.934 160.1 C 180.026 158.342 178.641 157.43 176.911 155.512 C 176.245 154.773 175.636 153.844 175.478 153.055 C 175.347 152.401 175.979 151.849 177.28 151.935 C 178.736 152.031 180.191 152.287 181.625 152.601 C 182.191 155.255 182.258 157.546 181.934 160.1 Z">
      <title>Lacrimal Caruncle</title>
    </path>
    <circle style="stroke: rgb(0, 0, 0); fill: url(#gradient-0); stroke-width: 0.910666px;" cx="241.261" cy="148.179" r="33.63" transform="matrix(0.979723, 0.200358, -0.200358, 0.979723, 34.212227, -39.681788)">
      <title>Iris</title>
    </circle>
    <circle style="fill: rgb(52, 52, 52);" cx="242.332" cy="148.482" r="15.211" transform="matrix(0.979723, 0.200358, -0.200358, 0.979723, 34.591511, -39.485568)">
      <title>Pupil</title>
    </circle>
    <circle style="fill: rgb(216, 216, 216);" cx="244.094" cy="143.36" r="3.469" transform="matrix(0.979723, 0.200358, -0.200358, 0.979723, 38.068846, -40.262059)">
      <title>Eye Shine</title>
    </circle>
  </g>
  <g transform="matrix(0.490291, 0, 0, 0.490291, 175.799316, 149.326096)" style="">
    <title>Monogram</title>
    <path style="fill: none; stroke-linecap: round; stroke: rgb(138, 154, 91); stroke-width: 2.0396px;" d="M 345.48 451.917 L 345.563 435.961 L 321.657 453.567 L 295.927 436.494 L 295.356 479.122 L 321.709 464.544 L 344.627 480.031 L 345.268 459.695 L 335.624 459.679">
      <title>Monogram</title>
    </path>
    <path style="fill: rgb(216, 216, 216); stroke-linecap: round; stroke: rgb(138, 154, 91); stroke-width: 2.0396px;" d="M 295.72 458.152 L 305.323 458.374"/>
    <path style="fill: rgb(216, 216, 216); stroke-linecap: round; stroke: rgb(138, 154, 91); stroke-width: 2.0396px;" d="M 321.625 453.508 L 321.669 464.488"/>
    <path d="M 312.879 459.858 Q 313.179 459.858 313.179 460.085 Q 313.179 460.312 312.979 460.417 Q 312.779 460.521 312.529 460.567 Q 312.28 460.612 312.062 460.617 Q 311.844 460.621 311.785 460.635 Q 311.726 460.648 311.521 460.707 Q 311.317 460.767 311.035 460.844 Q 310.754 460.921 310.427 461.012 Q 309.401 461.284 308.792 461.284 Q 308.483 461.284 308.379 461.189 Q 308.275 461.093 308.338 460.921 Q 309.019 460.321 309.755 459.377 Q 310.854 457.969 310.854 457.179 Q 310.854 457.025 310.808 456.888 Q 310.709 456.607 310.291 456.525 Q 309.891 456.525 309.637 456.689 Q 309.383 456.852 309.16 457.052 Q 308.938 457.252 308.706 457.415 Q 308.474 457.579 308.138 457.579 Q 308.147 457.279 308.384 456.997 Q 308.856 456.416 309.719 456.162 Q 310.027 456.062 310.209 456.062 Q 310.391 456.062 310.481 456.071 Q 310.836 456.107 311.09 456.325 Q 311.344 456.543 311.39 456.997 Q 311.39 458.278 310.191 459.84 Q 309.864 460.267 309.546 460.63 Q 309.646 460.639 309.859 460.639 Q 310.073 460.639 310.445 460.535 Q 310.817 460.43 311.235 460.281 Q 311.653 460.131 312.062 459.995 Q 312.47 459.858 312.879 459.858 Z M 314.827 460.993 Q 314.5 460.785 314.309 460.471 Q 314.118 460.158 314.118 459.795 Q 314.118 459.431 314.227 458.932 Q 314.336 458.432 314.504 458.005 Q 314.672 457.579 314.913 457.179 Q 315.154 456.779 315.463 456.471 Q 316.144 455.808 317.007 455.808 Q 318.169 455.808 318.787 456.661 Q 319.359 457.433 319.359 458.578 Q 319.359 459.931 318.496 460.685 Q 317.651 461.411 316.253 461.411 Q 315.444 461.411 314.827 460.993 Z M 314.654 459.731 Q 314.654 460.957 316.398 460.957 Q 317.651 460.957 318.283 460.312 Q 318.914 459.667 318.914 458.478 Q 318.914 458.441 318.914 458.405 Q 318.914 457.361 318.396 456.807 Q 317.878 456.253 316.979 456.253 Q 316.879 456.253 316.802 456.253 Q 316.725 456.253 316.661 456.253 Q 316.18 456.253 315.708 456.906 Q 315.263 457.506 314.945 458.441 Q 314.654 459.295 314.654 459.731 Z M 328.765 459.876 Q 329.064 459.876 329.064 460.103 Q 329.064 460.33 328.864 460.435 Q 328.665 460.539 328.415 460.585 Q 328.165 460.63 327.947 460.635 Q 327.729 460.639 327.67 460.653 Q 327.611 460.666 327.407 460.725 Q 327.202 460.785 326.921 460.862 Q 326.639 460.939 326.312 461.03 Q 325.286 461.302 324.678 461.302 Q 324.369 461.302 324.264 461.207 Q 324.16 461.111 324.224 460.939 Q 324.905 460.339 325.64 459.395 Q 326.739 457.987 326.739 457.197 Q 326.739 457.043 326.694 456.906 Q 326.594 456.625 326.176 456.543 Q 325.777 456.543 325.522 456.707 Q 325.268 456.87 325.045 457.07 Q 324.823 457.27 324.591 457.433 Q 324.36 457.597 324.024 457.597 Q 324.033 457.297 324.269 457.015 Q 324.741 456.434 325.604 456.18 Q 325.913 456.08 326.094 456.08 Q 326.276 456.08 326.367 456.089 Q 326.721 456.125 326.975 456.343 Q 327.23 456.561 327.275 457.015 Q 327.275 458.296 326.076 459.858 Q 325.749 460.285 325.431 460.648 Q 325.531 460.657 325.745 460.657 Q 325.958 460.657 326.331 460.553 Q 326.703 460.448 327.121 460.299 Q 327.538 460.149 327.947 460.013 Q 328.356 459.876 328.765 459.876 Z M 330.601 461.157 Q 330.601 460.984 330.615 460.616 Q 330.628 460.248 330.642 459.785 Q 330.656 459.322 330.674 458.814 Q 330.692 458.305 330.706 457.842 Q 330.719 457.379 330.728 457.015 Q 330.737 456.652 330.746 456.47 Q 330.728 456.271 330.819 456.216 Q 330.91 456.162 331.023 456.162 Q 331.137 456.162 331.223 456.18 Q 331.309 456.198 331.346 456.325 L 331.201 460.993 Q 331.182 461.157 330.946 461.225 Q 330.71 461.293 330.601 461.157 Z" style="white-space: pre; stroke-width: 0px; fill: rgb(138, 154, 91);"/>
  </g>
</svg>